<svg width="59" height="68" viewBox="0 0 59 68" fill="none" xmlns="http://www.w3.org/2000/svg">
<path d="M29.4996 2L1.56543 18.4925V50.8433L29.4996 66.7015L57.4339 50.8433V18.4925L29.4996 2Z" fill="#242938" stroke="#1B1F2C" stroke-width="2"/>
<path d="M52.3551 48.089C51.6897 48.3408 50.9551 48.3403 50.2901 48.0876C49.6251 47.8349 49.0758 47.3476 48.746 46.7177C46.6746 43.6196 44.3873 40.6612 42.1888 37.6393L41.2355 36.3697C38.6177 39.8741 35.9998 43.2387 33.6108 46.7305C33.2996 47.3325 32.78 47.801 32.1488 48.0486C31.5175 48.2962 30.8177 48.3061 30.1797 48.0765L40.0029 34.9095L30.8659 23.0121C31.5236 22.7748 32.2431 22.7715 32.903 23.0028C33.5628 23.2341 34.1226 23.6859 34.4877 24.2818C36.6098 27.3801 38.961 30.3385 41.2991 33.4748C43.6502 30.3638 45.9757 27.3927 48.1488 24.3199C48.4617 23.7277 48.9816 23.271 49.6096 23.0369C50.2375 22.8028 50.9297 22.8075 51.5544 23.0502L48.0089 27.7482C46.4205 29.8432 44.8574 31.9509 43.2054 33.9952C43.0722 34.1143 42.9656 34.26 42.8927 34.423C42.8197 34.5861 42.782 34.7626 42.782 34.9412C42.782 35.1197 42.8197 35.2963 42.8927 35.4593C42.9656 35.6223 43.0722 35.7681 43.2054 35.8871C46.2426 39.9122 49.2543 43.9498 52.3551 48.089ZM6.64453 34.7444C6.91148 33.4748 7.0765 32.0907 7.44515 30.7957C9.6436 22.987 18.6026 19.7363 24.766 24.5741C28.3751 27.4057 29.2774 31.418 29.0996 35.9381H8.76687C8.43638 44.0135 14.2693 48.8892 21.7288 46.4005C22.9388 45.968 24.022 45.2412 24.8806 44.2858C25.7392 43.3304 26.3462 42.1764 26.6468 40.9279C27.0408 39.6583 27.6762 39.4425 28.8834 39.8106C28.6846 41.3563 28.1376 42.837 27.2836 44.1411C26.4296 45.4453 25.2908 46.539 23.9528 47.34C21.7422 48.548 19.2058 49.0265 16.7065 48.7073C14.2072 48.388 11.873 47.2873 10.0376 45.5625C8.22184 43.5226 7.12394 40.9451 6.91148 38.2235C6.91148 37.7919 6.74624 37.3601 6.65733 36.9538C6.64892 36.2174 6.64465 35.4809 6.64453 34.7444ZM8.79224 34.1984H27.1807C27.0662 28.3452 23.3682 24.1932 18.4376 24.1552C12.9478 24.079 9.02102 28.1419 8.77944 34.1731L8.79224 34.1984Z" fill="white"/>
</svg>
