<svg width="46" height="55" fill="none" xmlns="http://www.w3.org/2000/svg"><path d="M23 2 1 15v25.5L23 53l22-12.5V15L23 2z" fill="#242938" stroke="#1B1F2C" stroke-width="2"/><path d="M41 38.329a2.291 2.291 0 0 1-2.842-1.081c-1.632-2.442-3.433-4.774-5.165-7.156l-.75-1c-2.062 2.761-4.124 5.413-6.005 8.166a2.202 2.202 0 0 1-2.703 1.06l7.737-10.378-7.196-9.378a2.392 2.392 0 0 1 2.852 1.001c1.672 2.442 3.523 4.774 5.365 7.246 1.851-2.452 3.683-4.794 5.394-7.216a2.15 2.15 0 0 1 2.683-1l-2.793 3.702c-1.25 1.652-2.482 3.313-3.783 4.924a1 1 0 0 0 0 1.492c2.392 3.173 4.764 6.355 7.206 9.618zM5 27.81c.21-1 .34-2.092.63-3.112 1.732-6.156 8.788-8.718 13.642-4.905 2.842 2.232 3.553 5.395 3.413 8.958H6.67c-.26 6.365 4.334 10.208 10.209 8.247a6.095 6.095 0 0 0 3.873-4.314c.31-1 .81-1.17 1.762-.88a8.126 8.126 0 0 1-3.884 5.934 9.407 9.407 0 0 1-10.959-1.4 9.858 9.858 0 0 1-2.462-5.786c0-.34-.13-.68-.2-1-.007-.58-.01-1.161-.01-1.742zm1.691-.43h14.483c-.09-4.614-3.003-7.887-6.886-7.917-4.324-.06-7.416 3.143-7.607 7.897l.01.02z" fill="#fff"/></svg>