<svg width="59" height="68" viewBox="0 0 59 68" fill="none" xmlns="http://www.w3.org/2000/svg">
<path d="M29.4996 2L1.56543 18.4925V50.8433L29.4996 66.7015L57.4339 50.8433V18.4925L29.4996 2Z" fill="#1E1E1E" stroke="url(#paint0_linear_503_864)" stroke-width="2"/>
<g clip-path="url(#clip0_503_864)">
<path d="M23.1514 54.0147C26.6559 54.0147 29.5001 51.0782 29.5001 47.46V40.9053H23.1514C19.6469 40.9053 16.8027 43.8418 16.8027 47.46C16.8027 51.0782 19.6469 54.0147 23.1514 54.0147Z" fill="#0ACF83"/>
<path d="M16.8027 34.3506C16.8027 30.7324 19.6469 27.7959 23.1514 27.7959H29.5001V40.9054H23.1514C19.6469 40.9054 16.8027 37.9688 16.8027 34.3506Z" fill="#A259FF"/>
<path d="M16.8027 21.2413C16.8027 17.623 19.6469 14.6865 23.1514 14.6865H29.5001V27.796H23.1514C19.6469 27.796 16.8027 24.8595 16.8027 21.2413Z" fill="#F24E1E"/>
<path d="M29.5 14.6865H35.8487C39.3532 14.6865 42.1974 17.623 42.1974 21.2413C42.1974 24.8595 39.3532 27.796 35.8487 27.796H29.5V14.6865Z" fill="#FF7262"/>
<path d="M42.1974 34.3506C42.1974 37.9688 39.3532 40.9054 35.8487 40.9054C32.3442 40.9054 29.5 37.9688 29.5 34.3506C29.5 30.7324 32.3442 27.7959 35.8487 27.7959C39.3532 27.7959 42.1974 30.7324 42.1974 34.3506Z" fill="#1ABCFE"/>
</g>
<defs>
<linearGradient id="paint0_linear_503_864" x1="29.4996" y1="2" x2="29.4996" y2="66.7015" gradientUnits="userSpaceOnUse">
<stop stop-color="#F24E1E"/>
<stop offset="0.234375" stop-color="#FF7262"/>
<stop offset="0.463542" stop-color="#A259FF"/>
<stop offset="0.734375" stop-color="#1ABCFE"/>
<stop offset="1" stop-color="#0ACF83"/>
</linearGradient>
<clipPath id="clip0_503_864">
<rect width="25.3947" height="39.3284" fill="white" transform="translate(16.8027 14.6865)"/>
</clipPath>
</defs>
</svg>
