<svg width="46" height="55" viewBox="0 0 46 55" fill="none" xmlns="http://www.w3.org/2000/svg">
<path d="M23 2L1 15V40.5L23 53L45 40.5V15L23 2Z" fill="#1E1E1E" stroke="url(#paint0_linear_594_3371)" stroke-width="2"/>
<g clip-path="url(#clip0_594_3371)">
<path d="M18 42.9998C20.76 42.9998 23 40.6852 23 37.8332V32.6665H18C15.24 32.6665 13 34.9812 13 37.8332C13 40.6852 15.24 42.9998 18 42.9998Z" fill="#0ACF83"/>
<path d="M13 27.5002C13 24.6482 15.24 22.3335 18 22.3335H23V32.6668H18C15.24 32.6668 13 30.3522 13 27.5002Z" fill="#A259FF"/>
<path d="M13 17.1667C13 14.3147 15.24 12 18 12H23V22.3333H18C15.24 22.3333 13 20.0187 13 17.1667Z" fill="#F24E1E"/>
<path d="M23 12H28C30.76 12 33 14.3147 33 17.1667C33 20.0187 30.76 22.3333 28 22.3333H23V12Z" fill="#FF7262"/>
<path d="M33 27.5002C33 30.3522 30.76 32.6668 28 32.6668C25.24 32.6668 23 30.3522 23 27.5002C23 24.6482 25.24 22.3335 28 22.3335C30.76 22.3335 33 24.6482 33 27.5002Z" fill="#1ABCFE"/>
</g>
<defs>
<linearGradient id="paint0_linear_594_3371" x1="23" y1="2" x2="23" y2="53" gradientUnits="userSpaceOnUse">
<stop stop-color="#F24E1E"/>
<stop offset="0.234375" stop-color="#FF7262"/>
<stop offset="0.463542" stop-color="#A259FF"/>
<stop offset="0.734375" stop-color="#1ABCFE"/>
<stop offset="1" stop-color="#0ACF83"/>
</linearGradient>
<clipPath id="clip0_594_3371">
<rect width="20" height="31" fill="white" transform="translate(13 12)"/>
</clipPath>
</defs>
</svg>
