<svg width="59" height="68" viewBox="0 0 59 68" fill="none" xmlns="http://www.w3.org/2000/svg">
<path d="M29.4996 2L1.56543 18.4925V50.8433L29.4996 66.7015L57.4339 50.8433V18.4925L29.4996 2Z" fill="#3D2D00" stroke="#F05033" stroke-width="2"/>
<path d="M11.734 31.5937L23.0485 20.2693L26.3567 23.5943C25.8868 25.2567 26.6503 27.0757 28.1771 27.9558V38.7912C27.0026 39.4562 26.2196 40.7275 26.2196 42.1748C26.2196 43.2122 26.6321 44.2072 27.3663 44.9408C28.1005 45.6744 29.0963 46.0865 30.1346 46.0865C31.173 46.0865 32.1688 45.6744 32.903 44.9408C33.6372 44.2072 34.0497 43.2122 34.0497 42.1748C34.0497 40.7275 33.2667 39.4562 32.0922 38.7912V29.2858L36.1442 33.3735C36.0072 33.6669 36.0072 33.9994 36.0072 34.3514C36.0072 35.3889 36.4197 36.3838 37.1539 37.1174C37.8881 37.851 38.8839 38.2631 39.9222 38.2631C40.9605 38.2631 41.9563 37.851 42.6905 37.1174C43.4247 36.3838 43.8372 35.3889 43.8372 34.3514C43.8372 33.314 43.4247 32.319 42.6905 31.5854C41.9563 30.8518 40.9605 30.4397 39.9222 30.4397C39.5699 30.4397 39.2371 30.4397 38.9434 30.5766L33.9126 25.5501C34.1557 24.6442 34.0615 23.681 33.6475 22.8393C33.2334 21.9976 32.5278 21.3346 31.6615 20.9734C30.8198 20.6605 29.9389 20.5823 29.1559 20.7974L25.8281 17.492L27.3746 15.9665C28.9014 14.4213 31.3679 14.4213 32.8947 15.9665L48.5352 31.5937C50.0817 33.1192 50.0817 35.5836 48.5352 37.1091L32.8947 52.7364C31.3679 54.2815 28.9014 54.2815 27.3746 52.7364L11.734 37.1091C10.1876 35.5836 10.1876 33.1192 11.734 31.5937Z" fill="#F05033"/>
</svg>
