<svg xmlns="http://www.w3.org/2000/svg" width="46" height="55" fill="none"><path fill="#3D2D00" stroke="#F05033" stroke-width="2" d="M23 2 1 15v25.5L23 53l22-12.5V15L23 2z"/><path fill="#F05033" d="M9.008 25.326 17.92 16.4l2.606 2.62c-.37 1.311.23 2.745 1.433 3.439v8.54a3.083 3.083 0 1 0 4.625 2.667 3.06 3.06 0 0 0-1.541-2.667v-7.492l3.19 3.222c-.107.231-.107.493-.107.77a3.084 3.084 0 1 0 3.083-3.082c-.277 0-.54 0-.77.107l-3.963-3.962a3.052 3.052 0 0 0-1.773-3.607c-.662-.247-1.356-.308-1.973-.139l-2.62-2.605 1.217-1.203a3.043 3.043 0 0 1 4.348 0l12.318 12.318a3.043 3.043 0 0 1 0 4.348L25.674 41.992a3.043 3.043 0 0 1-4.348 0L9.008 29.674a3.043 3.043 0 0 1 0-4.348z"/></svg>