<svg xmlns="http://www.w3.org/2000/svg" width="46" height="55" fill="none"><path fill="#010101" stroke="#fff" stroke-width="2" d="M23 2 1 15v25.5L23 53l22-12.5V15L23 2z"/><g clip-path="url(#a)"><path fill="#fff" d="M22.5 9C12.279 9 4 17.279 4 27.5c0 8.186 5.296 15.1 12.65 17.552.924.162 1.271-.393 1.271-.879 0-.44-.023-1.896-.023-3.446-4.648.856-5.85-1.133-6.22-2.173-.209-.532-1.11-2.174-1.897-2.613-.647-.347-1.572-1.203-.023-1.226 1.457-.023 2.498 1.341 2.845 1.896 1.665 2.798 4.324 2.012 5.388 1.527.162-1.203.647-2.012 1.179-2.475-4.116-.462-8.418-2.058-8.418-9.134 0-2.012.717-3.677 1.897-4.972-.185-.463-.833-2.359.185-4.903 0 0 1.55-.485 5.087 1.897a17.17 17.17 0 0 1 4.625-.625c1.573 0 3.145.208 4.625.625 3.538-2.405 5.088-1.897 5.088-1.897 1.017 2.544.37 4.44.185 4.903 1.18 1.295 1.896 2.937 1.896 4.972 0 7.1-4.324 8.672-8.44 9.134.67.578 1.248 1.688 1.248 3.423 0 2.474-.023 4.463-.023 5.087 0 .486.347 1.064 1.272.879A18.528 18.528 0 0 0 41 27.5C41 17.279 32.721 9 22.5 9z"/></g><defs><clipPath id="a"><path fill="#fff" d="M4 9h37v37H4z"/></clipPath></defs></svg>