<svg width="46" height="55" fill="none" xmlns="http://www.w3.org/2000/svg"><path d="M23 2 1 15v25.5L23 53l22-12.5V15L23 2z" fill="#333" stroke="#419A35" stroke-width="2"/><path d="M40.146 30.13a.5.5 0 0 0 .724.447l1.854-.926a.5.5 0 0 0 .276-.448v-1.299a.5.5 0 0 0-.257-.437l-3.78-2.1a.5.5 0 0 0-.486 0l-3.78 2.1a.5.5 0 0 0-.258.437v4.168a.5.5 0 0 0 .257.437l3.793 2.107a.5.5 0 0 0 .466.01l1.77-.885a.5.5 0 0 0 .02-.884l-3.195-1.775a.5.5 0 0 1-.257-.437v-.865a.5.5 0 0 1 .222-.416l.927-.618a.5.5 0 0 1 .555 0l.927.618a.5.5 0 0 1 .222.416v.35z" fill="#fff"/><path fill-rule="evenodd" clip-rule="evenodd" d="M30.159 20.883a.5.5 0 0 1 .757-.429l1.378.827a.5.5 0 0 1 .243.429v10.854a.5.5 0 0 1-.235.424l-3.32 2.075a.5.5 0 0 1-.508.013l-3.766-2.092a.5.5 0 0 1-.257-.437V28.38a.5.5 0 0 1 .257-.438l3.831-2.128a.5.5 0 0 1 .401-.037l.56.187a.5.5 0 0 0 .659-.475v-4.606zm-1.15 7.863a.5.5 0 0 0-.555 0l-.927.618a.5.5 0 0 0-.222.416v1.274a.5.5 0 0 0 .342.475l.853.284a.5.5 0 0 0 .435-.058l1-.668a.5.5 0 0 0 .224-.416v-.891a.5.5 0 0 0-.223-.416l-.927-.618z" fill="#fff"/><path d="M13.988 28.38a.5.5 0 0 1 .257-.437l3.78-2.1a.5.5 0 0 1 .486 0l3.78 2.1a.5.5 0 0 1 .258.437v4.168a.5.5 0 0 1-.257.436l-3.78 2.1a.5.5 0 0 1-.486 0l-3.781-2.1a.5.5 0 0 1-.257-.437V28.38z" fill="url(#a)"/><path d="M37.768 29.86a.5.5 0 0 1 .258-.438l.45-.25a.5.5 0 0 1 .486 0l.451.25a.5.5 0 0 1 .258.437v.469a.5.5 0 0 1-.258.437l-.45.25a.5.5 0 0 1-.486 0l-.451-.25a.5.5 0 0 1-.258-.437v-.469z" fill="url(#b)"/><path d="M4 33.334a.5.5 0 0 0 .777.416l1.854-1.236a.5.5 0 0 0 .223-.416V29.78a.5.5 0 0 1 .222-.416l.927-.618a.5.5 0 0 1 .555 0l.927.618a.5.5 0 0 1 .222.416v2.346a.5.5 0 0 0 .188.39l1.378 1.103a.5.5 0 0 0 .812-.39v-5.342a.5.5 0 0 0-.235-.424l-3.32-2.075a.5.5 0 0 0-.507-.013l-3.766 2.092a.5.5 0 0 0-.257.437v5.43z" fill="#fff"/><defs><linearGradient id="a" x1="19.695" y1="26.183" x2="16.366" y2="34.269" gradientUnits="userSpaceOnUse"><stop stop-color="#41873F"/><stop offset="1" stop-color="#409F32"/></linearGradient><linearGradient id="b" x1="38.719" y1="29.037" x2="38.719" y2="31.15" gradientUnits="userSpaceOnUse"><stop stop-color="#41883F"/><stop offset="1" stop-color="#3FA82E"/></linearGradient></defs></svg>