<svg width="59" height="68" viewBox="0 0 59 68" fill="none" xmlns="http://www.w3.org/2000/svg">
<path d="M29.4996 2L1.56543 18.4925V50.8433L29.4996 66.7015L57.4339 50.8433V18.4925L29.4996 2Z" fill="#333333" stroke="#419A35" stroke-width="2"/>
<path d="M51.2712 37.9056C51.2712 38.2772 51.6622 38.5189 51.9947 38.3528L54.6181 37.0423C54.7875 36.9576 54.8946 36.7844 54.8946 36.595V34.7849C54.8946 34.6032 54.7961 34.4359 54.6373 34.3477L49.7022 31.6083C49.5512 31.5246 49.3678 31.5246 49.2168 31.6083L44.2818 34.3477C44.1229 34.4359 44.0244 34.6032 44.0244 34.7849V40.2301C44.0244 40.4117 44.1229 40.5791 44.2818 40.6673L49.2291 43.4135C49.3733 43.4935 49.5477 43.4973 49.6952 43.4236L52.2342 42.1552C52.594 41.9754 52.6051 41.466 52.2534 41.2707L47.9051 38.8571C47.7463 38.7689 47.6478 38.6016 47.6478 38.4199V37.1718C47.6478 37.0046 47.7314 36.8484 47.8706 36.7557L49.1823 35.882C49.3502 35.7701 49.5688 35.7701 49.7367 35.882L51.0484 36.7557C51.1876 36.8484 51.2712 37.0046 51.2712 37.1718V37.9056Z" fill="white"/>
<path fill-rule="evenodd" clip-rule="evenodd" d="M38.5896 25.7186C38.5896 25.3301 39.0134 25.09 39.3467 25.2898L41.3661 26.5005C41.5168 26.5908 41.6091 26.7536 41.6091 26.9293V40.8501C41.6091 41.0226 41.5202 41.1828 41.3739 41.2742L37.0278 43.9882C36.8736 44.0845 36.6792 44.0895 36.5203 44.0013L31.6001 41.2702C31.4413 41.182 31.3428 41.0147 31.3428 40.833V35.3878C31.3428 35.2062 31.4413 35.0388 31.6001 34.9506L36.5857 32.1832C36.7082 32.1153 36.8535 32.1018 36.9864 32.146L37.9316 32.4608C38.2553 32.5686 38.5896 32.3276 38.5896 31.9864V25.7186ZM37.0551 35.8815C36.8872 35.7697 36.6686 35.7697 36.5007 35.8815L35.189 36.7552C35.0498 36.8479 34.9662 37.0041 34.9662 37.1714V38.9567C34.9662 39.172 35.1039 39.3631 35.3082 39.4311L36.546 39.8434C36.6923 39.8921 36.8529 39.8706 36.9812 39.7851L38.3668 38.8622C38.5059 38.7695 38.5896 38.6133 38.5896 38.4461V37.1714C38.5896 37.0041 38.5059 36.8479 38.3668 36.7552L37.0551 35.8815Z" fill="white"/>
<path d="M18.0566 35.3874C18.0566 35.2058 18.1552 35.0384 18.314 34.9503L23.2491 32.2109C23.4 32.1271 23.5835 32.1271 23.7344 32.2109L28.6695 34.9503C28.8283 35.0384 28.9268 35.2058 28.9268 35.3874V40.8326C28.9268 41.0143 28.8283 41.1816 28.6695 41.2698L23.7344 44.0092C23.5835 44.093 23.4 44.093 23.2491 44.0092L18.314 41.2698C18.1552 41.1816 18.0566 41.0143 18.0566 40.8326V35.3874Z" fill="url(#paint0_linear_503_634)"/>
<path d="M48.252 37.2646C48.252 37.0829 48.3505 36.9155 48.5093 36.8274L49.2171 36.4345C49.368 36.3507 49.5515 36.3507 49.7024 36.4345L50.4102 36.8274C50.569 36.9155 50.6675 37.0829 50.6675 37.2646V38.0168C50.6675 38.1984 50.569 38.3658 50.4102 38.4539L49.7024 38.8468C49.5515 38.9306 49.368 38.9306 49.2171 38.8468L48.5093 38.4539C48.3505 38.3658 48.252 38.1984 48.252 38.0168V37.2646Z" fill="url(#paint1_linear_503_634)"/>
<path d="M5.375 42.0041C5.375 42.4034 5.8199 42.6416 6.15219 42.4203L8.77558 40.6728C8.91478 40.5801 8.9984 40.4239 8.9984 40.2567V37.1718C8.9984 37.0046 9.08202 36.8484 9.22121 36.7557L10.5329 35.882C10.7008 35.7701 10.9194 35.7701 11.0873 35.882L12.399 36.7557C12.5382 36.8484 12.6218 37.0046 12.6218 37.1718V40.284C12.6218 40.4359 12.6909 40.5797 12.8096 40.6745L14.8291 42.2888C15.1565 42.5505 15.6413 42.3174 15.6413 41.8982V34.7678C15.6413 34.5953 15.5524 34.4351 15.4061 34.3437L11.06 31.6297C10.9058 31.5334 10.7115 31.5284 10.5525 31.6166L5.63234 34.3477C5.47352 34.4359 5.375 34.6032 5.375 34.7849V42.0041Z" fill="white"/>
<defs>
<linearGradient id="paint0_linear_503_634" x1="25.3034" y1="32.6796" x2="21.0823" y2="42.9396" gradientUnits="userSpaceOnUse">
<stop stop-color="#41873F"/>
<stop offset="1" stop-color="#409F32"/>
</linearGradient>
<linearGradient id="paint1_linear_503_634" x1="49.4598" y1="36.2998" x2="49.4598" y2="38.9815" gradientUnits="userSpaceOnUse">
<stop stop-color="#41883F"/>
<stop offset="1" stop-color="#3FA82E"/>
</linearGradient>
</defs>
</svg>
