<svg width="59" height="68" viewBox="0 0 59 68" fill="none" xmlns="http://www.w3.org/2000/svg">
<path d="M29.4996 2L1.56543 18.4925V50.8433L29.4996 66.7015L57.4339 50.8433V18.4925L29.4996 2Z" fill="url(#paint0_linear_503_948)" stroke="#336791" stroke-width="2"/>
<g clip-path="url(#clip0_503_948)">
<path d="M49.6574 38.4874C49.4138 37.7501 48.7756 37.2367 47.9503 37.1134C47.5611 37.0554 47.1154 37.0801 46.588 37.1888C45.6687 37.3783 44.9867 37.4504 44.489 37.4644C46.3677 34.2951 47.8953 30.681 48.7748 27.279C50.1969 21.7779 49.437 19.2718 48.5489 18.1383C46.1988 15.1379 42.7701 13.5261 38.6336 13.4768C36.4269 13.4498 34.4898 13.8851 33.4792 14.1982C32.5384 14.0323 31.5267 13.9397 30.4652 13.9226C28.4754 13.8908 26.7172 14.3242 25.215 15.215C24.3833 14.934 23.0485 14.5379 21.507 14.2851C17.8816 13.6904 14.9596 14.1538 12.8224 15.6624C10.2343 17.4889 9.03457 20.6625 9.25646 25.0948C9.32693 26.5021 10.1148 30.7838 11.3553 34.8444C12.0683 37.1785 12.8285 39.1166 13.615 40.6057C14.7303 42.7173 15.9237 43.9607 17.2634 44.4073C18.0143 44.6572 19.3786 44.8323 20.8136 43.6381C20.9955 43.8583 21.2382 44.0769 21.5602 44.2801C21.9692 44.5378 22.4693 44.7484 22.9688 44.8732C24.7688 45.3228 26.4549 45.2103 27.8933 44.5801C27.9022 44.8358 27.9091 45.08 27.9148 45.2909C27.9243 45.6329 27.9338 45.9683 27.9464 46.282C28.0316 48.4029 28.176 50.052 28.6039 51.2058C28.6274 51.2693 28.659 51.366 28.6923 51.4686C28.9058 52.1216 29.2628 53.2149 30.1709 54.0711C31.1113 54.958 32.2489 55.23 33.2907 55.23C33.8132 55.23 34.3117 55.1615 34.749 55.0679C36.3076 54.7341 38.0777 54.2257 39.3583 52.4039C40.569 50.6817 41.1575 48.0878 41.264 44.0007C41.2778 43.8851 41.2905 43.7747 41.3027 43.6695L41.3281 43.4535L41.6133 43.4786L41.6868 43.4835C43.2743 43.5558 45.2154 43.2195 46.4075 42.6662C47.3495 42.2295 50.3682 40.6371 49.6574 38.4874Z" fill="black"/>
<path d="M46.9429 38.9054C42.2226 39.8783 41.8981 38.2815 41.8981 38.2815C46.8818 30.8927 48.9653 21.5137 47.1675 19.2182C42.2625 12.9566 33.7719 15.9179 33.6302 15.9947L33.5846 16.0029C32.652 15.8095 31.6084 15.6943 30.4353 15.6751C28.2997 15.6403 26.6795 16.2346 25.45 17.1661C25.45 17.1661 10.3037 10.9316 11.0082 25.0071C11.158 28.0014 15.3037 47.6642 20.2484 41.7251C22.0557 39.5533 23.8021 37.7171 23.8021 37.7171C24.6693 38.2928 25.7076 38.5864 26.7961 38.481L26.8807 38.4093C26.8544 38.6789 26.8664 38.9426 26.9145 39.2549C25.6407 40.6769 26.0151 40.9265 23.4686 41.4503C20.8918 41.9809 22.4055 42.9254 23.3939 43.1725C24.592 43.4717 27.3639 43.8958 29.2367 41.2762L29.1621 41.5751C29.6611 41.9746 30.0116 44.1731 29.9528 46.1664C29.8941 48.1594 29.8549 49.5278 30.2481 50.5967C30.6415 51.6655 31.0334 54.0704 34.3811 53.3538C37.1781 52.7548 38.6277 51.2028 38.8294 48.6137C38.9724 46.7732 39.2964 47.0454 39.3167 45.3998L39.5765 44.6208C39.876 42.1258 39.6241 41.3209 41.3473 41.6953L41.7663 41.7321C43.0345 41.7896 44.6947 41.5281 45.669 41.0757C47.7669 40.103 49.0113 38.4786 46.9426 38.9054H46.9429Z" fill="#336791"/>
<path d="M26.3371 26.346C25.9117 26.2868 25.5265 26.3415 25.3316 26.489C25.2221 26.572 25.1882 26.6681 25.1789 26.7342C25.1545 26.9094 25.2773 27.1032 25.3529 27.2031C25.5665 27.486 25.8786 27.6804 26.1874 27.7233C26.2322 27.7296 26.2768 27.7325 26.3211 27.7325C26.8361 27.7325 27.3045 27.3317 27.3458 27.036C27.3973 26.6655 26.8591 26.4184 26.3371 26.346ZM40.4286 26.3577C40.388 26.0673 39.8709 25.9846 39.3802 26.0528C38.89 26.121 38.4148 26.342 38.4545 26.633C38.4863 26.8593 38.8953 27.2456 39.3794 27.2456C39.4203 27.2456 39.4616 27.2429 39.5032 27.237C39.8263 27.1923 40.0634 26.9873 40.1761 26.8691C40.3475 26.689 40.4469 26.4882 40.4286 26.3577Z" fill="white"/>
<path d="M48.5137 38.7947C48.3337 38.251 47.7544 38.076 46.7919 38.2746C43.9342 38.8639 42.9108 38.4557 42.5748 38.2085C44.7961 34.8275 46.6234 30.7405 47.6092 26.9274C48.0761 25.1212 48.334 23.4437 48.3551 22.0764C48.3785 20.5757 48.1226 19.4729 47.595 18.7993C45.4679 16.0836 42.3459 14.6268 38.5669 14.5869C35.9688 14.5577 33.7738 15.222 33.3483 15.4088C32.4521 15.1862 31.4752 15.0495 30.4117 15.032C28.4614 15.0005 26.7755 15.467 25.3797 16.418C24.7734 16.1925 23.2066 15.6551 21.2904 15.3466C17.9776 14.8138 15.3451 15.2176 13.4666 16.5473C11.225 18.134 10.1902 20.9704 10.3906 24.9775C10.4581 26.3256 11.2269 30.4728 12.4401 34.4445C14.0371 39.672 15.7732 42.6313 17.5997 43.2401C17.8135 43.3113 18.06 43.3611 18.3319 43.3611C18.9982 43.3611 19.8151 43.0611 20.665 42.0401C21.7017 40.7976 22.7741 39.5852 23.8808 38.4045C24.5988 38.7895 25.3876 39.0045 26.1944 39.0261C26.196 39.0472 26.1981 39.0683 26.2 39.0892C26.0611 39.2547 25.9251 39.4226 25.7921 39.5927C25.2331 40.3017 25.1167 40.4494 23.3173 40.8195C22.8055 40.9251 21.4461 41.205 21.4261 42.1572C21.4045 43.1975 23.0331 43.6344 23.2186 43.6807C23.8652 43.8424 24.4882 43.9222 25.0823 43.9222C26.5271 43.9222 27.7986 43.4477 28.8147 42.5297C28.7834 46.2383 28.9381 49.8926 29.3838 51.006C29.7489 51.9176 30.6405 54.1452 33.4571 54.145C33.8704 54.145 34.3253 54.097 34.8258 53.9898C37.7654 53.3602 39.0419 52.062 39.5357 49.2001C39.8 47.6706 40.2534 44.0183 40.4667 42.0592C40.9168 42.1995 41.4963 42.2637 42.1228 42.2636C43.4293 42.2636 44.937 41.9862 45.8825 41.5477C46.9446 41.0549 48.8613 39.8455 48.5137 38.7947ZM41.5133 25.5563C41.5036 26.1347 41.4239 26.6597 41.3395 27.2078C41.2486 27.7972 41.1546 28.4067 41.131 29.1464C41.1076 29.8664 41.1976 30.6149 41.2846 31.3388C41.4605 32.801 41.6409 34.3062 40.9424 35.7915C40.8264 35.5861 40.723 35.3738 40.6329 35.1558C40.5461 34.9455 40.3575 34.6077 40.0964 34.1402C39.0808 32.3203 36.7024 28.0586 37.92 26.3196C38.2826 25.802 39.203 25.2698 41.5133 25.5563ZM38.7129 15.758C42.099 15.8327 44.7775 17.0983 46.6738 19.5196C48.1283 21.3767 46.5267 29.8271 41.8901 37.1173C41.8435 37.058 41.7966 36.999 41.7495 36.9401L41.6908 36.8669C42.8889 34.8898 42.6546 32.9337 42.4461 31.1995C42.3604 30.4877 42.2794 29.8155 42.3001 29.184C42.3213 28.5148 42.4099 27.9407 42.4956 27.3857C42.6008 26.7017 42.708 25.994 42.6784 25.1597C42.7005 25.0722 42.7094 24.9688 42.6978 24.846C42.6224 24.046 41.7082 21.6515 39.8449 19.4844C38.8256 18.299 37.3392 16.9724 35.3097 16.0777C36.1826 15.8969 37.3763 15.7283 38.7129 15.758ZM19.7656 41.2929C18.8291 42.4179 18.1825 42.2022 17.9698 42.1315C16.5842 41.6697 14.9764 38.7435 13.5589 34.1034C12.3324 30.0884 11.6156 26.0511 11.5588 24.919C11.3797 21.3385 12.2484 18.8432 14.1408 17.5022C17.2205 15.3202 22.2839 16.6262 24.3185 17.2886C24.2893 17.3175 24.2589 17.3445 24.23 17.3738C20.8912 20.7427 20.9704 26.4986 20.9786 26.8505C20.9783 26.9862 20.9898 27.1784 21.0053 27.4428C21.0628 28.4109 21.1697 30.2128 20.884 32.2532C20.6187 34.1494 21.2037 36.0053 22.4888 37.3451C22.6207 37.4824 22.7594 37.613 22.9042 37.7365C22.3322 38.3487 21.089 39.7023 19.7656 41.2929ZM23.3334 36.5365C22.2976 35.4566 21.8271 33.9545 22.0425 32.415C22.3441 30.2595 22.2328 28.3822 22.173 27.3737C22.1646 27.2325 22.1571 27.1088 22.1528 27.0113C22.6406 26.5792 24.9009 25.3692 26.5128 25.7382C27.2483 25.9065 27.6965 26.4069 27.8828 27.2677C28.8472 31.7244 28.0104 33.5818 27.3381 35.0746C27.1996 35.3821 27.0686 35.6727 26.9569 35.9734L26.8702 36.2059C26.6509 36.7936 26.4468 37.3401 26.3203 37.8589C25.2191 37.8558 24.1479 37.3857 23.3334 36.5364V36.5365ZM23.5024 42.5468C23.1808 42.4666 22.8917 42.3272 22.722 42.2116C22.8637 42.1449 23.1159 42.0542 23.5534 41.9642C25.6702 41.5289 25.9971 41.2215 26.711 40.3159C26.8747 40.1081 27.0602 39.8728 27.3172 39.5861L27.3175 39.5857C27.7002 39.1576 27.8752 39.2302 28.1927 39.3618C28.4499 39.4681 28.7005 39.7903 28.8021 40.1449C28.8502 40.3124 28.9042 40.6302 28.7275 40.8776C27.2362 42.9639 25.0631 42.9371 23.5024 42.5468ZM34.5807 52.847C31.9911 53.4014 31.0742 52.0812 30.4699 50.572C30.08 49.5977 29.8882 45.204 30.0243 40.3519C30.026 40.2873 30.0168 40.225 29.999 40.1663C29.9831 40.0505 29.9589 39.9359 29.9266 39.8235C29.7244 39.1175 29.2316 38.5269 28.6404 38.282C28.4055 38.1848 27.9744 38.0064 27.4564 38.1388C27.5668 37.684 27.7584 37.1704 27.9662 36.6142L28.0533 36.3803C28.1514 36.1166 28.2746 35.8434 28.4047 35.5541C29.1083 33.9924 30.0719 31.8533 29.0261 27.0208C28.6344 25.2108 27.3262 24.3268 25.3432 24.5322C24.1544 24.6551 23.0667 25.1343 22.5242 25.4091C22.4076 25.4681 22.3009 25.5252 22.2012 25.5807C22.3527 23.757 22.9247 20.3488 25.0645 18.1924C26.4118 16.8349 28.2061 16.1644 30.3923 16.2006C34.6999 16.271 37.4622 18.4797 39.0211 20.3204C40.3645 21.9064 41.0919 23.5041 41.3822 24.3658C39.1991 24.144 37.7143 24.5745 36.9616 25.6497C35.3241 27.9885 37.8574 32.5277 39.0749 34.7094C39.2982 35.1091 39.4909 35.4547 39.5516 35.6015C39.948 36.5616 40.4613 37.2026 40.8361 37.6704C40.951 37.8138 41.0624 37.9528 41.1471 38.0743C40.4859 38.2648 39.2982 38.7048 39.4065 40.9045C39.3192 42.0082 38.6985 47.1758 38.3831 49.0016C37.9668 51.4136 37.0784 52.312 34.5807 52.8472V52.847ZM45.39 40.4878C44.7138 40.8013 43.5823 41.0365 42.5075 41.087C41.3203 41.1425 40.7159 40.9542 40.5737 40.8382C40.507 39.4674 41.0176 39.3242 41.5581 39.1726C41.643 39.1489 41.7258 39.1255 41.8058 39.0976C41.8555 39.1381 41.9099 39.1782 41.9696 39.2175C42.9238 39.8468 44.6258 39.9146 47.0286 39.4191L47.0549 39.4138C46.7308 39.7166 46.1763 40.1229 45.39 40.4878Z" fill="white"/>
</g>
<defs>
<linearGradient id="paint0_linear_503_948" x1="1.56543" y1="34.9851" x2="57.4339" y2="34.9851" gradientUnits="userSpaceOnUse">
<stop stop-color="#00ACE4"/>
<stop offset="1" stop-color="#0098A9"/>
</linearGradient>
<clipPath id="clip0_503_948">
<rect width="40.6316" height="41.8657" fill="white" transform="translate(9.18359 13.418)"/>
</clipPath>
</defs>
</svg>
