<svg width="46" height="55" fill="none" xmlns="http://www.w3.org/2000/svg"><path d="M23 2 1 15v25.5L23 53l22-12.5V15L23 2z" fill="url(#a)" stroke="#336791" stroke-width="2"/><g clip-path="url(#b)"><path d="M38.876 30.76c-.192-.58-.694-.985-1.344-1.082-.307-.046-.658-.027-1.073.059a9.582 9.582 0 0 1-1.654.217c1.48-2.498 2.683-5.347 3.376-8.028 1.12-4.336.521-6.312-.178-7.205-1.85-2.365-4.551-3.636-7.809-3.675a13.835 13.835 0 0 0-4.06.569 15.107 15.107 0 0 0-2.373-.217c-1.567-.025-2.952.316-4.135 1.018a18.846 18.846 0 0 0-2.92-.732c-2.855-.47-5.157-.104-6.84 1.085-2.038 1.44-2.983 3.941-2.808 7.435.055 1.11.676 4.484 1.653 7.685.561 1.84 1.16 3.368 1.78 4.541.878 1.665 1.818 2.645 2.873 2.997.591.197 1.665.335 2.796-.606.143.173.334.346.588.506.322.203.716.369 1.109.467 1.418.355 2.745.266 3.878-.23.007.2.013.393.017.56.008.269.015.533.025.78.067 1.672.181 2.972.518 3.882.018.05.043.126.07.207.168.515.449 1.376 1.164 2.051.74.7 1.637.914 2.457.914a5.51 5.51 0 0 0 1.149-.128c1.227-.263 2.621-.664 3.63-2.1.953-1.357 1.417-3.402 1.5-6.624l.031-.26.02-.17.225.019.058.004c1.25.057 2.779-.208 3.718-.645.741-.344 3.119-1.599 2.559-3.293z" fill="#000"/><path d="M36.738 31.09c-3.717.767-3.973-.492-3.973-.492 3.925-5.824 5.566-13.217 4.15-15.026-3.863-4.936-10.55-2.601-10.661-2.54l-.036.006a13.256 13.256 0 0 0-2.48-.259c-1.683-.027-2.959.441-3.927 1.175 0 0-11.928-4.914-11.374 6.181.118 2.36 3.383 17.86 7.278 13.178a72.063 72.063 0 0 1 2.798-3.16 3.61 3.61 0 0 0 2.358.603l.067-.057c-.02.213-.011.42.027.667-1.004 1.12-.709 1.317-2.714 1.73-2.03.418-.838 1.163-.06 1.358.945.236 3.128.57 4.603-1.495l-.06.235c.394.315.67 2.048.623 3.62-.046 1.57-.077 2.65.233 3.492.31.842.619 2.738 3.255 2.173 2.203-.472 3.345-1.696 3.503-3.736.113-1.451.368-1.237.384-2.534l.205-.614c.236-1.966.037-2.6 1.394-2.306l.33.03c1 .045 2.307-.162 3.074-.518 1.652-.767 2.632-2.047 1.003-1.71z" fill="#336791"/><path d="M20.51 21.19c-.336-.046-.639-.003-.792.113a.29.29 0 0 0-.12.194c-.02.138.077.29.136.37.169.222.414.376.658.41a.75.75 0 0 0 .105.007c.405 0 .774-.316.807-.55.04-.291-.383-.486-.794-.543zm11.098.01c-.032-.229-.44-.294-.826-.24-.386.053-.76.228-.73.457.026.178.348.483.73.483a.699.699 0 0 0 .097-.007.939.939 0 0 0 .53-.29c.135-.142.213-.3.199-.403z" fill="#fff"/><path d="M37.975 31.003c-.142-.428-.598-.566-1.356-.41-2.25.465-3.056.143-3.321-.052 1.75-2.665 3.188-5.887 3.965-8.892.368-1.424.57-2.746.587-3.824.019-1.183-.183-2.052-.598-2.583-1.675-2.14-4.134-3.289-7.11-3.32-2.047-.023-3.775.5-4.11.647a10.25 10.25 0 0 0-2.313-.296c-1.536-.025-2.864.342-3.963 1.092a17.694 17.694 0 0 0-3.22-.845c-2.61-.42-4.683-.101-6.163.947-1.765 1.25-2.58 3.486-2.422 6.645.053 1.063.658 4.332 1.614 7.462 1.258 4.12 2.625 6.453 4.064 6.933.168.056.362.096.576.096.525 0 1.168-.237 1.838-1.042a66.256 66.256 0 0 1 2.532-2.866 4.08 4.08 0 0 0 1.822.49l.005.05c-.11.13-.217.263-.322.397-.44.559-.531.675-1.948.967-.404.083-1.474.304-1.49 1.055-.017.82 1.266 1.164 1.412 1.2.509.128 1 .19 1.468.19 1.137 0 2.139-.373 2.939-1.097-.025 2.923.097 5.804.448 6.681.288.719.99 2.475 3.208 2.475.326 0 .684-.038 1.078-.123 2.315-.496 3.32-1.52 3.71-3.775.208-1.206.565-4.084.733-5.629.354.11.81.161 1.304.161 1.029 0 2.216-.218 2.961-.564.837-.388 2.346-1.342 2.072-2.17zm-5.513-10.435c-.008.456-.07.87-.137 1.302-.072.464-.146.945-.164 1.528-.019.567.052 1.157.12 1.728.14 1.153.282 2.34-.269 3.51a4.57 4.57 0 0 1-.243-.501c-.069-.166-.217-.432-.423-.8-.8-1.435-2.673-4.794-1.714-6.165.286-.408 1.01-.828 2.83-.602zm-2.206-7.723c2.667.059 4.777 1.056 6.27 2.965 1.146 1.464-.116 8.124-3.767 13.87a18.829 18.829 0 0 0-.111-.139l-.046-.058c.943-1.558.759-3.1.595-4.467-.068-.56-.132-1.09-.115-1.588.016-.528.086-.98.154-1.418.083-.539.167-1.097.144-1.755a.727.727 0 0 0 .015-.247c-.06-.63-.78-2.518-2.247-4.226-.803-.934-1.973-1.98-3.572-2.685a12.043 12.043 0 0 1 2.68-.252zM15.334 32.972c-.737.887-1.246.717-1.414.661-1.091-.364-2.357-2.67-3.474-6.328-.966-3.165-1.53-6.347-1.575-7.24-.141-2.822.543-4.788 2.033-5.845 2.426-1.72 6.414-.69 8.016-.169l-.07.067c-2.63 2.656-2.567 7.193-2.56 7.47 0 .107.008.259.02.467.046.763.13 2.183-.095 3.792-.209 1.494.252 2.957 1.264 4.013.104.109.213.212.327.309a67.64 67.64 0 0 0-2.472 2.803zm2.81-3.749c-.816-.851-1.186-2.035-1.016-3.249.237-1.699.15-3.178.102-3.973l-.016-.286c.385-.34 2.165-1.294 3.434-1.003.58.132.932.527 1.08 1.205.759 3.513.1 4.977-.43 6.154-.109.242-.212.471-.3.708l-.068.183c-.173.464-.334.895-.433 1.303-.868-.002-1.711-.373-2.353-1.042zm.133 4.738a2.036 2.036 0 0 1-.614-.265c.111-.052.31-.124.654-.195 1.668-.343 1.925-.585 2.487-1.299.13-.164.275-.35.478-.575.301-.338.44-.28.69-.177.202.084.4.338.48.617.037.132.08.383-.06.578-1.174 1.644-2.886 1.623-4.115 1.316zm8.725 8.119c-2.04.437-2.761-.604-3.237-1.794-.308-.768-.459-4.23-.351-8.056a.46.46 0 0 0-.02-.146 1.915 1.915 0 0 0-.057-.27c-.16-.556-.548-1.022-1.013-1.215-.185-.077-.525-.217-.933-.113.087-.358.238-.763.402-1.202l.068-.184c.078-.208.175-.423.277-.651.554-1.231 1.313-2.917.49-6.727-.309-1.426-1.34-2.123-2.901-1.961-.936.097-1.793.474-2.22.691a7.074 7.074 0 0 0-.255.135c.12-1.437.57-4.124 2.256-5.823 1.06-1.07 2.474-1.599 4.195-1.57 3.393.055 5.569 1.796 6.796 3.247 1.058 1.25 1.631 2.51 1.86 3.189-1.72-.175-2.889.164-3.482 1.012-1.29 1.843.706 5.421 1.665 7.14.175.316.327.588.375.704.312.757.716 1.262 1.012 1.63.09.114.178.224.245.32-.521.15-1.456.496-1.371 2.23-.069.87-.558 4.943-.806 6.383-.328 1.9-1.028 2.609-2.995 3.03zm8.513-9.742c-.532.247-1.423.432-2.27.472-.935.044-1.411-.105-1.523-.196-.053-1.08.35-1.193.775-1.313.067-.019.132-.037.195-.06.04.033.082.064.13.095.75.496 2.091.55 3.984.16l.02-.005c-.255.239-.692.559-1.31.847z" fill="#fff"/></g><defs><linearGradient id="a" x1="1" y1="28" x2="45" y2="28" gradientUnits="userSpaceOnUse"><stop stop-color="#00ACE4"/><stop offset="1" stop-color="#0098A9"/></linearGradient><clipPath id="b"><path fill="#fff" transform="translate(7 11)" d="M0 0h32v33H0z"/></clipPath></defs></svg>