<svg width="46" height="55" fill="none" xmlns="http://www.w3.org/2000/svg"><path d="M23 2 1 15v25.5L23 53l22-12.5V15L23 2z" fill="#222" stroke="#01D9FE" stroke-width="2"/><path d="M23 31.296a3.296 3.296 0 1 0 0-6.591 3.296 3.296 0 0 0 0 6.59z" fill="#00D8FF"/><path d="M37.452 19.655c-1.064-1.84-3.618-2.597-7.195-2.135-.454.059-.92.14-1.394.236C27.513 13.928 25.41 11.5 23 11.5c-2.414 0-4.52 2.437-5.87 6.275-4.107-.814-7.36-.235-8.582 1.88-1.22 2.11-.106 5.204 2.635 8.345-2.74 3.14-3.854 6.234-2.635 8.345.872 1.51 2.775 2.243 5.286 2.243a17.212 17.212 0 0 0 3.296-.364C18.48 42.063 20.586 44.5 23 44.5c2.41 0 4.513-2.428 5.863-6.256.474.096.94.177 1.394.236.645.086 1.295.13 1.946.132 2.557 0 4.39-.78 5.249-2.267 1.218-2.11.105-5.204-2.635-8.345 2.74-3.14 3.853-6.234 2.635-8.345zm-6.974-.446a13.622 13.622 0 0 1 1.74-.12c1.89 0 3.224.492 3.76 1.419.756 1.31-.1 3.662-2.328 6.252a30.76 30.76 0 0 0-3.452-2.93 29.951 29.951 0 0 0-.82-4.404c.365-.07.747-.17 1.1-.217zm-4.609 13.762c-.97.56-1.926 1.055-2.86 1.49a36.821 36.821 0 0 1-2.879-1.49 36.704 36.704 0 0 1-2.73-1.74 35.753 35.753 0 0 1 0-6.463 36.704 36.704 0 0 1 2.73-1.739c.953-.55 1.91-1.04 2.866-1.484.94.437 1.897.92 2.873 1.484a36.654 36.654 0 0 1 2.73 1.74 35.74 35.74 0 0 1 0 6.462 36.675 36.675 0 0 1-2.73 1.74zm2.442.502a26.825 26.825 0 0 1-.587 2.736 27.7 27.7 0 0 1-2.64-.873c.544-.281 1.09-.575 1.638-.892.546-.315 1.075-.64 1.59-.97zm-7.386 1.866c-.868.335-1.752.626-2.649.872a26.79 26.79 0 0 1-.587-2.738c.515.33 1.043.656 1.59.972.546.315 1.096.61 1.646.894zm-5.314-5.463A27.568 27.568 0 0 1 13.513 28a27.59 27.59 0 0 1 2.098-1.876A38.49 38.49 0 0 0 15.563 28c0 .636.018 1.26.048 1.875zm2.078-7.349c.148-.92.343-1.833.586-2.733.9.243 1.785.532 2.655.865-.552.284-1.103.58-1.651.896a39.26 39.26 0 0 0-1.59.972zm7.396-1.863a27.747 27.747 0 0 1 2.64-.873c.242.9.438 1.814.586 2.736a39.105 39.105 0 0 0-1.589-.972 39.228 39.228 0 0 0-1.637-.89zm5.304 5.461A27.61 27.61 0 0 1 32.486 28a27.57 27.57 0 0 1-2.097 1.875c.03-.615.048-1.239.048-1.875 0-.636-.018-1.26-.048-1.875zM23 13.193c1.497 0 3.084 1.851 4.211 4.966a31.2 31.2 0 0 0-4.214 1.517 30.776 30.776 0 0 0-4.211-1.509c1.127-3.12 2.716-4.974 4.214-4.974zm-12.978 7.315c.527-.912 1.877-1.402 3.78-1.402.95.014 1.895.115 2.826.303a29.954 29.954 0 0 0-.826 4.422 30.746 30.746 0 0 0-3.452 2.93c-2.229-2.59-3.085-4.943-2.328-6.253zm0 14.984c-.757-1.31.1-3.662 2.328-6.252a30.755 30.755 0 0 0 3.452 2.93c.164 1.495.441 2.976.828 4.43-3.371.643-5.848.209-6.608-1.108zM23 42.807c-1.498 0-3.088-1.855-4.215-4.976 1.44-.398 2.85-.9 4.217-1.504a31.192 31.192 0 0 0 4.21 1.514c-1.128 3.115-2.715 4.966-4.212 4.966zm12.978-7.315c-.69 1.19-2.69 1.664-5.5 1.299-.353-.046-.735-.147-1.1-.217a29.95 29.95 0 0 0 .82-4.404 30.76 30.76 0 0 0 3.452-2.93c2.228 2.59 3.084 4.942 2.328 6.252z" fill="#00D8FF"/></svg>