<svg width="59" height="68" viewBox="0 0 59 68" fill="none" xmlns="http://www.w3.org/2000/svg">
<path d="M29.4996 2L1.56543 18.4925V50.8433L29.4996 66.7015L57.4339 50.8433V18.4925L29.4996 2Z" fill="#222222" stroke="#01D9FE" stroke-width="2"/>
<path d="M29.4998 39.1664C31.8108 39.1664 33.6843 37.2946 33.6843 34.9855C33.6843 32.6765 31.8108 30.8047 29.4998 30.8047C27.1889 30.8047 25.3154 32.6765 25.3154 34.9855C25.3154 37.2946 27.1889 39.1664 29.4998 39.1664Z" fill="#00D8FF"/>
<path d="M47.8494 24.3987C46.4989 22.0633 43.2564 21.1038 38.7144 21.6897C38.1381 21.7648 37.5459 21.8682 36.9445 21.9898C35.2298 17.1337 32.5596 14.0527 29.4997 14.0527C26.435 14.0527 23.7613 17.144 22.047 22.0137C16.8314 20.981 12.7019 21.7155 11.1491 24.3987C9.60143 27.0763 11.0149 31.0012 14.4951 34.9856C11.0149 38.9699 9.60143 42.8948 11.149 45.5724C12.2564 47.4893 14.6725 48.4182 17.8618 48.4182C19.2683 48.3989 20.6696 48.244 22.0463 47.9557C23.7606 52.8264 26.4346 55.9184 29.4997 55.9184C32.5596 55.9184 35.2298 52.8375 36.9445 47.9813C37.5458 48.1029 38.1381 48.2064 38.7144 48.2814C39.5334 48.3897 40.3585 48.4457 41.1846 48.4489C44.4312 48.4489 46.7584 47.4588 47.8495 45.5725C49.397 42.895 47.9838 38.97 44.5042 34.9856C47.9838 31.0012 49.3971 27.0763 47.8494 24.3987ZM38.9943 23.8332C39.7265 23.7351 40.4643 23.684 41.203 23.6801C43.6037 23.6801 45.2975 24.3048 45.9778 25.4807C46.9383 27.1426 45.8513 30.1266 43.0221 33.4119C41.6544 32.0673 40.1894 30.8252 38.6389 29.6957C38.4316 27.8099 38.0833 25.9422 37.5969 24.1083C38.0616 24.0195 38.5471 23.8914 38.9943 23.8332ZM33.1427 41.2915C31.9114 42.002 30.697 42.6302 29.5107 43.1822C28.293 42.6159 27.0705 41.9922 25.8558 41.2915C24.6199 40.5787 23.465 39.8391 22.3902 39.0857C22.2715 37.78 22.2056 36.412 22.2056 34.9856C22.2056 33.5592 22.2715 32.1911 22.3902 30.8855C23.465 30.1321 24.6199 29.3924 25.8558 28.6796C27.0649 27.9822 28.2819 27.3602 29.494 26.796C30.6876 27.3504 31.9036 27.9646 33.1427 28.6796C34.379 29.3927 35.5344 30.1324 36.6095 30.8863C36.728 32.1917 36.7939 33.5595 36.7939 34.9856C36.7939 36.4116 36.728 37.7794 36.6095 39.0849C35.5343 39.8387 34.3789 40.5784 33.1427 41.2915ZM36.2434 41.9292C36.0556 43.0985 35.8068 44.2571 35.498 45.4004C34.3627 45.0872 33.2438 44.7172 32.1457 44.2918C32.8369 43.9357 33.5306 43.5623 34.2255 43.1614C34.9196 42.7612 35.59 42.3488 36.2434 41.9292ZM26.865 44.296C25.7634 44.7212 24.641 45.0905 23.5021 45.4025C23.1929 44.2583 22.9439 43.0988 22.7559 41.9286C23.4097 42.3484 24.0804 42.7609 24.7748 43.1615C25.4687 43.5619 26.1663 43.9362 26.865 44.296ZM20.1181 37.365C19.1901 36.6177 18.3009 35.8235 17.454 34.9856C18.3009 34.1476 19.1901 33.3534 20.1181 32.606C20.0799 33.3869 20.0562 34.1786 20.0562 34.9856C20.0562 35.7926 20.0799 36.5843 20.1181 37.365ZM22.756 28.0425C22.9437 26.8745 23.1923 25.717 23.5007 24.5748C24.642 24.8831 25.7668 25.2494 26.8707 25.6724C26.1702 26.033 25.4708 26.4081 24.775 26.8096C24.0805 27.2103 23.4098 27.6228 22.756 28.0425ZM32.1468 25.679C33.2446 25.2539 34.3632 24.884 35.4981 24.5708C35.8069 25.7141 36.0557 26.8727 36.2435 28.042C35.59 27.6225 34.9196 27.2101 34.2256 26.8097C33.531 26.409 32.8378 26.035 32.1468 25.679ZM38.8813 32.6068C39.8089 33.354 40.6978 34.1479 41.5444 34.9856C40.6978 35.8232 39.8089 36.6172 38.8813 37.3643C38.9194 36.5838 38.9432 35.7924 38.9432 34.9856C38.9432 34.1787 38.9195 33.3873 38.8813 32.6068ZM29.4997 16.2003C31.4 16.2003 33.4158 18.5492 34.8468 22.5C33.0193 23.0127 31.2311 23.6559 29.496 24.4247C27.7624 23.6581 25.9753 23.0186 24.1488 22.5111C25.5802 18.5534 27.5982 16.2003 29.4997 16.2003ZM13.0205 25.4807C13.6897 24.3232 15.4049 23.7026 17.821 23.7026C19.0261 23.7196 20.2271 23.8479 21.4085 24.086C20.9189 25.9272 20.5685 27.8025 20.3604 29.6962C18.8097 30.8256 17.3444 32.0677 15.9766 33.4125C13.147 30.1271 12.06 27.1428 13.0205 25.4807ZM13.0205 44.4905C12.06 42.8284 13.147 39.844 15.9766 36.5586C17.3445 37.9033 18.8097 39.1455 20.3604 40.2749C20.5687 42.1722 20.9201 44.051 21.4113 45.8955C17.1308 46.7118 13.9861 46.1608 13.0205 44.4905ZM29.4997 53.7708C27.5976 53.7708 25.5791 51.4167 24.1476 47.4572C25.9767 46.9524 27.7664 46.3148 29.5025 45.5493C31.2356 46.3168 33.0217 46.959 34.8468 47.471C33.4158 51.4218 31.4 53.7708 29.4997 53.7708ZM45.9778 44.4905C45.1034 45.9991 42.5637 46.6013 38.9943 46.1379C38.5471 46.0797 38.0616 45.9516 37.5969 45.8628C38.0833 44.0289 38.4316 42.1612 38.6389 40.2753C40.1894 39.1459 41.6544 37.9039 43.0222 36.5593C45.8513 39.8446 46.9382 42.8285 45.9778 44.4905Z" fill="#00D8FF"/>
</svg>
