<svg width="46" height="55" fill="none" xmlns="http://www.w3.org/2000/svg"><path d="M23 2 1 15v25.5L23 53l22-12.5V15L23 2z" fill="#764ABC" stroke="#673AB7" stroke-width="2"/><path d="M28.792 32.855c1.088-.094 1.929-1.05 1.875-2.193-.059-1.142-.995-2.06-2.136-2.06h-.076a2.137 2.137 0 0 0-2.06 2.212c.037.598.282 1.086.617 1.44-1.31 2.548-3.276 4.42-6.256 5.994-2.004 1.048-4.12 1.443-6.18 1.163-1.722-.244-3.07-1.013-3.895-2.249-1.235-1.874-1.347-3.895-.319-5.917.75-1.463 1.874-2.529 2.624-3.054a12.439 12.439 0 0 1-.525-1.929c-5.546 3.973-4.981 9.403-3.296 11.969 1.255 1.872 3.821 3.07 6.63 3.07.75 0 1.537-.055 2.304-.243 4.87-.936 8.56-3.857 10.676-8.165l.017-.038zm6.685-4.683c-2.9-3.41-7.172-5.282-12.042-5.282h-.638c-.316-.693-1.046-1.124-1.872-1.124h-.056c-1.18 0-2.098 1.013-2.06 2.191a2.158 2.158 0 0 0 2.136 2.06h.092a2.113 2.113 0 0 0 1.874-1.31h.694c2.886 0 5.618.842 8.11 2.489 1.908 1.256 3.277 2.904 4.046 4.871.672 1.61.636 3.184-.056 4.496-1.07 2.06-2.868 3.147-5.245 3.147-1.5 0-2.96-.47-3.71-.805-.45.372-1.199.99-1.741 1.366 1.647.747 3.314 1.178 4.924 1.178 3.653 0 6.368-2.058 7.399-4.044 1.123-2.248 1.03-6.03-1.837-9.27l-.018.037zm-19.365 5.355a2.156 2.156 0 0 0 2.135 2.06h.075a2.109 2.109 0 0 0 2.06-2.21c0-1.125-.973-2.059-2.116-2.059h-.075c-.075 0-.187 0-.282.037-1.554-2.623-2.21-5.434-1.965-8.465.15-2.285.9-4.271 2.246-5.919 1.125-1.405 3.241-2.1 4.683-2.135 4.045-.076 5.732 4.964 5.862 6.968l1.872.562C30.176 16.221 26.357 13 22.705 13c-3.43 0-6.593 2.491-7.868 6.144-1.74 4.868-.598 9.552 1.538 13.298-.188.244-.3.674-.263 1.085z" fill="url(#a)"/><defs><linearGradient id="a" x1="14.25" y1="23.833" x2="36.75" y2="23.833" gradientUnits="userSpaceOnUse"><stop stop-color="#EDEDED"/><stop offset="1" stop-color="#fff"/></linearGradient></defs></svg>