<svg width="59" height="68" viewBox="0 0 59 68" fill="none" xmlns="http://www.w3.org/2000/svg">
<path d="M29.4996 2L1.56543 18.4925V50.8433L29.4996 66.7015L57.4339 50.8433V18.4925L29.4996 2Z" fill="#764ABC" stroke="#673AB7" stroke-width="2"/>
<path d="M36.8537 41.1439C38.2345 41.0249 39.3027 39.8118 39.2344 38.3624C39.1598 36.913 37.971 35.749 36.522 35.749H36.4252C35.7061 35.7746 35.0266 36.0845 34.5361 36.6106C34.0456 37.1366 33.7843 37.8357 33.8095 38.5543C33.8572 39.3139 34.1682 39.9323 34.5936 40.3827C32.9303 43.6145 30.4337 45.99 26.6499 47.9866C24.1057 49.3155 21.4187 49.8166 18.8031 49.4614C16.616 49.1521 14.905 48.1769 13.8575 46.6085C12.2894 44.2314 12.1466 41.6672 13.4528 39.1014C14.4051 37.246 15.8319 35.8933 16.7842 35.2273C16.4967 34.4308 16.2738 33.6125 16.1176 32.7804C9.07546 37.82 9.79285 44.7087 11.9323 47.9644C13.5258 50.3399 16.7842 51.8591 20.3505 51.8591C21.3028 51.8591 22.3027 51.7893 23.2757 51.5514C29.4608 50.3637 34.1444 46.6577 36.8315 41.193L36.8537 41.1439ZM45.3417 35.2035C41.6596 30.8774 36.2347 28.5019 30.0512 28.5019H29.2417C28.8402 27.6234 27.9133 27.0763 26.8642 27.0763H26.7928C25.2961 27.0763 24.1295 28.3608 24.1787 29.8562C24.2264 31.2802 25.4389 32.4696 26.8896 32.4696H27.007C27.5216 32.4497 28.0195 32.2823 28.4414 31.9873C28.8633 31.6923 29.1912 31.2822 29.3862 30.8061H30.267C33.9318 30.8061 37.4013 31.8749 40.5644 33.965C42.988 35.5587 44.7259 37.6488 45.702 40.1448C46.5559 42.1873 46.5099 44.1838 45.6306 45.8489C44.2736 48.4607 41.9897 49.8404 38.9709 49.8404C37.068 49.8404 35.2142 49.2457 34.2619 48.8191C33.6905 49.2917 32.7382 50.0766 32.0494 50.5524C34.1413 51.5007 36.2585 52.0478 38.3028 52.0478C42.9404 52.0478 46.3877 49.436 47.6971 46.9162C49.1223 44.0649 49.0049 39.2663 45.364 35.1559L45.3417 35.2035ZM20.7537 41.997C20.8013 43.4226 22.0123 44.6104 23.4645 44.6104H23.5598C23.9171 44.6023 24.2693 44.5229 24.5955 44.3768C24.9217 44.2306 25.2153 44.0207 25.4591 43.7594C25.7028 43.4982 25.8918 43.1908 26.0148 42.8554C26.1378 42.5201 26.1924 42.1635 26.1754 41.8067C26.1754 40.3795 24.939 39.1949 23.4883 39.1949H23.3931C23.2979 39.1949 23.155 39.1949 23.0344 39.2409C21.0616 35.9139 20.2283 32.3474 20.5394 28.5019C20.7299 25.6031 21.6822 23.0832 23.3915 20.9932C24.8199 19.2107 27.507 18.329 29.3386 18.2846C34.4746 18.1879 36.6156 24.5818 36.7807 27.1238L39.1582 27.8374C38.6107 20.0417 33.7619 15.9551 29.1243 15.9551C24.7692 15.9551 20.7537 19.1156 19.1348 23.7493C16.9239 29.9259 18.3745 35.8679 21.087 40.6205C20.8489 40.9298 20.7061 41.4753 20.7537 41.997Z" fill="url(#paint0_linear_503_199)"/>
<defs>
<linearGradient id="paint0_linear_503_199" x1="18.389" y1="29.6989" x2="46.9581" y2="29.6989" gradientUnits="userSpaceOnUse">
<stop stop-color="#EDEDED"/>
<stop offset="1" stop-color="white"/>
</linearGradient>
</defs>
</svg>
