<svg width="46" height="55" fill="none" xmlns="http://www.w3.org/2000/svg"><path d="M23 2 1 15v25.5L23 53l22-12.5V15L23 2z" fill="#191F2E" stroke="#0388B9" stroke-width="2"/><path d="M32.15 22.612v10.717l-9.106 5.388-.082.075v4.005l.082.078 12.825-7.408V20.533l-.119-.03-3.612 2.02.018.087" fill="#2F406A"/><path d="m13.908 33.419 9.138 5.3v4.156L10.13 35.438V20.563l.133-.02 3.605 2.096.04.12v10.66z" fill="#2379BD"/><path d="m13.908 22.759-3.777-2.197 12.884-7.437 12.856 7.408-3.719 2.08-9.137-5.214-9.107 5.36z" fill="#03AFEF"/><path d="m22.887 32.192-.098-.107v-4.019l.098-.051.025-.099 3.45-2.012.106.023v4.144l-3.58 2.117" fill="#2F406A"/><path d="M19.248 30.203v-4.305h.1l3.506 2.042.03.08v4.177l-3.639-1.989" fill="#2379BD"/><path d="m22.828 23.779-3.58 2.117 3.64 2.118 3.579-2.088-3.64-2.147z" fill="#03AFEF"/><path d="m18.431 34.816-.099-.106V30.69l.1-.05.024-.1 3.45-2.01.107.024v4.143l-3.582 2.118z" fill="#2F406A"/><path d="M14.793 32.828V28.52h.1l3.506 2.043.03.08v4.177l-3.636-1.993z" fill="#2379BD"/><path d="m18.373 26.406-3.58 2.116 3.638 2.118 3.58-2.088-3.638-2.146z" fill="#03AFEF"/><path d="m27.66 34.916-.099-.106v-4.02l.1-.05.024-.1 3.45-2.012.106.023v4.144l-3.58 2.118" fill="#2F406A"/><path d="M24.021 32.927v-4.305h.1l3.506 2.042.03.08v4.177l-3.64-1.989" fill="#2379BD"/><path d="m27.6 26.504-3.579 2.117 3.64 2.118 3.579-2.088-3.64-2.147z" fill="#03AFEF"/><path d="m23.205 37.541-.099-.106v-4.017l.1-.05.024-.1 3.45-2.012.106.024v4.143l-3.58 2.118z" fill="#2F406A"/><path d="M19.566 35.552v-4.305h.1l3.506 2.042.03.08v4.172l-3.64-1.989" fill="#2379BD"/><path d="m23.146 29.128-3.58 2.118 3.64 2.118 3.579-2.088-3.64-2.148z" fill="#03AFEF"/><path d="m22.887 26.484-.098-.107v-4.019l.098-.051.025-.099 3.45-2.012.106.023v4.144l-3.58 2.117" fill="#2F406A"/><path d="M19.248 24.494v-4.305h.1l3.506 2.043.03.08v4.177l-3.636-1.995z" fill="#2379BD"/><path d="m22.828 18.072-3.58 2.117 3.64 2.118 3.579-2.088-3.64-2.147z" fill="#03AFEF"/><path d="m18.431 29.11-.099-.107v-4.02l.1-.05.024-.1 3.45-2.012.106.024v4.143l-3.58 2.121z" fill="#2F406A"/><path d="M14.793 27.12v-4.305h.1l3.506 2.042.03.08v4.177l-3.636-1.994z" fill="#2379BD"/><path d="m18.373 20.696-3.58 2.119 3.638 2.117 3.58-2.087-3.638-2.149z" fill="#03AFEF"/><path d="m27.66 29.208-.099-.106v-4.018l.1-.051.024-.1 3.45-2.012.106.024v4.143l-3.58 2.118" fill="#2F406A"/><path d="M24.021 27.22v-4.306h.1l3.506 2.042.03.08v4.177l-3.64-1.989" fill="#2379BD"/><path d="m27.6 20.796-3.579 2.118 3.64 2.117 3.579-2.087-3.64-2.148z" fill="#03AFEF"/><path d="m23.205 31.833-.099-.106v-4.02l.1-.05.024-.1 3.45-2.012.106.024v4.143l-3.58 2.118" fill="#2F406A"/><path d="M19.566 29.844V25.54h.1l3.506 2.042.03.08v4.178l-3.64-1.99" fill="#2379BD"/><path d="m23.146 23.422-3.58 2.117 3.64 2.118 3.579-2.088-3.64-2.149" fill="#03AFEF"/></svg>