<svg width="59" height="68" viewBox="0 0 59 68" fill="none" xmlns="http://www.w3.org/2000/svg">
<path d="M29.4996 2L1.56543 18.4925V50.8433L29.4996 66.7015L57.4339 50.8433V18.4925L29.4996 2Z" fill="#191F2E" stroke="#0388B9" stroke-width="2"/>
<path d="M41.1181 28.1499V41.7467L29.5551 48.5821L29.4512 48.6765V53.7582L29.5551 53.8566L45.84 44.4587V25.512L45.6889 25.4756L41.102 28.0367L41.1249 28.1472" fill="#2F406A"/>
<path d="M17.9552 41.8592L29.5574 48.5828V53.856L13.1592 44.4203V25.549L13.3278 25.5234L17.9053 28.1829L17.9552 28.3353V41.8592Z" fill="#2379BD"/>
<path d="M17.9552 28.3361L13.1592 25.5499L29.5183 16.1143L45.8424 25.5121L41.1205 28.1501L29.5183 21.5371L17.9552 28.3361Z" fill="#03AFEF"/>
<path d="M29.3569 40.3023L29.2314 40.1676V35.0683L29.3569 35.0036L29.3879 34.8782L33.7685 32.3252L33.9034 32.3548V37.6118L29.3583 40.2983" fill="#2F406A"/>
<path d="M24.7355 37.7793V32.3174H24.8623L29.3143 34.9081L29.3521 35.0106V40.3094L24.7314 37.786" fill="#2379BD"/>
<path d="M29.2814 29.6299L24.7363 32.3163L29.357 35.0028L33.9021 32.3541L29.2814 29.6299Z" fill="#03AFEF"/>
<path d="M23.6987 43.6323L23.5732 43.4975V38.3996L23.6987 38.3349L23.7297 38.2095L28.1116 35.6592L28.2465 35.6888V40.9458L23.6987 43.6323Z" fill="#2F406A"/>
<path d="M19.0791 41.1097V35.6465H19.2059L23.6579 38.2372L23.6957 38.3397V43.6385L19.0791 41.1097Z" fill="#2379BD"/>
<path d="M23.6242 32.9629L19.0791 35.6467L23.6984 38.3345L28.2449 35.6857L23.6242 32.9629Z" fill="#03AFEF"/>
<path d="M35.4165 43.7594L35.291 43.6246V38.5253L35.4165 38.4606L35.4475 38.3352L39.828 35.7822L39.9629 35.8119V41.0689L35.4178 43.7553" fill="#2F406A"/>
<path d="M30.796 41.2353V35.7734H30.9229L35.3749 38.3642L35.4126 38.4666V43.7654L30.792 41.2421" fill="#2379BD"/>
<path d="M35.341 33.0869L30.7959 35.7734L35.4166 38.4598L39.9617 35.8111L35.341 33.0869Z" fill="#03AFEF"/>
<path d="M29.7602 47.0893L29.6348 46.9545V41.8593L29.7602 41.7946L29.7913 41.6692L34.1718 39.1162L34.3067 39.1459V44.4029L29.7602 47.0893Z" fill="#2F406A"/>
<path d="M25.1398 44.5664V39.1045H25.2666L29.7186 41.6952L29.7564 41.7977V47.0897L25.1357 44.5664" fill="#2379BD"/>
<path d="M29.6847 36.4164L25.1396 39.1028L29.7603 41.7893L34.3054 39.1406L29.6847 36.4164Z" fill="#03AFEF"/>
<path d="M29.3569 33.0611L29.2314 32.9263V27.8271L29.3569 27.7624L29.3879 27.637L33.7685 25.084L33.9034 25.1136V30.3706L29.3583 33.0571" fill="#2F406A"/>
<path d="M24.7363 30.5367V25.0762H24.8631L29.3152 27.6669L29.3529 27.7694V33.0682L24.7363 30.5367Z" fill="#2379BD"/>
<path d="M29.2814 22.3896L24.7363 25.0761L29.357 27.7626L33.9021 25.1139L29.2814 22.3896Z" fill="#03AFEF"/>
<path d="M23.6987 36.3922L23.5732 36.2574V31.1581L23.6987 31.0934L23.7297 30.9681L28.1102 28.415L28.2452 28.4447V33.7017L23.6987 36.3922Z" fill="#2F406A"/>
<path d="M19.0791 33.8691V28.4072H19.2059L23.6579 30.998L23.6957 31.1004V36.3992L19.0791 33.8691Z" fill="#2379BD"/>
<path d="M23.6242 25.7197L19.0791 28.4075L23.6984 31.094L28.2435 28.4453L23.6242 25.7197Z" fill="#03AFEF"/>
<path d="M35.4165 36.5178L35.291 36.383V31.2851L35.4165 31.2204L35.4475 31.095L39.828 28.542L39.9629 28.5716V33.8286L35.4178 36.5151" fill="#2F406A"/>
<path d="M30.796 33.9955V28.5322H30.9229L35.3749 31.123L35.4126 31.2254V36.5242L30.792 34.0009" fill="#2379BD"/>
<path d="M35.341 25.8457L30.7959 28.5322L35.4166 31.2186L39.9617 28.5699L35.341 25.8457Z" fill="#03AFEF"/>
<path d="M29.7602 39.8482L29.6348 39.7135V34.6142L29.7602 34.5495L29.7913 34.4241L34.1718 31.8711L34.3067 31.9007V37.1577L29.7616 39.8442" fill="#2F406A"/>
<path d="M25.1398 37.3252V31.8633H25.2666L29.7186 34.454L29.7564 34.5565V39.8553L25.1357 37.3319" fill="#2379BD"/>
<path d="M29.6847 29.1771L25.1396 31.8636L29.7603 34.55L34.3054 31.9013L29.6847 29.1758" fill="#03AFEF"/>
</svg>
