<svg width="36" height="36" fill="none" xmlns="http://www.w3.org/2000/svg"><g clip-path="url(#a)"><path d="M18 11.25c-3.72 0-6.75 3.03-6.75 6.75s3.03 6.75 6.75 6.75 6.75-3.03 6.75-6.75-3.03-6.75-6.75-6.75zm17.325 5.66-6.659-3.326 2.356-7.059c.316-.956-.59-1.863-1.54-1.54l-7.06 2.356L19.09.675c-.45-.9-1.73-.9-2.18 0l-3.326 6.659-7.066-2.356c-.956-.316-1.863.59-1.54 1.54l2.356 7.06L.675 16.91c-.9.45-.9 1.73 0 2.18l6.659 3.326-2.356 7.066c-.316.956.59 1.863 1.54 1.54l7.06-2.356 3.325 6.659c.45.9 1.73.9 2.18 0l3.326-6.659 7.059 2.356c.956.316 1.863-.59 1.54-1.54l-2.356-7.06 6.659-3.325c.914-.457.914-1.737.014-2.187zm-10.962 7.453c-3.508 3.509-9.218 3.509-12.726 0-3.509-3.508-3.509-9.218 0-12.726 3.508-3.509 9.218-3.509 12.726 0 3.509 3.508 3.509 9.218 0 12.726z" fill="url(#b)"/></g><defs><radialGradient id="b" cx="0" cy="0" r="1" gradientUnits="userSpaceOnUse" gradientTransform="matrix(0 18 -17.9991 0 18 18)"><stop stop-color="#FCFF6C"/><stop offset="1" stop-color="#F90"/></radialGradient><clipPath id="a"><path fill="#fff" d="M0 0h36v36H0z"/></clipPath></defs></svg>