<svg width="601" height="559" fill="none" xmlns="http://www.w3.org/2000/svg"><g clip-path="url(#a)"><mask id="b" style="mask-type:luminance" maskUnits="userSpaceOnUse" x="0" y="0" width="601" height="559"><path d="M600.873 0H0v558.689h600.873V0z" fill="#fff"/></mask><g mask="url(#b)"><g opacity=".2"><path opacity=".2" d="M455.928 63.618H149.524v339.658h306.404V63.618z" fill="#D9FAFF"/><path opacity=".2" d="m278.201 70.352-47.257 159.246H204.07l47.26-159.246h26.871zM236.717 70.352 189.46 229.598h-15.558l47.254-159.246h15.561zM437.243 68.91l-47.259 159.246h-26.871l47.26-159.246h26.87zM395.757 68.91l-47.254 159.246h-15.558L380.199 68.91h15.558zM437.243 239.702l-47.259 159.243h-26.871l47.26-159.243h26.87zM395.757 239.702l-47.254 159.243h-15.558l47.254-159.243h15.558zM278.201 239.702l-47.257 159.243H204.07l47.26-159.243h26.871zM236.717 239.702 189.46 398.945h-15.558l47.254-159.243h15.561z" fill="#fff"/><path opacity=".2" d="M308.118 404.107V70.004c0-1.4-1.06-2.536-2.368-2.536h-6.496c-1.308 0-2.368 1.135-2.368 2.536v334.103c0 1.401 1.06 2.536 2.368 2.536h6.496c1.308 0 2.368-1.135 2.368-2.536zM144.137 69.043v334.104c0 1.401 1.06 2.536 2.368 2.536h6.496c1.308 0 2.368-1.135 2.368-2.536V69.043c0-1.4-1.06-2.536-2.368-2.536h-6.496c-1.308 0-2.368 1.135-2.368 2.536zM450.537 69.043v334.104c0 1.401 1.06 2.536 2.369 2.536h6.495c1.309 0 2.369-1.135 2.369-2.536V69.043c0-1.4-1.06-2.536-2.369-2.536h-6.495c-1.309 0-2.369 1.135-2.369 2.536z" fill="#E2B38E"/><path opacity=".2" d="M305.299 408.229h-6.495c-1.022 0-1.999-.435-2.721-1.208a4.269 4.269 0 0 1-1.128-2.914V70.004a4.27 4.27 0 0 1 1.128-2.914c.722-.773 1.699-1.207 2.721-1.207h6.495c1.022 0 1.999.434 2.721 1.207a4.27 4.27 0 0 1 1.128 2.914v334.103c0 1.094-.405 2.14-1.128 2.914-.722.773-1.699 1.208-2.721 1.208zm-6.492-339.176c-.237 0-.462.1-.628.279a.99.99 0 0 0-.26.672v334.103c0 .251.094.495.26.672a.858.858 0 0 0 .628.279h6.495a.858.858 0 0 0 .628-.279.988.988 0 0 0 .261-.672V70.004a.99.99 0 0 0-.261-.672.856.856 0 0 0-.628-.279h-6.495zM152.547 407.267h-6.492c-1.021 0-2-.434-2.722-1.208a4.268 4.268 0 0 1-1.127-2.913V69.042c0-1.093.405-2.14 1.127-2.914.722-.773 1.701-1.207 2.722-1.207h6.495c1.021 0 2 .434 2.722 1.207a4.273 4.273 0 0 1 1.127 2.914v334.104c0 .542-.1 1.078-.293 1.576-.194.5-.478.957-.835 1.337a3.82 3.82 0 0 1-1.25.894 3.635 3.635 0 0 1-1.474.314zm-6.492-339.176c-.236 0-.462.1-.628.279a.985.985 0 0 0-.26.672v334.104c0 .25.093.494.26.672a.86.86 0 0 0 .628.279h6.495a.86.86 0 0 0 .628-.279.987.987 0 0 0 .261-.672V69.042a.985.985 0 0 0-.261-.672.857.857 0 0 0-.628-.279h-6.495zM458.951 407.267h-6.496c-1.021 0-1.998-.434-2.721-1.208a4.27 4.27 0 0 1-1.128-2.913V69.042c0-1.093.406-2.14 1.128-2.914.723-.773 1.7-1.207 2.721-1.207h6.496c1.021 0 1.998.434 2.721 1.207a4.274 4.274 0 0 1 1.128 2.914v334.104a4.27 4.27 0 0 1-1.128 2.913c-.723.774-1.7 1.208-2.721 1.208zm-6.496-339.176c-.237 0-.462.1-.627.279a.99.99 0 0 0-.261.672v334.104c0 .25.095.494.261.672.165.178.39.279.627.279h6.496a.854.854 0 0 0 .627-.279.992.992 0 0 0 .261-.672V69.042a.99.99 0 0 0-.261-.672.852.852 0 0 0-.627-.279h-6.496z" fill="#385868"/><path opacity=".2" d="M462.095 57.363H144.714c-1.308 0-2.368 1.136-2.368 2.537v6.955c0 1.4 1.06 2.536 2.368 2.536h317.381c1.309 0 2.369-1.135 2.369-2.536V59.9c0-1.4-1.06-2.536-2.369-2.536z" fill="#E2B38E"/><path opacity=".2" d="M461.639 70.977H144.264c-1.021 0-2-.434-2.722-1.207a4.273 4.273 0 0 1-1.127-2.914V59.9c0-1.093.405-2.142 1.127-2.915a3.725 3.725 0 0 1 2.722-1.207h317.375c1.022 0 1.999.434 2.721 1.207a4.274 4.274 0 0 1 1.128 2.915v6.956a4.274 4.274 0 0 1-1.128 2.914c-.722.773-1.699 1.207-2.721 1.207zM144.264 58.949c-.236 0-.462.1-.628.278a.985.985 0 0 0-.26.673v6.956c0 .252.093.493.26.672a.858.858 0 0 0 .628.279h317.375c.237 0 .462-.1.628-.28a.99.99 0 0 0 .26-.671V59.9a.99.99 0 0 0-.26-.673.856.856 0 0 0-.628-.278H144.264z" fill="#385868"/><path opacity=".2" d="M462.095 397.021H144.714c-1.308 0-2.368 1.135-2.368 2.537v6.955c0 1.402 1.06 2.537 2.368 2.537h317.381c1.309 0 2.369-1.135 2.369-2.537v-6.955c0-1.402-1.06-2.537-2.369-2.537z" fill="#E2B38E"/><path opacity=".2" d="M461.639 410.634H144.264c-1.021 0-2-.434-2.722-1.208a4.276 4.276 0 0 1-1.127-2.913v-6.956a4.28 4.28 0 0 1 1.127-2.917 3.733 3.733 0 0 1 2.722-1.204h317.375c1.022 0 1.999.434 2.721 1.204a4.28 4.28 0 0 1 1.128 2.917v6.956c0 1.09-.406 2.14-1.128 2.913-.722.774-1.699 1.208-2.721 1.208zm-317.375-12.028a.848.848 0 0 0-.628.279.977.977 0 0 0-.26.672v6.956c0 .25.093.494.26.672a.863.863 0 0 0 .628.279h317.375a.862.862 0 0 0 .628-.279.991.991 0 0 0 .26-.672v-6.956a.982.982 0 0 0-.26-.672.847.847 0 0 0-.628-.279H144.264z" fill="#385868"/><path opacity=".2" d="M462.095 228.635H144.714c-1.308 0-2.368 1.135-2.368 2.536v6.956c0 1.4 1.06 2.536 2.368 2.536h317.381c1.309 0 2.369-1.136 2.369-2.536v-6.956c0-1.401-1.06-2.536-2.369-2.536z" fill="#E2B38E"/><path opacity=".2" d="M461.639 242.248H144.264c-1.021 0-2-.434-2.722-1.207a4.273 4.273 0 0 1-1.127-2.914v-6.956c0-1.093.405-2.141 1.127-2.914a3.725 3.725 0 0 1 2.722-1.207h317.375c1.022 0 1.999.434 2.721 1.207a4.273 4.273 0 0 1 1.128 2.914v6.956a4.273 4.273 0 0 1-1.128 2.914c-.722.773-1.699 1.207-2.721 1.207zM144.264 230.22c-.236 0-.462.1-.628.279a.983.983 0 0 0-.26.672v6.956c0 .252.093.494.26.672a.856.856 0 0 0 .628.279h317.375c.237 0 .462-.1.628-.279a.987.987 0 0 0 .26-.672v-6.956a.987.987 0 0 0-.26-.672.854.854 0 0 0-.628-.279H144.264z" fill="#385868"/></g><g opacity=".2"><path opacity=".2" d="M44.817 332.935v2.536H81.53v-2.536H44.817zM92.773 343.653l-.011 2.537 36.711.19.011-2.536-36.71-.191zM46.984 363.18l-.212 22.794 2.368.026.213-22.795-2.369-.025z" fill="#385868"/><path opacity=".2" d="m96.889 322.387-.213 22.794 2.368.026.213-22.795-2.368-.025z" fill="#385868"/><path opacity=".2" d="M64.256 353.304h46.117c3.068 0 5.554-2.663 5.554-5.948v-5.668c0-3.285-2.486-5.948-5.554-5.948H64.256c-3.067 0-5.554 2.663-5.554 5.948v5.668c0 3.285 2.487 5.948 5.554 5.948z" fill="#F2F2F2"/><path opacity=".2" d="M110.374 354.575H64.245c-1.786-.003-3.499-.764-4.762-2.118-1.263-1.351-1.974-3.186-1.976-5.098v-5.665c0-1.915.71-3.751 1.974-5.105 1.263-1.353 2.977-2.114 4.764-2.117h46.129c1.787.003 3.499.764 4.762 2.117 1.263 1.351 1.974 3.187 1.976 5.098v5.666c0 1.915-.71 3.75-1.974 5.104-1.263 1.354-2.977 2.115-4.764 2.118zm-46.129-17.567c-1.158.003-2.269.495-3.088 1.373a4.86 4.86 0 0 0-1.282 3.306v5.666c0 1.243.46 2.431 1.28 3.31a4.235 4.235 0 0 0 3.09 1.376h46.129a4.24 4.24 0 0 0 3.088-1.373 4.865 4.865 0 0 0 1.282-3.307v-5.665a4.85 4.85 0 0 0-1.28-3.31c-.819-.881-1.931-1.373-3.09-1.376H64.245z" fill="#385868"/><path opacity=".2" d="M24.893 370.867H71.01c3.068 0 5.554-2.663 5.554-5.947v-5.669c0-3.284-2.486-5.947-5.554-5.947H24.893c-3.067 0-5.554 2.663-5.554 5.947v5.669c0 3.284 2.487 5.947 5.554 5.947z" fill="#F2F2F2"/><path opacity=".2" d="M71.01 372.139H24.896a6.382 6.382 0 0 1-2.582-.555 6.682 6.682 0 0 1-2.188-1.566 7.275 7.275 0 0 1-1.46-2.346 7.676 7.676 0 0 1-.512-2.765v-5.665c.003-1.915.713-3.747 1.977-5.101 1.263-1.351 2.975-2.111 4.762-2.115H71.01c1.786.004 3.499.764 4.762 2.115 1.263 1.354 1.974 3.186 1.976 5.101v5.665c.002 1.915-.707 3.754-1.971 5.108-1.264 1.357-2.978 2.121-4.767 2.124zm-46.114-17.564c-1.159 0-2.27.495-3.089 1.373-.819.875-1.28 2.064-1.281 3.307v5.652a4.862 4.862 0 0 0 1.281 3.307c.82.878 1.93 1.37 3.089 1.373H71.01c1.158-.003 2.269-.495 3.088-1.373a4.861 4.861 0 0 0 1.282-3.307v-5.665c-.002-1.243-.463-2.432-1.282-3.307-.82-.878-1.93-1.372-3.088-1.372l-46.114.012z" fill="#385868"/></g><g opacity=".2"><path opacity=".2" d="M26.749 70.712v2.536H63.46v-2.536H26.75zM74.62 80.14l-.013 2.536 36.711.192.012-2.536-36.71-.192zM28.785 99.227l-.213 22.794 2.369.026.213-22.795-2.369-.025z" fill="#385868"/><path opacity=".2" d="m78.695 58.44-.213 22.794 2.369.026.213-22.795-2.369-.026z" fill="#385868"/><path opacity=".2" d="M46.102 89.804h46.117c3.068 0 5.554-2.663 5.554-5.948v-5.668c0-3.285-2.486-5.948-5.554-5.948H46.102c-3.068 0-5.554 2.663-5.554 5.948v5.668c0 3.285 2.486 5.948 5.554 5.948z" fill="#F2F2F2"/><path opacity=".2" d="M92.217 91.068H46.105c-1.784-.004-3.495-.766-4.756-2.119-1.261-1.352-1.97-3.185-1.973-5.096v-5.666c.002-1.913.713-3.746 1.976-5.1 1.264-1.352 2.976-2.113 4.762-2.115h46.103c1.786.002 3.498.763 4.762 2.116 1.263 1.353 1.974 3.186 1.976 5.1v5.665c-.002 1.913-.713 3.747-1.976 5.1-1.264 1.352-2.976 2.113-4.762 2.115zM46.102 73.505c-1.157.005-2.264.5-3.081 1.378a4.861 4.861 0 0 0-1.277 3.304v5.666c.002 1.24.463 2.43 1.282 3.307.82.877 1.93 1.37 3.088 1.372h46.103c1.158-.001 2.269-.495 3.088-1.372.819-.877 1.28-2.067 1.281-3.307v-5.666a4.859 4.859 0 0 0-1.281-3.307c-.82-.877-1.93-1.37-3.088-1.372l-46.115-.003z" fill="#385868"/><path opacity=".2" d="M6.739 107.363h46.117c3.067 0 5.554-2.662 5.554-5.947v-5.669c0-3.284-2.487-5.947-5.554-5.947H6.739c-3.068 0-5.554 2.663-5.554 5.947v5.669c0 3.285 2.486 5.947 5.554 5.947z" fill="#F2F2F2"/><path opacity=".2" d="M52.852 108.635H6.739c-1.787-.003-3.5-.764-4.763-2.118C.712 105.164.002 103.329 0 101.416v-5.672c.002-1.913.713-3.747 1.976-5.1 1.263-1.352 2.976-2.113 4.762-2.116h46.114c1.788.002 3.5.763 4.764 2.116 1.264 1.352 1.975 3.187 1.978 5.1v5.665c0 1.916-.71 3.752-1.974 5.107-1.264 1.355-2.979 2.117-4.767 2.119zM6.739 91.068c-1.158.002-2.268.495-3.087 1.371-.819.877-1.28 2.065-1.283 3.305v5.665c.002 1.241.463 2.43 1.282 3.307.82.878 1.93 1.371 3.088 1.373h46.114c1.159-.002 2.27-.495 3.089-1.373.819-.877 1.28-2.066 1.281-3.307v-5.665a4.859 4.859 0 0 0-1.281-3.307c-.82-.877-1.93-1.37-3.089-1.372l-46.114.003z" fill="#385868"/></g><g opacity=".2"><path opacity=".2" d="m516.534 344.896-.012 2.537 36.715.19.009-2.536-36.712-.191zM564.174 354.064l-.012 2.537 36.714.19.012-2.536-36.714-.191zM519.175 373.594l-.213 22.794 2.368.026.214-22.795-2.369-.025z" fill="#385868"/><path opacity=".2" d="m569.079 332.808-.21 22.794 2.369.026.21-22.795-2.369-.025z" fill="#385868"/><path opacity=".2" d="M535.648 363.718h46.117c3.067 0 5.554-2.663 5.554-5.948v-5.668c0-3.285-2.487-5.948-5.554-5.948h-46.117c-3.067 0-5.554 2.663-5.554 5.948v5.668c0 3.285 2.487 5.948 5.554 5.948z" fill="#F2F2F2"/><path opacity=".2" d="M581.757 364.989h-46.106c-1.785-.003-3.499-.764-4.763-2.117-1.261-1.351-1.972-3.187-1.975-5.098v-5.666c.003-1.915.714-3.747 1.975-5.101 1.264-1.35 2.978-2.111 4.763-2.114h46.106c1.785.003 3.499.764 4.76 2.114 1.264 1.354 1.975 3.186 1.978 5.101v5.666c-.003 1.911-.714 3.747-1.978 5.098-1.261 1.353-2.975 2.114-4.76 2.117zm-46.114-17.563c-1.158 0-2.268.494-3.088 1.372-.82.875-1.279 2.064-1.282 3.307v5.665c.003 1.24.462 2.429 1.282 3.307.82.878 1.93 1.37 3.088 1.373h46.114c1.157-.003 2.267-.495 3.088-1.373.82-.878 1.279-2.067 1.282-3.307v-5.665c-.003-1.243-.462-2.432-1.282-3.307-.821-.878-1.931-1.372-3.088-1.372h-46.114z" fill="#385868"/><path opacity=".2" d="M496.285 381.285h46.117c3.067 0 5.554-2.663 5.554-5.947v-5.669c0-3.284-2.487-5.947-5.554-5.947h-46.117c-3.068 0-5.555 2.663-5.555 5.947v5.669c0 3.284 2.487 5.947 5.555 5.947z" fill="#F2F2F2"/><path opacity=".2" d="M542.398 382.554h-46.114c-1.785-.004-3.499-.765-4.763-2.118-1.262-1.351-1.972-3.186-1.975-5.098v-5.675c.003-1.915.713-3.747 1.975-5.101 1.264-1.351 2.978-2.112 4.763-2.115h46.114c1.786.003 3.5.764 4.764 2.115 1.261 1.354 1.972 3.186 1.975 5.101v5.665c0 1.915-.711 3.751-1.972 5.105-1.264 1.356-2.978 2.117-4.767 2.121zm-46.114-17.564c-1.157 0-2.268.494-3.088 1.373-.82.875-1.279 2.067-1.282 3.306v5.666c.003 1.239.462 2.428 1.282 3.306.82.879 1.931 1.37 3.088 1.373h46.114c1.158-.003 2.268-.494 3.088-1.373.82-.878 1.279-2.067 1.282-3.306v-5.672c-.003-1.24-.462-2.432-1.282-3.307-.82-.878-1.93-1.372-3.088-1.372l-46.114.006z" fill="#385868"/></g><g opacity=".2"><path opacity=".2" d="m516.537 12.645-.012 2.536 36.715.192.011-2.536-36.714-.192zM564.171 21.814l-.009 2.536 36.711.192.012-2.536-36.714-.192zM519.16 40.784l-.213 22.795 2.369.025.213-22.794-2.369-.026z" fill="#385868"/><path opacity=".2" d="m569.068-.004-.211 22.795 2.369.025.21-22.795-2.368-.025z" fill="#385868"/><path opacity=".2" d="M535.648 31.479h46.117c3.067 0 5.554-2.663 5.554-5.948v-5.668c0-3.285-2.487-5.948-5.554-5.948h-46.117c-3.067 0-5.554 2.663-5.554 5.948v5.668c0 3.285 2.487 5.948 5.554 5.948z" fill="#F2F2F2"/><path opacity=".2" d="M581.757 32.745h-46.106c-1.785-.002-3.499-.763-4.763-2.116-1.261-1.352-1.972-3.186-1.975-5.1v-5.668c.003-1.913.714-3.747 1.975-5.1 1.264-1.352 2.978-2.113 4.763-2.115h46.106c1.785.002 3.499.763 4.76 2.116 1.264 1.352 1.975 3.186 1.978 5.1v5.665c-.003 1.913-.711 3.748-1.975 5.101-1.264 1.354-2.975 2.115-4.763 2.117zm-46.114-17.563c-1.158.002-2.268.495-3.088 1.372-.82.877-1.279 2.067-1.282 3.307v5.666c.003 1.24.462 2.43 1.282 3.307.82.877 1.93 1.37 3.088 1.372h46.114c1.157-.002 2.267-.495 3.088-1.372.82-.878 1.279-2.067 1.282-3.307V19.86a4.853 4.853 0 0 0-1.282-3.309c-.818-.878-1.931-1.372-3.088-1.373l-46.114.003z" fill="#385868"/><path opacity=".2" d="M496.285 49.04h46.117c3.067 0 5.554-2.663 5.554-5.948v-5.669c0-3.285-2.487-5.947-5.554-5.947h-46.117c-3.068 0-5.555 2.662-5.555 5.947v5.669c0 3.285 2.487 5.947 5.555 5.947z" fill="#F2F2F2"/><path opacity=".2" d="M542.398 50.31h-46.114c-1.785-.003-3.499-.763-4.763-2.116-1.262-1.353-1.972-3.187-1.975-5.1V37.41c.003-1.913.713-3.747 1.975-5.1 1.264-1.352 2.978-2.113 4.763-2.116h46.114c1.789.002 3.5.763 4.764 2.116 1.264 1.352 1.975 3.187 1.978 5.1v5.665a7.7 7.7 0 0 1-.51 2.767 7.286 7.286 0 0 1-1.462 2.346 6.71 6.71 0 0 1-2.188 1.57 6.354 6.354 0 0 1-2.582.552zm-46.114-17.564c-1.154.002-2.265.493-3.082 1.367-.82.874-1.282 2.06-1.288 3.297v5.665c.003 1.24.462 2.43 1.282 3.307.82.878 1.931 1.371 3.088 1.373h46.114c1.158-.002 2.268-.495 3.088-1.373.82-.877 1.279-2.066 1.282-3.307V37.41c-.003-1.24-.462-2.43-1.282-3.307-.82-.877-1.93-1.37-3.088-1.373l-46.114.016z" fill="#385868"/></g><path d="M496.13 555.521H92.602v3.17H496.13v-3.17zM541.427 555.521H504.42v3.17h37.007v-3.17zM86.384 555.521H60.627v3.17h25.757v-3.17z" fill="#385868"/><path d="M331.784 303.522v15.732c0 4.169 1.546 8.167 4.299 11.115 2.754 2.949 6.49 4.607 10.383 4.607h17.915c8.073 0 15.815 3.433 21.523 9.546 5.708 6.112 8.914 14.402 8.914 23.048v89.952H235.396V367.57c.001-8.646 3.209-16.933 8.917-23.045 5.708-6.113 13.449-9.546 21.521-9.546h17.915c1.928 0 3.837-.409 5.618-1.199a14.655 14.655 0 0 0 4.763-3.408 15.856 15.856 0 0 0 3.181-5.101 16.696 16.696 0 0 0 1.116-6.017v-15.732" fill="#FFC6AD"/><path d="M393.593 368.553v89.955H235.396v-89.955c.001-8.646 3.209-16.933 8.917-23.045 5.708-6.113 13.449-9.546 21.521-9.546h8.518c.802 8.17 6.164 15.921 12.807 20.021 6.748 4.162 14.676 5.592 22.454 5.969 9.974.485 20.188-.703 29.309-5.053 8.66-4.122 16.284-11.632 20.053-20.924h4.18c8.07 0 15.809 3.43 21.517 9.539s8.918 14.397 8.921 23.039z" fill="#82F0B7"/><path d="M392.98 368.553v15.401c0-8.645-3.207-16.935-8.915-23.048-5.708-6.112-13.45-9.546-21.523-9.546h-4.181c-3.777 9.305-11.392 16.803-20.052 20.924-9.121 4.35-19.335 5.539-29.31 5.054-7.777-.377-15.706-1.81-22.453-5.97-6.646-4.099-12.008-11.85-12.807-20.02h-8.518c-3.999 0-7.959.84-11.653 2.479-3.695 1.639-7.052 4.039-9.88 7.07-2.827 3.027-5.07 6.622-6.599 10.579a34.603 34.603 0 0 0-2.315 12.478v-15.401c.001-4.28.789-8.519 2.319-12.475 1.53-3.954 3.773-7.549 6.6-10.573 2.828-3.028 6.184-5.428 9.878-7.064a28.69 28.69 0 0 1 11.65-2.479h8.518c.802 8.17 6.164 15.921 12.807 20.021 6.747 4.162 14.676 5.592 22.453 5.969 9.975.485 20.189-.703 29.31-5.053 8.66-4.122 16.283-11.632 20.052-20.924h4.181c8.07 0 15.809 3.43 21.517 9.539s8.918 14.397 8.921 23.039z" fill="#BEF8D9"/><path d="M331.172 305.814v11.956l-.266.07a81.057 81.057 0 0 1-33.088 1.493v-13.519h33.354z" fill="#E39493"/><path d="M328.783 303.523c0 5.317-.089 10.64 0 15.953a18.82 18.82 0 0 0 1.764 7.669 17.572 17.572 0 0 0 4.696 6.094c3.123 2.571 6.809 3.639 10.714 3.639 5.679 0 11.357-.025 17.035 0 9.317.042 18.255 4.803 23.614 13.043 3.698 5.685 5.202 12.155 5.202 19.022v77.388c0 3.529-.261 7.19 0 10.713v.494l1.776-1.902H240.64c-2.013 0-4.186-.25-6.194 0a2.103 2.103 0 0 1-.275 0l1.777 1.902v-86.67c0-4.867.233-9.562 1.856-14.207 3.452-9.878 11.765-17.218 21.39-19.237 2.816-.59 5.646-.542 8.497-.542h10.534c2.584 0 5.234.168 7.777-.4a16.031 16.031 0 0 0 6.592-3.291 17.48 17.48 0 0 0 4.629-6.007c1.551-3.352 1.758-6.801 1.758-10.447v-13.214c0-2.447-3.552-2.45-3.552 0 0 5.317.089 10.64 0 15.953a14.689 14.689 0 0 1-2.047 7.21c-1.286 2.159-3.1 3.896-5.245 5.025-2.706 1.43-5.548 1.363-8.465 1.363H269.31c-2.513 0-5.065-.108-7.573.146-4.967.504-9.76 2.222-14.007 5.028-4.248 2.803-7.836 6.613-10.489 11.141-3.452 5.928-4.834 12.624-4.834 19.541v57.355c0 10.237-.225 20.509 0 30.752v.495a2 2 0 0 0 .528 1.338c.331.355.779.558 1.248.564h139.82c6.427 0 12.899.247 19.324 0h.275a1.742 1.742 0 0 0 1.249-.564c.332-.355.521-.837.527-1.338v-86.664c0-4.905-.201-9.717-1.717-14.425-1.625-5.016-4.299-9.569-7.816-13.31-3.517-3.744-7.783-6.575-12.476-8.287-6.566-2.371-13.66-1.769-20.487-1.769-2.517 0-5.033.029-7.552 0-2.179 0-4.323-.583-6.236-1.696-1.912-1.113-3.534-2.723-4.719-4.679-1.844-3.117-2.028-6.417-2.028-9.962v-13.217c0-2.447-3.552-2.45-3.552 0h-.012z" fill="#385868"/><path d="M293.919 119.039c2.108 6.341 8.488 9.701 14.451 11.816a94.794 94.794 0 0 0 33.38 5.443c8.095-.152 16.284-1.338 24.215.444 7.931 1.782 15.795 7.444 17.467 15.925" fill="#EF7679"/><path d="M286.209 91.423c16.221-12.897 35.879-21.904 56.074-21.241 20.194.662 40.675 12.294 49.353 31.83 11.697 26.314.935 58.8-2.893 85.948a283.46 283.46 0 0 0 1.93 90.773c2.55 13.788 6.247 27.661 13.128 39.746 1.649 2.898 4.775 5.881 5.977 8.915 1.531 3.865.296 3.995-3.934 5.26-6.298 1.88-13.137 1.056-19.54.555-7.124-.555-14.318-1.202-21.109-3.558-11.251-3.902-22.797-14.704-20.834-28.672" fill="#EF7679"/><path d="M406.762 332.649c-6.297 1.88-13.136 1.056-19.54.558-7.123-.558-14.317-1.201-21.109-3.557-11.25-3.906-22.797-14.704-20.837-28.673l-3.653-13.109c6.143 12.364 17.92 21.641 30.731 25.433 9.85 2.916 20.156 3.015 30.278 1.268a82.504 82.504 0 0 0 2.09 3.915c1.649 2.898 4.776 5.878 5.975 8.912 1.533 3.861.299 3.988-3.935 5.253z" fill="#DB6A72"/><path d="M271.19 172.783c17.077-1.902 12.887-25.258 19.54-42.207 4.257-10.848 5.699-24.221-.773-33.735-9.415-13.842-28.285-16.936-42.665-11.43-19.623 7.514-23.261 29.802-24.052 49.756-.746 18.797 3.171 37.337 7.872 55.322 2.757 10.51 4.459 21.289 5.957 32.068 3.162 22.779 5.394 46.287.169 68.622-5.226 22.335-19.271 43.549-39.717 50.688 16.876 2.838 34.805 1.661 49.981-6.721 15.176-8.382 27.051-24.821 27.765-43.092" fill="#EF7679"/><path d="M245.359 325.658c-10.99 6.071-23.428 8.357-35.856 8.084-4.292 3.386-9.058 6.024-14.122 7.812 16.875 2.837 34.805 1.661 49.981-6.721 15.176-8.382 27.05-24.821 27.764-43.092l-.213-6.277c-1.782 17.097-13.184 32.259-27.554 40.194z" fill="#DB6A72"/><path d="M363.031 135.532c4.18 7.843 6.477 16.597 6.377 26.65-.142 14.314-4.927 28.555-2.665 42.457.657 4.029 1.883 7.793 2.828 11.692 5.595 23.08.535 50.31-10.777 68.032-11.312 17.723-28.007 26.387-44.341 26.368h-.106c-16.334.019-33.029-8.645-44.341-26.368-11.313-17.722-16.372-44.952-10.777-68.032.945-3.899 2.17-7.659 2.828-11.692 2.265-13.905-2.52-28.146-2.665-42.457-.098-10.05 2.197-20.116 6.377-27.959l10.62-17.469 30.293-9.511 18.651 3.931" fill="#FFC6AD"/><path d="M358.8 274.206c-11.313 17.722-28.007 26.387-44.341 26.368h-.107c-16.333.019-33.028-8.646-44.34-26.368-7.503-11.756-12.251-27.696-12.968-43.83-.888 18.914 4.145 38.526 12.968 52.352 11.312 17.722 28.007 26.386 44.34 26.367h.107c16.334.019 33.028-8.645 44.341-26.367 8.825-13.826 13.843-33.438 12.967-52.349-.716 16.131-5.465 32.071-12.967 43.827zM366.693 144.304c-.038 0-.08-.019-.118-.029a31.014 31.014 0 0 0-1.797-.355c-7.363-1.252-14.934-.228-22.418-.089-13.459.251-37.007-.127-45.273-13.8 8.026 13.255-29.825 35.799-37.6 40.336l-.592-5.941c-.062-.634-.113-1.294.204-1.817.296-.399.69-.703 1.137-.878 13.462-6.804 23.264-16.635 29.289-31.482.039-.098.077-.196.113-.294.171-.444.34-.891.497-1.345l.027-.069a54.21 54.21 0 0 0 3.111-11.439l1.865 6.728c.086-.952.14-1.922.16-2.873v-.085c.018-1.034 0-2.061-.074-3.082a29.972 29.972 0 0 0-1.329-7.19v-1.493l6.149-1.931c-.456 2.72-1.32 5.589-.364 8.157 1.069 2.872 4.021 4.312 6.735 5.371 14.17 5.519 29.159 8.221 44.235 7.97 1.338-.022 2.679-.07 4.023-.121l7.754 5.013c.127.241.257.488.382.735l-.116-.019c.169.317.332.634.492.951a53.615 53.615 0 0 1 3.508 9.071z" fill="#E39493"/><path d="M294.528 120.021c2.108 6.341 8.488 9.702 14.451 11.816a94.772 94.772 0 0 0 33.381 5.437c8.094-.152 16.283-1.338 24.214.444 7.932 1.782 15.795 7.444 17.468 15.925l6.181-50.003-95.775-5.243.08 21.624z" fill="#EF7679"/><path d="M396.669 335.422c-2.878 0-5.761-.238-8.586-.473l-1.888-.152c-7.76-.605-14.729-1.296-21.459-3.63-6.217-2.152-12.046-6.169-16.025-11.023-4.767-5.812-6.78-12.52-5.818-19.393l2.928.469c-1.045 7.482 2.203 13.284 5.113 16.832 3.639 4.438 9 8.119 14.714 10.1 6.413 2.22 13.198 2.895 20.763 3.488l1.9.155c5.762.476 11.718.951 17.151-.656l.637-.187c1.202-.355 2.561-.758 2.845-1.059 0-.108 0-.558-.512-1.864-.616-1.554-1.91-3.228-3.162-4.848a34.61 34.61 0 0 1-2.718-3.858c-3.733-6.557-9.178-17.865-13.323-40.264a283.585 283.585 0 0 1-1.942-91.305c.838-5.951 1.984-12.019 3.195-18.448 4.307-22.843 8.76-46.462-.178-66.577-4.018-9.045-10.854-16.759-19.765-22.307-8.627-5.321-18.344-8.296-28.294-8.664-22.892-.749-42.633 10.979-55.147 20.924l-1.777-2.537c12.906-10.259 33.268-22.322 57.004-21.558 10.445.334 20.65 3.443 29.694 9.048 9.43 5.872 16.674 14.06 20.952 23.686 4.201 9.454 5.939 20.506 5.329 33.789-.541 11.61-2.765 23.391-4.911 34.785-1.205 6.388-2.342 12.422-3.171 18.293a280.2 280.2 0 0 0 1.919 90.228c4.05 21.904 9.322 32.879 12.94 39.23a32.04 32.04 0 0 0 2.469 3.487c1.389 1.795 2.822 3.652 3.606 5.631.593 1.521 1.075 3.116.456 4.486-.695 1.54-2.3 2.016-4.737 2.733l-.627.187c-3.136.935-6.351 1.252-9.575 1.252z" fill="#385868"/><path d="M314.519 312.521h-.225c-17.942 0-34.524-9.86-45.502-27.059-12.049-18.873-16.464-46.737-10.989-69.322a140.46 140.46 0 0 1 1.012-3.884 76.505 76.505 0 0 0 1.791-7.682c1.321-8.1.184-16.241-1.021-24.858-.788-5.647-1.605-11.486-1.661-17.31-.104-10.405 2.232-20.607 6.572-28.761l2.573 1.585c-4.026 7.551-6.279 17.437-6.182 27.157.057 5.605.856 11.334 1.629 16.875 1.184 8.491 2.413 17.266 1.009 25.874a80.283 80.283 0 0 1-1.862 8.014 162.506 162.506 0 0 0-.989 3.805c-5.273 21.754-1.027 48.575 10.567 66.738 10.418 16.321 26.112 25.68 43.058 25.68h.222c16.953 0 32.644-9.356 43.062-25.68 11.594-18.163 15.842-44.984 10.567-66.738-.296-1.269-.655-2.559-.989-3.805a80.842 80.842 0 0 1-1.862-8.014c-1.404-8.605-.175-17.383 1.009-25.874.773-5.541 1.575-11.27 1.628-16.875.092-9.413-1.93-17.868-6.184-25.845l2.573-1.585c4.52 8.481 6.67 17.459 6.572 27.452-.056 5.824-.873 11.664-1.661 17.31-1.205 8.617-2.342 16.758-1.021 24.859a76.276 76.276 0 0 0 1.791 7.681c.34 1.268.693 2.571 1.012 3.884 5.478 22.589 1.06 50.45-10.986 69.326-10.978 17.192-27.557 27.052-45.513 27.052z" fill="#385868"/><path d="M290.138 132.202c-6.048 15.408-18.272 28.882-33.28 32.62a34.17 34.17 0 0 1-4.091.764c-5.365-5.843-15.049-17.596-14.605-25.908.613-11.467 18.652-29.817 22.948-36.37 1.969-3.012 4.26-10.795 6.164-18.334.447.073.888.155 1.335.24 8.189 1.636 15.789 5.948 20.757 13.253 6.457 9.526 5.021 22.899.772 33.735z" fill="#EF7679"/><path d="M213.628 344.847a99.325 99.325 0 0 1-16.334-1.402l-6.093-1.024 5.865-2.048c18.234-6.369 33.079-25.363 38.739-49.566 5.35-22.877 2.703-47.098-.198-68.003-1.427-10.278-3.129-21.241-5.921-31.887-4.562-17.501-8.686-36.361-7.917-55.817.779-19.656 4.332-43.253 25.032-51.182 7.712-2.905 16.027-3.454 24.013-1.585 8.657 2.045 15.692 6.74 20.349 13.585 3.209 4.72 4.787 10.547 4.692 17.322-.08 5.707-1.379 11.911-3.751 17.96-3.427 8.816-8.701 16.67-15.416 22.953-7.105 6.566-15.279 10.523-23.652 11.452l-.296-3.155c15.173-1.68 29.556-14.428 36.643-32.477 2.23-5.678 3.446-11.479 3.523-16.777.086-6.074-1.302-11.258-4.124-15.411-4.222-6.208-10.658-10.481-18.592-12.364a38.474 38.474 0 0 0-22.388 1.483c-8.515 3.26-14.472 9.581-18.217 19.32-3.701 9.632-4.544 21.169-4.855 29.012-.755 19.022 3.313 37.588 7.819 54.828 2.824 10.801 4.547 21.894 5.986 32.274 2.943 21.209 5.625 45.798.142 69.24-5.329 22.826-18.595 41.247-35.275 49.525 12.529 1.385 28.75.754 43.423-7.352 15.726-8.687 26.311-25.076 26.965-41.748l2.96.133c-.695 17.791-11.907 35.233-28.563 44.433-11.422 6.306-23.685 8.278-34.559 8.278z" fill="#385868"/><path d="M381.984 152.991c-1.685-8.519-9.847-13.243-16.325-14.701-5.687-1.268-11.715-.967-17.544-.666-2.073.108-4.222.219-6.339.257a95.773 95.773 0 0 1-33.875-5.523c-8.488-3.009-13.518-7.19-15.395-12.786l2.789-1.065c1.557 4.679 5.853 8.125 13.524 10.842a93.034 93.034 0 0 0 32.889 5.365c2.072-.038 4.195-.149 6.247-.254 6.016-.317 12.236-.634 18.296.732 4.258.94 8.257 2.911 11.695 5.761 3.674 3.129 6.066 7.066 6.918 11.384l-2.88.654zM286.055 187.855c.083-3.252 2.464-5.96 5.566-5.96 3.103 0 5.486 2.708 5.566 5.96.062 2.445 3.615 2.454 3.553 0-.133-5.307-4.059-9.764-9.119-9.764-5.059 0-8.985 4.46-9.118 9.764-.062 2.448 3.49 2.448 3.552 0zM328.587 187.855c.083-3.252 2.463-5.96 5.566-5.96 3.102 0 5.486 2.708 5.566 5.96.062 2.445 3.614 2.454 3.552 0-.133-5.307-4.059-9.764-9.118-9.764-5.06 0-8.986 4.46-9.119 9.764-.062 2.448 3.491 2.448 3.553 0zM318.456 222.586c-.083 3.253-2.463 5.96-5.566 5.96-3.103 0-5.486-2.707-5.566-5.96-.062-2.444-3.615-2.454-3.553 0 .134 5.307 4.059 9.764 9.119 9.764s8.985-4.46 9.119-9.764c.062-2.448-3.491-2.448-3.553 0z" fill="#385868"/><path d="M391.067 121.346c-.485-6.587-3.126-12.827-6.676-18.232-8.882-13.537-23.584-22.192-38.92-24.228-15.336-2.035-31.136 2.29-44.35 10.868-.852.555-1.749 1.192-2.11 2.19-.456 1.269.085 2.658.53 3.926a27.03 27.03 0 0 1 1.11 13.261c-.459 2.724-1.324 5.599-.367 8.17 1.068 2.872 4.02 4.315 6.735 5.374 14.169 5.518 29.159 8.218 44.234 7.967 7.141-.124 14.392-.897 21.346.831 6.954 1.727 13.776 6.635 15.629 14.022a8.642 8.642 0 0 0 2.641-3.221 9.331 9.331 0 0 0 .912-4.175M229.333 159.528a91.956 91.956 0 0 1 1.125-45.91c1.777-6.185 4.338-12.364 8.85-16.66 4.512-4.296 10.516-6.309 16.496-6.943 4.607-.485 9.341-.193 13.708 1.446 11.493 4.311 18.675 18.093 17.535 31.069-1.14 12.976-9.669 24.51-20.594 30.261-5.847 3.078-12.295 4.67-18.163 7.704s-11.41 8.04-12.796 14.859" fill="#DB6A72"/><path d="M369.805 84.983a49.277 49.277 0 0 1 5.261 4.578 54.478 54.478 0 0 1 4.296 4.946 50.993 50.993 0 0 1 5.729 9.596 49.914 49.914 0 0 1 1.607 4.014c.202.605.388 1.167.551 1.69l.391 1.445.154.615.109.549c.065.342.113.634.145.869.065.472.062.732 0 .754-.062.022-.219-.187-.423-.609a15.175 15.175 0 0 1-.349-.786l-.208-.504-.248-.571-.566-1.341-.707-1.585a69.928 69.928 0 0 0-1.86-3.744 58.764 58.764 0 0 0-5.921-8.963 59.648 59.648 0 0 0-4.21-4.631 51.992 51.992 0 0 0-5.051-4.334 51.947 51.947 0 0 0-5.536-3.633l-.69-.403-.695-.37c-.462-.242-.915-.499-1.374-.727-.921-.444-1.815-.9-2.715-1.268a52.207 52.207 0 0 0-5.154-1.947l-1.22-.352c-.4-.117-.791-.237-1.184-.317-.779-.17-1.519-.386-2.239-.491-.719-.105-1.4-.276-2.054-.317l-.951-.114-.456-.057-.441-.022-1.616-.096H340.226l-.509.032c-.317.016-.592.026-.809.022-.441 0-.683-.044-.698-.126-.015-.083.195-.203.618-.355.214-.077.477-.162.794-.254l.512-.146.592-.105c.418-.071.885-.145 1.401-.221.515-.045 1.074-.073 1.681-.108l.462-.026h.477l.997.026c.69 0 1.407.098 2.165.17.758.074 1.542.226 2.368.356.412.06.826.162 1.246.26l1.288.301a45.866 45.866 0 0 1 5.442 1.82c.947.361 1.886.808 2.854 1.249.48.225.956.479 1.442.723l.728.374.722.406a48.547 48.547 0 0 1 5.806 3.728zM360.57 182.592c-.444 4.604-.26 8.757.237 11.711.24 1.481.533 2.66.705 3.488.172.827.257 1.331.115 1.407-.142.077-.467-.288-.929-1.039a16.84 16.84 0 0 1-1.448-3.456c-.947-3.05-1.403-7.549-.938-12.364.213-2.244.547-4.473.997-6.677.403-2.02.823-3.804 1.184-5.307.749-2.99 1.288-4.825 1.599-4.778.311.048.326 2.007-.024 5.101-.168 1.547-.429 3.373-.71 5.39-.281 2.016-.586 4.226-.788 6.524zM362.08 146.573c.58 1.574.9 3.245.945 4.936 0 1.297-.205 2.099-.51 2.137-.305.038-.666-.685-1.068-1.826-.403-1.141-.889-2.701-1.481-4.365-.296-.831-.616-1.611-.903-2.324l-.805-1.902c-.465-1.091-.731-1.842-.491-2.071.239-.228.941.152 1.806 1.088.5.551.944 1.157 1.326 1.807.468.798.861 1.642 1.181 2.52z" fill="#fff"/><path d="M229.149 154.712a99.82 99.82 0 0 1-.296-11.844c.113-1.82.184-3.551.388-5.155.092-.806.157-1.586.267-2.327l.337-2.134c.19-1.363.486-2.571.708-3.636.118-.533.219-1.031.331-1.481l.344-1.227c.417-1.474.669-2.276.719-2.26.05.016-.106.849-.435 2.339l-.278 1.24c-.092.457-.169.951-.267 1.487-.183 1.068-.438 2.276-.592 3.633l-.296 2.124c-.092.739-.142 1.516-.219 2.311-.178 1.586-.222 3.313-.317 5.117-.094 3.914.023 7.831.352 11.731.371 4.153.974 8.078 1.623 11.625l.512 2.587c.08.422.166.831.264 1.233l.269 1.192c.181.78.337 1.541.521 2.261l.524 2.073c.317 1.329.666 2.508.947 3.554l.397 1.455.355 1.218c.421 1.465.631 2.286.593 2.305-.039.019-.353-.768-.859-2.22l-.417-1.198c-.149-.441-.297-.923-.459-1.439-.32-1.037-.705-2.22-1.057-3.532l-.572-2.07c-.198-.72-.37-1.481-.565-2.261l-.296-1.195c-.101-.403-.196-.815-.296-1.236l-.545-2.594a115.94 115.94 0 0 1-1.685-11.676z" fill="#516D7B"/><path d="M232.302 137.932a60.846 60.846 0 0 1 1.161-6.341c.246-.951.474-1.873.737-2.71.13-.419.243-.831.373-1.215l.382-1.106c.234-.707.495-1.328.711-1.88.109-.273.21-.529.296-.761l.296-.634c.349-.751.565-1.154.613-1.132.112.054-.554 1.76-1.416 4.591l-.331 1.113c-.116.386-.213.795-.329 1.214-.237.837-.438 1.744-.663 2.698a73.623 73.623 0 0 0-1.089 6.277c-.288 2.245-.415 4.401-.48 6.363 0 .983-.041 1.902-.018 2.787 0 .437 0 .859.021 1.268l.047 1.167c.139 2.97.367 4.806.246 4.825-.05 0-.16-.441-.317-1.268l-.124-.688c-.042-.251-.074-.527-.113-.821-.074-.59-.174-1.269-.228-2.014l-.097-1.176c-.033-.409-.042-.837-.065-1.268-.051-.884-.048-1.829-.054-2.822.033-2.163.18-4.322.441-6.467zM275.809 97.526a37.56 37.56 0 0 1 5.545 7.609c.719 1.268 1.308 2.536 1.841 3.719.533 1.182.954 2.33 1.309 3.382a43.252 43.252 0 0 1 1.415 5.073c.255 1.22.34 1.902.296 1.902-.044 0-.24-.634-.592-1.832a68.424 68.424 0 0 0-1.628-4.946 54.067 54.067 0 0 0-1.377-3.301 38.886 38.886 0 0 0-1.871-3.623 38.829 38.829 0 0 0-5.477-7.403 34.117 34.117 0 0 0-3.494-3.148 30.712 30.712 0 0 0-3.606-2.422l-.888-.495c-.296-.158-.592-.295-.888-.444-.592-.317-1.17-.526-1.726-.776-.557-.25-1.116-.431-1.652-.61-.536-.177-1.051-.351-1.554-.462-1.58-.424-3.19-.7-4.814-.824a8.4 8.4 0 0 0-.767-.054l-.563-.035c-.296-.025-.467-.05-.467-.076 0-.025.159-.057.464-.086l.569-.044c.258-.021.517-.027.776-.02 1.655.005 3.306.201 4.923.584.518.099 1.042.276 1.599.422.556.146 1.116.368 1.702.577.586.21 1.184.456 1.776.755.296.142.61.278.915.437l.921.491a29.885 29.885 0 0 1 3.715 2.438 33.2 33.2 0 0 1 3.598 3.212z" fill="#516D7B"/><path d="M279.095 108.983a32.546 32.546 0 0 1 2.182 6.233c.215.941.383 1.894.503 2.854.05.453.124.884.148 1.306l.059 1.214c.038.694.038 1.389 0 2.083 0 .317-.018.593-.038.853l-.089.713c-.113.856-.199 1.319-.252 1.313-.053-.007-.065-.486-.041-1.335l.023-.707c0-.26-.014-.539-.023-.84-.027-.603 0-1.291-.101-2.042l-.107-1.183c-.038-.409-.127-.83-.189-1.268-.11-.881-.343-1.8-.557-2.771-1.05-4.199-2.929-8.11-5.509-11.467-.613-.751-1.185-1.487-1.777-2.098-.296-.317-.568-.634-.855-.904l-.838-.78c-.518-.52-1.051-.903-1.48-1.268-.225-.18-.43-.361-.625-.51l-.551-.39c-.66-.476-1.015-.764-.992-.815.024-.05.43.146 1.143.545l.592.336c.214.133.43.295.672.46.552.368 1.083.77 1.59 1.205l.888.757c.296.267.593.584.906.891a26.244 26.244 0 0 1 1.88 2.099 31.316 31.316 0 0 1 3.438 5.516zM247.71 267.329a125.655 125.655 0 0 1-.494 9.58 110.876 110.876 0 0 1-1.185 8.849l-.384 2.07c-.134.678-.296 1.344-.43 2.004-.269 1.318-.619 2.577-.92 3.804-.16.609-.341 1.202-.507 1.788-.166.587-.319 1.164-.512 1.715l-.533 1.633-.26.789-.279.761c-.373 1.002-.704 1.963-1.086 2.854-.382.89-.693 1.734-1.063 2.495-.37.76-.675 1.483-.995 2.133l-.906 1.753c-.139.264-.263.514-.391.742l-.367.634-.592.993c-.145.283-.32.547-.521.789.1-.306.231-.6.391-.875l.521-1.027.338-.653c.115-.235.23-.488.358-.758l.841-1.778c.296-.657.592-1.38.932-2.15.341-.77.649-1.617 1.001-2.501.352-.885.675-1.846 1.03-2.854l.267-.761.245-.786.507-1.626c.18-.552.319-1.129.485-1.709.166-.58.332-1.173.483-1.779.296-1.22.621-2.469.888-3.782.133-.653.296-1.315.408-1.991l.368-2.057c.458-2.784.888-5.707 1.128-8.788.239-3.082.429-6.249.473-9.511.036-6.143-.26-12.283-.888-18.388-.56-5.637-1.273-10.688-1.924-14.92-.652-4.232-1.229-7.653-1.62-10.018-.192-1.183-.343-2.102-.435-2.727a4.671 4.671 0 0 1-.104-.951c.116.299.201.611.252.929.139.615.338 1.525.574 2.698.48 2.346 1.137 5.751 1.857 9.98.719 4.23 1.48 9.283 2.09 14.939.673 6.126.993 12.29.959 18.458zM255.331 318.62a54.209 54.209 0 0 0 4.257-8.275l.74-1.972.181-.475c.056-.159.1-.317.151-.479l.296-.951c.183-.618.391-1.205.536-1.785l.405-1.674c.296-1.059.424-2.048.592-2.907.077-.431.16-.831.216-1.202l.128-1.017c.16-1.224.272-1.903.322-1.903.051 0 .039.692-.029 1.934l-.062 1.037c-.036.377-.101.783-.157 1.221a31.512 31.512 0 0 1-.489 2.964l-.364 1.709c-.133.593-.329 1.192-.5 1.823l-.276.951c-.047.161-.088.317-.145.488l-.174.488-.723 2.045c-2.299 5.95-5.739 11.315-10.098 15.75l-1.498 1.446-.362.349c-.121.114-.251.215-.376.317l-.737.634c-.488.399-.938.808-1.409 1.154l-1.359.979a26.795 26.795 0 0 1-2.407 1.554c-.361.216-.693.425-1.009.596l-.889.434c-1.059.517-1.652.777-1.675.726-.024-.05.53-.405 1.539-1.005l.841-.494c.296-.19.622-.419.968-.634.687-.476 1.501-.951 2.321-1.636l1.312-1.008c.453-.352.888-.771 1.362-1.177l.713-.634c.119-.107.246-.209.364-.317l.35-.352 1.453-1.448c2.096-2.232 4-4.658 5.691-7.254zM258.67 295.197c.192-1.319.314-2.584.388-3.738.026-.577.062-1.129.065-1.642.003-.514.015-.996 0-1.436 0-1.757-.083-2.854.029-2.854.113 0 .353 1.059.504 2.854.035.443.071.932.08 1.458.009.526 0 1.087 0 1.68a31.557 31.557 0 0 1-1.134 7.587c-.166.564-.32 1.103-.495 1.585-.174.482-.337.951-.5 1.36-.663 1.642-1.223 2.574-1.306 2.536-.082-.038.297-1.068.809-2.732.13-.416.272-.872.405-1.367.134-.494.276-1.024.418-1.585.281-1.145.527-2.387.737-3.706zM323.762 127.697a73.815 73.815 0 0 0 7.875 1.465c1.223.133 2.383.279 3.479.339.544.035 1.071.089 1.581.108l1.459.054c.93.05 1.777.028 2.514.038h1.033l.867-.022c1.046-.019 1.626 0 1.629.05.003.051-.569.146-1.614.263l-.867.092c-.317.026-.663.042-1.036.061-.744.034-1.593.098-2.532.082h-1.48c-.512 0-1.045-.041-1.596-.063-1.104-.032-2.279-.156-3.517-.27a60.015 60.015 0 0 1-15.712-3.906c-1.157-.482-2.265-.925-3.256-1.417-.504-.241-.998-.46-1.46-.697l-1.323-.695c-.85-.428-1.584-.887-2.239-1.268-.325-.193-.63-.371-.906-.545l-.743-.495c-.888-.596-1.364-.951-1.338-.998.027-.048.554.212 1.48.723l.77.428.93.481c.669.343 1.415.761 2.271 1.151l1.332.634c.465.222.959.422 1.462.634 1.007.463 2.108.879 3.257 1.335a74.638 74.638 0 0 0 7.68 2.438z" fill="#516D7B"/><path d="M338.055 127.067a65.02 65.02 0 0 0 5.226.336c.805 0 1.569.026 2.285 0 .717-.025 1.383-.031 1.993-.06 2.436-.114 3.943-.279 3.961-.155.018.124-1.48.463-3.923.726-.612.063-1.285.127-2.007.158-.722.032-1.498.061-2.312.073-1.628 0-3.423-.076-5.297-.275a48.23 48.23 0 0 1-5.237-.875c-.796-.191-1.551-.365-2.25-.571-.699-.206-1.35-.396-1.936-.59-2.351-.786-3.739-1.468-3.707-1.56.033-.092 1.48.371 3.849 1.009.592.158 1.237.317 1.939.488.702.171 1.451.317 2.238.491 1.584.311 3.331.596 5.178.805zM311.2 84.306a49.568 49.568 0 0 1 4.784-2.555c.758-.337 1.48-.663 2.167-.923.343-.133.672-.27.995-.384l.926-.317c2.369-.795 3.888-1.074 3.908-.98.021.096-1.432.597-3.733 1.522l-.888.368c-.314.127-.634.28-.968.425-.672.285-1.371.634-2.114.98a60.097 60.097 0 0 0-4.693 2.577 56.836 56.836 0 0 0-4.44 3.025c-.658.507-1.291.976-1.863 1.452a29.86 29.86 0 0 0-.832.678l-.752.634c-1.912 1.655-3.034 2.765-3.117 2.676-.083-.089.927-1.325 2.771-3.11l.731-.691c.255-.238.533-.473.814-.723.56-.504 1.185-1.002 1.842-1.531a50.744 50.744 0 0 1 4.462-3.123zM318.903 83.402a28.83 28.83 0 0 1 2.96-1.204 24.05 24.05 0 0 1 2.511-.701c1.448-.317 2.368-.361 2.368-.26.045.244-3.52.951-7.555 2.907s-6.937 4.258-7.076 4.061c-.059-.079.592-.776 1.776-1.718a25.469 25.469 0 0 1 2.168-1.528 29.452 29.452 0 0 1 2.848-1.557zM385.111 176.637a105.957 105.957 0 0 0-1.993 24.298c.107 3.129.329 5.655.483 7.402.154 1.747.263 2.714.21 2.72a2.458 2.458 0 0 1-.169-.684 54.515 54.515 0 0 1-.331-1.994 88.98 88.98 0 0 1-.723-7.419 97.908 97.908 0 0 1 1.777-24.497c.488-2.349 1.021-4.632 1.628-6.804.607-2.171 1.214-4.251 1.776-6.236.563-1.984 1.072-3.874 1.481-5.662.216-.891.373-1.76.544-2.593a25.21 25.21 0 0 0 .379-2.416c.347-2.437.421-4.909.222-7.365-.053-.872-.171-1.541-.228-1.997a2.49 2.49 0 0 1-.05-.71c.098.212.166.44.201.675.166.655.291 1.321.371 1.994.316 2.479.319 4.992.014 7.473-.068.789-.216 1.601-.334 2.457a28.528 28.528 0 0 1-.509 2.631c-.379 1.813-.871 3.722-1.416 5.707l-1.729 6.245a112.532 112.532 0 0 0-1.604 6.775zM388.788 300.942a110.152 110.152 0 0 0 4.482 11.299l1.184 2.448c.37.802.803 1.54 1.185 2.273.382.733.752 1.443 1.136 2.105l1.114 1.903c.686 1.226 1.397 2.273 1.986 3.217.296.47.572.913.832 1.31l.734 1.075c.889 1.296 1.347 2.029 1.309 2.063-.039.035-.592-.634-1.54-1.873l-.79-1.037c-.281-.387-.568-.818-.888-1.268-.625-.926-1.371-1.956-2.09-3.17l-1.161-1.887c-.4-.659-.773-1.369-1.184-2.095-.412-.727-.841-1.469-1.226-2.271l-1.226-2.451a94.309 94.309 0 0 1-7.647-23.305l-.473-2.736c-.169-.884-.252-1.756-.371-2.593a47.256 47.256 0 0 1-.296-2.429l-.195-2.247c-.148-1.43-.169-2.733-.219-3.874-.021-.571-.047-1.101-.053-1.586v-1.337c.02-1.608.056-2.496.106-2.496.051 0 .116.888.187 2.486l.053 1.332c.027.485.077 1.014.115 1.585.092 1.132.151 2.425.329 3.842l.243 2.219c.086.774.225 1.586.34 2.404.116.817.225 1.692.406 2.567l.503 2.708a111.793 111.793 0 0 0 3.115 11.819zM382.547 285.667c.408 2.14.864 4.163 1.311 5.995.234.913.447 1.782.675 2.59.228.809.433 1.56.631 2.245.796 2.736 1.35 4.413 1.243 4.461-.106.047-.817-1.57-1.749-4.277a71.227 71.227 0 0 1-.723-2.219c-.242-.799-.491-1.674-.746-2.591a87.603 87.603 0 0 1-1.379-6.023 83.714 83.714 0 0 1-.924-6.132c-.098-.951-.198-1.848-.255-2.694-.056-.847-.112-1.633-.148-2.356-.127-2.882-.038-4.667.054-4.67.091-.003.216 1.772.479 4.626.068.713.139 1.493.237 2.33.098.837.204 1.728.323 2.666.251 1.855.571 3.906.971 6.049zM358.545 319.403a33.071 33.071 0 0 0 4.787 3.17c.788.39 1.525.787 2.251 1.072.361.149.701.317 1.042.434l.98.346c.618.241 1.202.377 1.705.529.255.073.488.149.705.203l.592.137c.722.171 1.122.291 1.116.348-.006.057-.418.041-1.164-.038l-.618-.07c-.225-.034-.468-.088-.729-.139a17.09 17.09 0 0 1-1.776-.422l-1.016-.317c-.352-.108-.707-.26-1.08-.399-.752-.263-1.519-.634-2.333-1.027-3.503-1.766-6.623-4.303-9.154-7.439-.563-.735-1.114-1.423-1.552-2.13-.225-.349-.456-.673-.648-1.005l-.545-.951a19.511 19.511 0 0 1-.852-1.706c-.116-.257-.231-.492-.323-.713l-.228-.635c-.27-.748-.394-1.169-.346-1.188.047-.019.266.358.612 1.055l.296.584c.11.209.24.431.373.672.273.478.551 1.043.936 1.617l.574.916c.202.317.441.634.672.951.45.672 1.004 1.328 1.57 2.032a34.172 34.172 0 0 0 4.153 4.113zM369.482 320.95a48.401 48.401 0 0 0 5.726 2.137c.903.251 1.758.504 2.572.676.406.091.797.193 1.185.266l1.092.203c.696.146 1.332.215 1.889.317l.776.117.657.076c.787.095 1.226.175 1.226.232 0 .057-.444.082-1.244.082h-.666c-.243 0-.506-.032-.79-.051-.566-.047-1.214-.076-1.925-.187l-1.116-.155c-.388-.057-.785-.146-1.202-.225-.832-.146-1.705-.381-2.629-.612a39.3 39.3 0 0 1-11.315-5.152c-.797-.548-1.561-1.062-2.236-1.601-.34-.267-.678-.511-.982-.771l-.889-.752c-.565-.469-1.036-.951-1.462-1.35-.21-.206-.409-.393-.592-.574l-.465-.51c-.554-.619-.844-.977-.805-1.015.038-.038.393.241 1.006.783l.506.454.619.516c.447.368.936.812 1.516 1.243l.888.701c.311.244.652.472.995.723.681.51 1.445.993 2.238 1.516a50.142 50.142 0 0 0 5.427 2.913z" fill="#516D7B"/><path d="M327.1 260.919c-.097 8.433-6.489 15.465-14.441 15.465-7.952 0-14.344-7.032-14.442-15.465-.03-2.447-3.582-2.454-3.553 0 .035 3.946 1.186 7.787 3.298 11.019 2.114 3.232 5.093 5.703 8.545 7.087 6.963 2.777 15.158.406 19.904-5.707 2.709-3.484 4.207-7.865 4.242-12.399.03-2.447-3.523-2.451-3.553 0zM272.541 337.224c.669 7.241 4.304 13.696 9.536 18.261 5.921 5.168 13.305 7.659 20.789 8.721 14.945 2.118 31.746.346 44.358-9.194 6.262-4.726 11.251-11.07 14.037-18.749.829-2.283-2.606-3.272-3.426-1.011-4.737 13.058-16.674 21.159-28.993 24.174-7.126 1.743-14.551 2.019-21.825 1.423-6.978-.571-14.122-2.194-20.094-6.28-5.598-3.833-10.164-10.117-10.833-17.361-.222-2.413-3.777-2.438-3.552 0l.003.016z" fill="#385868"/><path d="M209.575 391.659h218.026c2.221 0 4.349.945 5.919 2.625 1.569 1.681 2.451 3.96 2.451 6.338v149.976c0 1.42-.527 2.783-1.466 3.791-.938 1.005-2.214 1.57-3.54 1.57H206.211c-1.327 0-2.601-.565-3.54-1.57-.939-1.008-1.466-2.371-1.466-3.791V400.622c0-2.378.882-4.657 2.451-6.338 1.57-1.68 3.699-2.625 5.919-2.625z" fill="#256075"/><path d="M427.471 391.297H210.999c-5.054 0-9.148 4.14-9.148 9.245v4.879c0-5.105 4.094-9.245 9.148-9.245h216.472c5.054 0 9.148 4.14 9.148 9.245v-4.879c0-5.108-4.094-9.245-9.148-9.245z" fill="#347888"/><path d="M438.144 557.54h-237.78V400.377c.003-2.733 1.017-5.352 2.82-7.282 1.803-1.931 4.249-3.019 6.799-3.022h218.545c2.552.003 4.995 1.091 6.801 3.022 1.803 1.93 2.815 4.549 2.818 7.282l-.003 157.163zm-234.819-3.171h231.858V400.377c-.002-1.893-.704-3.703-1.951-5.041-1.249-1.338-2.942-2.089-4.707-2.092H209.983c-1.765.003-3.458.754-4.707 2.092-1.248 1.338-1.95 3.148-1.951 5.041v153.992zM151.952 538.718c-3.88-.013-7.67-1.255-10.891-3.573-3.221-2.317-5.728-5.605-7.206-9.447a22.418 22.418 0 0 1-1.094-12.143c.764-4.074 2.638-7.812 5.386-10.747 2.748-2.933 6.246-4.93 10.052-5.735a18.422 18.422 0 0 1 11.335 1.204c3.584 1.595 6.647 4.29 8.802 7.745 2.155 3.456 3.304 7.517 3.304 11.674-.013 5.579-2.093 10.928-5.784 14.868-3.691 3.941-8.691 6.154-13.904 6.154zm0-36.335c-2.826.009-5.586.919-7.931 2.609-2.344 1.69-4.169 4.087-5.243 6.886a16.34 16.34 0 0 0-.79 8.845c.558 2.968 1.925 5.691 3.928 7.828 2.003 2.133 4.552 3.589 7.325 4.172 2.773.586 5.646.279 8.256-.881 2.61-1.164 4.84-3.126 6.409-5.644 1.569-2.517 2.406-5.478 2.405-8.502-.012-4.068-1.531-7.967-4.223-10.837-2.691-2.869-6.336-4.479-10.136-4.476z" fill="#385868"/><path d="M160.094 502.082v7.013c-1.776 21.032-19.389 37.549-40.856 37.549-21.467 0-39.08-16.517-40.856-37.549v-7.013c.17-2.042.492-4.065.962-6.049.2-.847.659-1.598 1.302-2.137a3.517 3.517 0 0 1 2.25-.831h72.671c.816 0 1.608.295 2.251.831a3.97 3.97 0 0 1 1.302 2.137c.474 1.984.8 4.007.974 6.049z" fill="#68B9E1"/><path d="M160.094 494.65c.001.958-.091 1.915-.272 2.854h-45.665c0 5.602-3.94 10.145-8.801 10.145h-.551a8.049 8.049 0 0 1-3.399-.786 8.55 8.55 0 0 1-2.818-2.185c-1.674-1.959-2.596-4.521-2.579-7.174H78.95a14.959 14.959 0 0 1-.272-2.854h81.416z" fill="#ACD8F8"/><path d="M119.534 548.228a42.276 42.276 0 0 1-28.78-11.273c-7.86-7.27-12.654-17.095-13.55-27.718V501.938c.18-2.124.517-4.229 1.009-6.296a5.566 5.566 0 0 1 1.824-2.996 4.957 4.957 0 0 1 3.155-1.167h72.671c1.146 0 2.26.409 3.165 1.164a5.565 5.565 0 0 1 1.83 2.999c.49 2.067.827 4.172 1.006 6.296V509.237c-.888 10.623-5.711 20.467-13.55 27.718a42.33 42.33 0 0 1-28.78 11.273zm-39.376-39.207c.844 9.774 5.29 18.838 12.532 25.534a39.429 39.429 0 0 0 26.844 10.503c9.986 0 19.522-3.728 26.843-10.503 7.239-6.696 11.689-15.76 12.533-25.534v-6.867a39.573 39.573 0 0 0-.924-5.729 2.38 2.38 0 0 0-.778-1.277 2.096 2.096 0 0 0-1.345-.495h-72.67c-.488 0-.961.174-1.346.495-.384.323-.658.77-.777 1.277a39.45 39.45 0 0 0-.924 5.729l.012 6.867z" fill="#385868"/><path d="M75.42 542.205h87.634c0 3.446-1.279 6.753-3.555 9.191-2.276 2.438-5.364 3.807-8.583 3.807H87.559c-3.219 0-6.306-1.369-8.583-3.807-2.276-2.438-3.555-5.745-3.555-9.191z" fill="#68B9E1"/><path d="M161.279 542.839c-.004.96-.103 1.915-.297 2.853h-47.476c0 5.602-4.1 10.145-9.154 10.145h-.571a8.491 8.491 0 0 1-3.521-.776 9.028 9.028 0 0 1-2.954-2.194c-1.73-1.928-2.69-4.502-2.68-7.175h-17.74a14.397 14.397 0 0 1-.295-2.853h84.688z" fill="#ACD8F8"/><path d="M151.213 556.789H87.856c-3.61-.003-7.072-1.544-9.625-4.277-2.554-2.733-3.99-6.442-3.994-10.307v-1.585h90.594v1.585c-.003 3.865-1.44 7.574-3.993 10.307-2.553 2.733-6.015 4.274-9.625 4.277zM77.302 543.79c.36 2.724 1.625 5.219 3.564 7.023 1.939 1.807 4.42 2.802 6.99 2.805h63.357c2.569-.003 5.05-1.001 6.989-2.805 1.939-1.804 3.205-4.299 3.565-7.023H77.302zM160.094 502.418h-21.613v2.219h21.613v-2.219z" fill="#385868"/><g opacity=".4" fill="#fff"><path opacity=".4" d="M279.966 236.741c6.339 0 11.478-2.981 11.478-6.658 0-3.676-5.139-6.657-11.478-6.657-6.34 0-11.479 2.981-11.479 6.657 0 3.677 5.139 6.658 11.479 6.658zM345.315 236.741c6.339 0 11.478-2.981 11.478-6.658 0-3.676-5.139-6.657-11.478-6.657-6.338 0-11.478 2.981-11.478 6.657 0 3.677 5.14 6.658 11.478 6.658z"/></g></g></g><defs><clipPath id="a"><path fill="#fff" d="M0 0h601v558.93H0z"/></clipPath></defs></svg>