<svg width="601" height="559" viewBox="0 0 601 559" fill="none" xmlns="http://www.w3.org/2000/svg">
<g clip-path="url(#clip0_304_1179)">
<mask id="mask0_304_1179" style="mask-type:luminance" maskUnits="userSpaceOnUse" x="0" y="0" width="601" height="559">
<path d="M600.873 0H0V558.689H600.873V0Z" fill="white"/>
</mask>
<g mask="url(#mask0_304_1179)">
<g opacity="0.2">
<path opacity="0.2" d="M455.928 63.6182H149.524V403.276H455.928V63.6182Z" fill="#D9FAFF"/>
<path opacity="0.2" d="M278.201 70.3516L230.944 229.598H204.07L251.33 70.3516H278.201Z" fill="white"/>
<path opacity="0.2" d="M236.717 70.3516L189.46 229.598H173.902L221.156 70.3516H236.717Z" fill="white"/>
<path opacity="0.2" d="M437.243 68.9102L389.984 228.156H363.113L410.373 68.9102H437.243Z" fill="white"/>
<path opacity="0.2" d="M395.757 68.9102L348.503 228.156H332.945L380.199 68.9102H395.757Z" fill="white"/>
<path opacity="0.2" d="M437.243 239.702L389.984 398.945H363.113L410.373 239.702H437.243Z" fill="white"/>
<path opacity="0.2" d="M395.757 239.702L348.503 398.945H332.945L380.199 239.702H395.757Z" fill="white"/>
<path opacity="0.2" d="M278.201 239.702L230.944 398.945H204.07L251.33 239.702H278.201Z" fill="white"/>
<path opacity="0.2" d="M236.717 239.702L189.46 398.945H173.902L221.156 239.702H236.717Z" fill="white"/>
<path opacity="0.2" d="M308.118 404.107V70.004C308.118 68.6031 307.058 67.4678 305.75 67.4678H299.254C297.946 67.4678 296.886 68.6031 296.886 70.004V404.107C296.886 405.508 297.946 406.643 299.254 406.643H305.75C307.058 406.643 308.118 405.508 308.118 404.107Z" fill="#E2B38E"/>
<path opacity="0.2" d="M144.137 69.0431V403.147C144.137 404.548 145.197 405.683 146.505 405.683H153.001C154.309 405.683 155.369 404.548 155.369 403.147V69.0431C155.369 67.6424 154.309 66.5068 153.001 66.5068H146.505C145.197 66.5068 144.137 67.6424 144.137 69.0431Z" fill="#E2B38E"/>
<path opacity="0.2" d="M450.537 69.0431V403.147C450.537 404.548 451.597 405.683 452.906 405.683H459.401C460.71 405.683 461.77 404.548 461.77 403.147V69.0431C461.77 67.6424 460.71 66.5068 459.401 66.5068H452.906C451.597 66.5068 450.537 67.6424 450.537 69.0431Z" fill="#E2B38E"/>
<path opacity="0.2" d="M305.299 408.229H298.804C297.782 408.229 296.805 407.794 296.083 407.021C295.36 406.247 294.955 405.201 294.955 404.107V70.0042C294.955 68.9111 295.36 67.8627 296.083 67.0898C296.805 66.3168 297.782 65.8828 298.804 65.8828H305.299C306.321 65.8828 307.298 66.3168 308.02 67.0898C308.743 67.8627 309.148 68.9111 309.148 70.0042V404.107C309.148 405.201 308.743 406.247 308.02 407.021C307.298 407.794 306.321 408.229 305.299 408.229ZM298.807 69.0531C298.57 69.0531 298.345 69.1533 298.179 69.3315C298.013 69.51 297.919 69.7519 297.919 70.0042V404.107C297.919 404.358 298.013 404.602 298.179 404.779C298.345 404.957 298.57 405.058 298.807 405.058H305.302C305.539 405.058 305.764 404.957 305.93 404.779C306.096 404.602 306.191 404.358 306.191 404.107V70.0042C306.191 69.7519 306.096 69.51 305.93 69.3315C305.764 69.1533 305.539 69.0531 305.302 69.0531H298.807Z" fill="#385868"/>
<path opacity="0.2" d="M152.547 407.267H146.055C145.034 407.267 144.055 406.833 143.333 406.059C142.611 405.286 142.206 404.24 142.206 403.146V69.0423C142.206 67.9495 142.611 66.9011 143.333 66.1282C144.055 65.3552 145.034 64.9209 146.055 64.9209H152.55C153.571 64.9209 154.55 65.3552 155.272 66.1282C155.994 66.9011 156.399 67.9495 156.399 69.0423V403.146C156.399 403.688 156.299 404.224 156.106 404.722C155.912 405.222 155.628 405.679 155.271 406.059C154.913 406.443 154.488 406.747 154.021 406.953C153.554 407.16 153.053 407.267 152.547 407.267ZM146.055 68.0912C145.819 68.0912 145.593 68.1914 145.427 68.3699C145.26 68.5484 145.167 68.7903 145.167 69.0423V403.146C145.167 403.396 145.26 403.64 145.427 403.818C145.593 403.996 145.819 404.097 146.055 404.097H152.55C152.786 404.097 153.012 403.996 153.178 403.818C153.345 403.64 153.439 403.396 153.439 403.146V69.0423C153.439 68.7903 153.345 68.5484 153.178 68.3699C153.012 68.1914 152.786 68.0912 152.55 68.0912H146.055Z" fill="#385868"/>
<path opacity="0.2" d="M458.951 407.267H452.455C451.434 407.267 450.457 406.833 449.734 406.059C449.012 405.286 448.606 404.24 448.606 403.146V69.0423C448.606 67.9495 449.012 66.9011 449.734 66.1282C450.457 65.3552 451.434 64.9209 452.455 64.9209H458.951C459.972 64.9209 460.949 65.3552 461.672 66.1282C462.394 66.9011 462.8 67.9495 462.8 69.0423V403.146C462.8 404.24 462.394 405.286 461.672 406.059C460.949 406.833 459.972 407.267 458.951 407.267ZM452.455 68.0912C452.218 68.0912 451.993 68.1914 451.828 68.3699C451.662 68.5484 451.567 68.7903 451.567 69.0423V403.146C451.567 403.396 451.662 403.64 451.828 403.818C451.993 403.996 452.218 404.097 452.455 404.097H458.951C459.188 404.097 459.413 403.996 459.578 403.818C459.744 403.64 459.839 403.396 459.839 403.146V69.0423C459.839 68.7903 459.744 68.5484 459.578 68.3699C459.413 68.1914 459.188 68.0912 458.951 68.0912H452.455Z" fill="#385868"/>
<path opacity="0.2" d="M462.095 57.3633H144.714C143.406 57.3633 142.346 58.4986 142.346 59.8995V66.8553C142.346 68.2559 143.406 69.3915 144.714 69.3915H462.095C463.404 69.3915 464.464 68.2559 464.464 66.8553V59.8995C464.464 58.4986 463.404 57.3633 462.095 57.3633Z" fill="#E2B38E"/>
<path opacity="0.2" d="M461.639 70.9769H144.264C143.243 70.9769 142.264 70.5426 141.542 69.7696C140.82 68.9967 140.415 67.9483 140.415 66.8555V59.8998C140.415 58.8066 140.82 57.7582 141.542 56.9853C142.264 56.2123 143.243 55.7783 144.264 55.7783H461.639C462.661 55.7783 463.638 56.2123 464.36 56.9853C465.082 57.7582 465.488 58.8066 465.488 59.8998V66.8555C465.488 67.9483 465.082 68.9967 464.36 69.7696C463.638 70.5426 462.661 70.9769 461.639 70.9769ZM144.264 58.9487C144.028 58.9487 143.802 59.0488 143.636 59.227C143.469 59.4055 143.376 59.6474 143.376 59.8998V66.8555C143.376 67.1075 143.469 67.3494 143.636 67.5279C143.802 67.7061 144.028 67.8066 144.264 67.8066H461.639C461.876 67.8066 462.101 67.7061 462.267 67.5279C462.433 67.3494 462.527 67.1075 462.527 66.8555V59.8998C462.527 59.6474 462.433 59.4055 462.267 59.227C462.101 59.0488 461.876 58.9487 461.639 58.9487H144.264Z" fill="#385868"/>
<path opacity="0.2" d="M462.095 397.021H144.714C143.406 397.021 142.346 398.156 142.346 399.558V406.513C142.346 407.915 143.406 409.05 144.714 409.05H462.095C463.404 409.05 464.464 407.915 464.464 406.513V399.558C464.464 398.156 463.404 397.021 462.095 397.021Z" fill="#E2B38E"/>
<path opacity="0.2" d="M461.639 410.634H144.264C143.243 410.634 142.264 410.2 141.542 409.426C140.82 408.653 140.415 407.603 140.415 406.513V399.557C140.415 398.463 140.82 397.414 141.542 396.64C142.264 395.87 143.243 395.436 144.264 395.436H461.639C462.661 395.436 463.638 395.87 464.36 396.64C465.082 397.414 465.488 398.463 465.488 399.557V406.513C465.488 407.603 465.082 408.653 464.36 409.426C463.638 410.2 462.661 410.634 461.639 410.634ZM144.264 398.606C144.028 398.606 143.802 398.704 143.636 398.885C143.469 399.062 143.376 399.303 143.376 399.557V406.513C143.376 406.763 143.469 407.007 143.636 407.185C143.802 407.362 144.028 407.464 144.264 407.464H461.639C461.876 407.464 462.101 407.362 462.267 407.185C462.433 407.007 462.527 406.763 462.527 406.513V399.557C462.527 399.303 462.433 399.062 462.267 398.885C462.101 398.704 461.876 398.606 461.639 398.606H144.264Z" fill="#385868"/>
<path opacity="0.2" d="M462.095 228.635H144.714C143.406 228.635 142.346 229.77 142.346 231.171V238.127C142.346 239.527 143.406 240.663 144.714 240.663H462.095C463.404 240.663 464.464 239.527 464.464 238.127V231.171C464.464 229.77 463.404 228.635 462.095 228.635Z" fill="#E2B38E"/>
<path opacity="0.2" d="M461.639 242.248H144.264C143.243 242.248 142.264 241.814 141.542 241.041C140.82 240.268 140.415 239.22 140.415 238.127V231.171C140.415 230.078 140.82 229.03 141.542 228.257C142.264 227.484 143.243 227.05 144.264 227.05H461.639C462.661 227.05 463.638 227.484 464.36 228.257C465.082 229.03 465.488 230.078 465.488 231.171V238.127C465.488 239.22 465.082 240.268 464.36 241.041C463.638 241.814 462.661 242.248 461.639 242.248ZM144.264 230.22C144.028 230.22 143.802 230.32 143.636 230.499C143.469 230.677 143.376 230.919 143.376 231.171V238.127C143.376 238.379 143.469 238.621 143.636 238.799C143.802 238.978 144.028 239.078 144.264 239.078H461.639C461.876 239.078 462.101 238.978 462.267 238.799C462.433 238.621 462.527 238.379 462.527 238.127V231.171C462.527 230.919 462.433 230.677 462.267 230.499C462.101 230.32 461.876 230.22 461.639 230.22H144.264Z" fill="#385868"/>
</g>
<g opacity="0.2">
<path opacity="0.2" d="M44.8174 332.935V335.471H81.5287V332.935H44.8174Z" fill="#385868"/>
<path opacity="0.2" d="M92.7733 343.653L92.7617 346.19L129.473 346.38L129.484 343.844L92.7733 343.653Z" fill="#385868"/>
<path opacity="0.2" d="M46.9844 363.18L46.7715 385.974L49.14 386L49.3528 363.205L46.9844 363.18Z" fill="#385868"/>
<path opacity="0.2" d="M96.8886 322.387L96.6758 345.181L99.0443 345.207L99.2571 322.412L96.8886 322.387Z" fill="#385868"/>
<path opacity="0.2" d="M64.2562 353.304H110.373C113.441 353.304 115.927 350.641 115.927 347.356V341.688C115.927 338.403 113.441 335.74 110.373 335.74H64.2562C61.1887 335.74 58.7021 338.403 58.7021 341.688V347.356C58.7021 350.641 61.1887 353.304 64.2562 353.304Z" fill="#F2F2F2"/>
<path opacity="0.2" d="M110.374 354.575H64.2451C62.4587 354.572 60.746 353.811 59.483 352.457C58.2197 351.106 57.5092 349.271 57.5068 347.359V341.694C57.5074 339.779 58.2177 337.943 59.481 336.589C60.7442 335.236 62.4575 334.475 64.2451 334.472H110.374C112.161 334.475 113.873 335.236 115.136 336.589C116.399 337.94 117.11 339.776 117.112 341.687V347.353C117.112 349.268 116.402 351.103 115.138 352.457C113.875 353.811 112.161 354.572 110.374 354.575ZM64.2451 337.008C63.0867 337.011 61.9761 337.503 61.1569 338.381C60.3378 339.259 59.8768 340.448 59.8753 341.687V347.353C59.8753 348.596 60.3354 349.784 61.1549 350.663C61.9741 351.544 63.0855 352.035 64.2451 352.039H110.374C111.533 352.035 112.643 351.544 113.462 350.666C114.281 349.788 114.742 348.599 114.744 347.359V341.694C114.744 340.451 114.284 339.262 113.464 338.384C112.645 337.503 111.533 337.011 110.374 337.008H64.2451Z" fill="#385868"/>
<path opacity="0.2" d="M24.8929 370.867H71.0101C74.0776 370.867 76.5642 368.204 76.5642 364.92V359.251C76.5642 355.967 74.0776 353.304 71.0101 353.304H24.8929C21.8255 353.304 19.3389 355.967 19.3389 359.251V364.92C19.3389 368.204 21.8255 370.867 24.8929 370.867Z" fill="#F2F2F2"/>
<path opacity="0.2" d="M71.0098 372.139H24.8956C24.0095 372.136 23.1323 371.949 22.314 371.584C21.4957 371.223 20.7523 370.69 20.1263 370.018C19.5003 369.346 19.004 368.55 18.6657 367.672C18.3273 366.794 18.1535 365.855 18.1543 364.907V359.242C18.1567 357.327 18.8673 355.495 20.1305 354.141C21.3937 352.79 23.1062 352.03 24.8926 352.026H71.0098C72.7962 352.03 74.5086 352.79 75.7719 354.141C77.0349 355.495 77.7457 357.327 77.7481 359.242V364.907C77.7496 366.822 77.0408 368.661 75.7769 370.015C74.5133 371.372 72.7986 372.136 71.0098 372.139ZM24.8956 354.575C23.7371 354.575 22.6265 355.07 21.8074 355.948C20.9882 356.823 20.5273 358.012 20.5257 359.255V364.907C20.5273 366.147 20.9882 367.336 21.8074 368.214C22.6265 369.092 23.7371 369.584 24.8956 369.587H71.0098C72.1683 369.584 73.2788 369.092 74.098 368.214C74.9172 367.336 75.3781 366.147 75.3796 364.907V359.242C75.3781 357.999 74.9172 356.81 74.098 355.935C73.2788 355.057 72.1683 354.563 71.0098 354.563L24.8956 354.575Z" fill="#385868"/>
</g>
<g opacity="0.2">
<path opacity="0.2" d="M26.749 70.7119V73.2482H63.4603V70.7119H26.749Z" fill="#385868"/>
<path opacity="0.2" d="M74.6193 80.1396L74.6074 82.6759L111.318 82.868L111.33 80.3318L74.6193 80.1396Z" fill="#385868"/>
<path opacity="0.2" d="M28.7851 99.2266L28.5723 122.021L30.9407 122.047L31.1535 99.2519L28.7851 99.2266Z" fill="#385868"/>
<path opacity="0.2" d="M78.6953 58.4395L78.4824 81.2342L80.8509 81.2595L81.0638 58.4648L78.6953 58.4395Z" fill="#385868"/>
<path opacity="0.2" d="M46.1019 89.8039H92.219C95.2865 89.8039 97.7731 87.1411 97.7731 83.8563V78.1878C97.7731 74.903 95.2865 72.2402 92.219 72.2402H46.1019C43.0344 72.2402 40.5479 74.903 40.5479 78.1878V83.8563C40.5479 87.1411 43.0344 89.8039 46.1019 89.8039Z" fill="#F2F2F2"/>
<path opacity="0.2" d="M92.2166 91.0684H46.1054C44.3205 91.0637 42.6104 90.3015 41.3489 88.9491C40.0877 87.5966 39.3783 85.7642 39.376 83.8528V78.1874C39.3783 76.2744 40.0889 74.4407 41.3522 73.0879C42.6155 71.7354 44.3279 70.9742 46.1143 70.9717H92.2166C94.003 70.9742 95.7154 71.7354 96.9787 73.0879C98.242 74.4407 98.9525 76.2744 98.9549 78.1874V83.8528C98.9525 85.7657 98.242 87.5998 96.9787 88.9522C95.7154 90.305 94.003 91.0659 92.2166 91.0684ZM46.1024 73.5048C44.9454 73.5099 43.8376 74.0054 43.0208 74.8829C42.2042 75.7605 41.7453 76.9487 41.7444 78.1874V83.8528C41.7459 85.0933 42.2069 86.2828 43.0261 87.1597C43.8453 88.037 44.9558 88.5306 46.1143 88.5322H92.2166C93.3751 88.5306 94.4856 88.037 95.3048 87.1597C96.124 86.2828 96.5849 85.0933 96.5864 83.8528V78.1874C96.5849 76.9468 96.124 75.7576 95.3048 74.8804C94.4856 74.0032 93.3751 73.5098 92.2166 73.5079L46.1024 73.5048Z" fill="#385868"/>
<path opacity="0.2" d="M6.73862 107.363H52.8557C55.9232 107.363 58.4098 104.701 58.4098 101.416V95.7474C58.4098 92.4629 55.9232 89.7998 52.8557 89.7998H6.73862C3.67121 89.7998 1.18457 92.4629 1.18457 95.7474V101.416C1.18457 104.701 3.67121 107.363 6.73862 107.363Z" fill="#F2F2F2"/>
<path opacity="0.2" d="M52.8525 108.635H6.73831C4.95141 108.632 3.23841 107.871 1.97516 106.517C0.711901 105.164 0.0015666 103.329 0 101.416V95.744C0.00235 93.831 0.713032 91.9973 1.9762 90.6445C3.23936 89.2921 4.95192 88.5309 6.73831 88.5283H52.8525C54.6395 88.5302 56.3528 89.2908 57.6164 90.6436C58.8802 91.9963 59.5914 93.8307 59.5938 95.744V101.409C59.5938 103.325 58.8838 105.161 57.6196 106.516C56.3555 107.871 54.641 108.633 52.8525 108.635ZM6.73831 91.0678C5.58036 91.0697 4.47023 91.5626 3.65115 92.4392C2.83206 93.3155 2.37082 94.5041 2.36847 95.744V101.409C2.37004 102.65 2.83094 103.839 3.65008 104.716C4.46925 105.594 5.57983 106.087 6.73831 106.089H52.8525C54.011 106.087 55.1215 105.594 55.9407 104.716C56.7599 103.839 57.2208 102.65 57.2223 101.409V95.744C57.2208 94.5034 56.7599 93.3142 55.9407 92.437C55.1215 91.5598 54.011 91.0665 52.8525 91.0646L6.73831 91.0678Z" fill="#385868"/>
</g>
<g opacity="0.2">
<path opacity="0.2" d="M516.534 344.896L516.522 347.433L553.237 347.623L553.246 345.087L516.534 344.896Z" fill="#385868"/>
<path opacity="0.2" d="M564.174 354.064L564.162 356.601L600.876 356.791L600.888 354.255L564.174 354.064Z" fill="#385868"/>
<path opacity="0.2" d="M519.175 373.594L518.962 396.388L521.33 396.414L521.544 373.619L519.175 373.594Z" fill="#385868"/>
<path opacity="0.2" d="M569.079 332.808L568.869 355.602L571.238 355.628L571.448 332.833L569.079 332.808Z" fill="#385868"/>
<path opacity="0.2" d="M535.648 363.718H581.765C584.832 363.718 587.319 361.055 587.319 357.77V352.102C587.319 348.817 584.832 346.154 581.765 346.154H535.648C532.581 346.154 530.094 348.817 530.094 352.102V357.77C530.094 361.055 532.581 363.718 535.648 363.718Z" fill="#F2F2F2"/>
<path opacity="0.2" d="M581.757 364.989H535.651C533.866 364.986 532.152 364.225 530.888 362.872C529.627 361.521 528.916 359.685 528.913 357.774V352.108C528.916 350.193 529.627 348.361 530.888 347.007C532.152 345.657 533.866 344.896 535.651 344.893H581.757C583.542 344.896 585.256 345.657 586.517 347.007C587.781 348.361 588.492 350.193 588.495 352.108V357.774C588.492 359.685 587.781 361.521 586.517 362.872C585.256 364.225 583.542 364.986 581.757 364.989ZM535.643 347.426C534.485 347.426 533.375 347.92 532.555 348.798C531.735 349.673 531.276 350.862 531.273 352.105V357.77C531.276 359.01 531.735 360.199 532.555 361.077C533.375 361.955 534.485 362.447 535.643 362.45H581.757C582.914 362.447 584.024 361.955 584.845 361.077C585.665 360.199 586.124 359.01 586.127 357.77V352.105C586.124 350.862 585.665 349.673 584.845 348.798C584.024 347.92 582.914 347.426 581.757 347.426H535.643Z" fill="#385868"/>
<path opacity="0.2" d="M496.285 381.285H542.402C545.469 381.285 547.956 378.622 547.956 375.338V369.669C547.956 366.385 545.469 363.722 542.402 363.722H496.285C493.217 363.722 490.73 366.385 490.73 369.669V375.338C490.73 378.622 493.217 381.285 496.285 381.285Z" fill="#F2F2F2"/>
<path opacity="0.2" d="M542.398 382.554H496.284C494.499 382.55 492.785 381.789 491.521 380.436C490.259 379.085 489.549 377.25 489.546 375.338V369.663C489.549 367.748 490.259 365.916 491.521 364.562C492.785 363.211 494.499 362.45 496.284 362.447H542.398C544.184 362.45 545.898 363.211 547.162 364.562C548.423 365.916 549.134 367.748 549.137 369.663V375.328C549.137 377.243 548.426 379.079 547.165 380.433C545.901 381.789 544.187 382.55 542.398 382.554ZM496.284 364.99C495.127 364.99 494.016 365.484 493.196 366.363C492.376 367.238 491.917 368.43 491.914 369.669V375.335C491.917 376.574 492.376 377.763 493.196 378.641C494.016 379.52 495.127 380.011 496.284 380.014H542.398C543.556 380.011 544.666 379.52 545.486 378.641C546.306 377.763 546.765 376.574 546.768 375.335V369.663C546.765 368.423 546.306 367.231 545.486 366.356C544.666 365.478 543.556 364.984 542.398 364.984L496.284 364.99Z" fill="#385868"/>
</g>
<g opacity="0.2">
<path opacity="0.2" d="M516.537 12.6445L516.525 15.1808L553.24 15.3729L553.251 12.8367L516.537 12.6445Z" fill="#385868"/>
<path opacity="0.2" d="M564.171 21.8135L564.162 24.3497L600.873 24.5418L600.885 22.0056L564.171 21.8135Z" fill="#385868"/>
<path opacity="0.2" d="M519.16 40.7842L518.947 63.5789L521.316 63.6042L521.529 40.8095L519.16 40.7842Z" fill="#385868"/>
<path opacity="0.2" d="M569.068 -0.00390625L568.857 22.7908L571.226 22.8162L571.436 0.0214564L569.068 -0.00390625Z" fill="#385868"/>
<path opacity="0.2" d="M535.648 31.4787H581.765C584.832 31.4787 587.319 28.8159 587.319 25.5311V19.8626C587.319 16.5778 584.832 13.915 581.765 13.915H535.648C532.581 13.915 530.094 16.5778 530.094 19.8626V25.5311C530.094 28.8159 532.581 31.4787 535.648 31.4787Z" fill="#F2F2F2"/>
<path opacity="0.2" d="M581.757 32.7455H535.651C533.866 32.743 532.152 31.9818 530.888 30.6292C529.627 29.2766 528.916 27.4427 528.913 25.5298V19.8612C528.916 17.9482 529.627 16.1144 530.888 14.7617C532.152 13.4091 533.866 12.648 535.651 12.6455H581.757C583.542 12.648 585.256 13.4091 586.517 14.7617C587.781 16.1144 588.492 17.9482 588.495 19.8612V25.5266C588.492 27.4401 587.784 29.2748 586.52 30.6281C585.256 31.9815 583.545 32.743 581.757 32.7455ZM535.643 15.1818C534.485 15.1835 533.375 15.677 532.555 16.5542C531.735 17.4314 531.276 18.6206 531.273 19.8612V25.5266C531.276 26.7671 531.735 27.9564 532.555 28.8336C533.375 29.7108 534.485 30.2043 535.643 30.206H581.757C582.914 30.2043 584.024 29.7108 584.845 28.8336C585.665 27.9564 586.124 26.7671 586.127 25.5266V19.8612C586.127 18.6201 585.665 17.4301 584.845 16.5522C584.027 15.6743 582.914 15.1803 581.757 15.1786L535.643 15.1818Z" fill="#385868"/>
<path opacity="0.2" d="M496.285 49.0393H542.402C545.469 49.0393 547.956 46.3766 547.956 43.0918V37.4232C547.956 34.1384 545.469 31.4756 542.402 31.4756H496.285C493.217 31.4756 490.73 34.1384 490.73 37.4232V43.0918C490.73 46.3766 493.217 49.0393 496.285 49.0393Z" fill="#F2F2F2"/>
<path opacity="0.2" d="M542.398 50.31H496.284C494.499 50.3075 492.785 49.5466 491.521 48.1938C490.259 46.8414 489.549 45.0073 489.546 43.0943V37.4099C489.549 35.4969 490.259 33.6632 491.521 32.3104C492.785 30.9579 494.499 30.1968 496.284 30.1943H542.398C544.187 30.196 545.898 30.9567 547.162 32.3095C548.426 33.6623 549.137 35.4966 549.14 37.4099V43.0753C549.14 44.0245 548.968 44.9645 548.63 45.8417C548.29 46.719 547.796 47.5163 547.168 48.1884C546.543 48.8602 545.8 49.3935 544.98 49.7574C544.163 50.1214 543.284 50.3094 542.398 50.31ZM496.284 32.7464C495.13 32.7483 494.019 33.2393 493.202 34.1134C492.382 34.9872 491.92 36.1722 491.914 37.4099V43.0753C491.917 44.3159 492.376 45.5051 493.196 46.3823C494.016 47.2595 495.127 47.7531 496.284 47.7547H542.398C543.556 47.7531 544.666 47.2595 545.486 46.3823C546.306 45.5051 546.765 44.3159 546.768 43.0753V37.4099C546.765 36.1694 546.306 34.9802 545.486 34.1029C544.666 33.2257 543.556 32.7324 542.398 32.7305L496.284 32.7464Z" fill="#385868"/>
</g>
<path d="M496.13 555.521H92.6016V558.691H496.13V555.521Z" fill="#385868"/>
<path d="M541.427 555.521H504.42V558.691H541.427V555.521Z" fill="#385868"/>
<path d="M86.3841 555.521H60.627V558.691H86.3841V555.521Z" fill="#385868"/>
<path d="M331.784 303.522V319.254C331.784 323.423 333.33 327.421 336.083 330.369C338.837 333.318 342.573 334.976 346.466 334.976H364.381C372.454 334.976 380.196 338.409 385.904 344.522C391.612 350.634 394.818 358.924 394.818 367.57V457.522H235.396V367.57C235.397 358.924 238.605 350.637 244.313 344.525C250.021 338.412 257.762 334.979 265.834 334.979H283.749C285.677 334.979 287.586 334.57 289.367 333.78C291.148 332.991 292.767 331.831 294.13 330.372C295.493 328.911 296.574 327.177 297.311 325.271C298.049 323.363 298.427 321.318 298.427 319.254V303.522" fill="#FFC6AD"/>
<path d="M393.593 368.553V458.508H235.396V368.553C235.397 359.907 238.605 351.62 244.313 345.508C250.021 339.395 257.762 335.962 265.834 335.962H274.352C275.154 344.132 280.516 351.883 287.159 355.983C293.907 360.145 301.835 361.575 309.613 361.952C319.587 362.437 329.801 361.249 338.922 356.899C347.582 352.777 355.206 345.267 358.975 335.975H363.155C371.225 335.975 378.964 339.405 384.672 345.514C390.38 351.623 393.59 359.911 393.593 368.553Z" fill="#82F0B7"/>
<path d="M392.98 368.553V383.954C392.98 375.309 389.773 367.019 384.065 360.906C378.357 354.794 370.615 351.36 362.542 351.36H358.361C354.584 360.665 346.969 368.163 338.309 372.284C329.188 376.634 318.974 377.823 308.999 377.338C301.222 376.961 293.293 375.528 286.546 371.368C279.9 367.269 274.538 359.518 273.739 351.348H265.221C261.222 351.348 257.262 352.188 253.568 353.827C249.873 355.466 246.516 357.866 243.688 360.897C240.861 363.924 238.618 367.519 237.089 371.476C235.559 375.433 234.773 379.671 234.774 383.954V368.553C234.775 364.273 235.563 360.034 237.093 356.078C238.623 352.124 240.866 348.529 243.693 345.505C246.521 342.477 249.877 340.077 253.571 338.441C257.265 336.802 261.223 335.962 265.221 335.962H273.739C274.541 344.132 279.903 351.883 286.546 355.983C293.293 360.145 301.222 361.575 308.999 361.952C318.974 362.437 329.188 361.249 338.309 356.899C346.969 352.777 354.592 345.267 358.361 335.975H362.542C370.612 335.975 378.351 339.405 384.059 345.514C389.767 351.623 392.977 359.911 392.98 368.553Z" fill="#BEF8D9"/>
<path d="M331.172 305.814V317.77L330.906 317.84C320.07 320.611 308.835 321.118 297.818 319.333V305.814H331.172Z" fill="#E39493"/>
<path d="M328.783 303.523C328.783 308.84 328.694 314.163 328.783 319.476C328.827 322.143 329.431 324.765 330.547 327.145C331.666 329.53 333.271 331.609 335.243 333.239C338.366 335.81 342.052 336.878 345.957 336.878C351.636 336.878 357.314 336.853 362.992 336.878C372.309 336.92 381.247 341.681 386.606 349.921C390.304 355.606 391.808 362.076 391.808 368.943V446.331C391.808 449.86 391.547 453.521 391.808 457.044C391.808 457.205 391.808 457.361 391.808 457.538L393.584 455.636H240.64C238.627 455.636 236.454 455.386 234.446 455.636C234.355 455.642 234.263 455.642 234.171 455.636L235.948 457.538V370.868C235.948 366.001 236.181 361.306 237.804 356.661C241.256 346.783 249.569 339.443 259.194 337.424C262.01 336.834 264.84 336.882 267.691 336.882H278.225C280.809 336.882 283.459 337.05 286.002 336.482C288.401 335.924 290.653 334.799 292.594 333.191C294.535 331.581 296.116 329.53 297.223 327.184C298.774 323.832 298.981 320.383 298.981 316.737V303.523C298.981 301.076 295.429 301.073 295.429 303.523C295.429 308.84 295.518 314.163 295.429 319.476C295.376 322.035 294.668 324.53 293.382 326.686C292.096 328.845 290.282 330.582 288.137 331.711C285.431 333.141 282.589 333.074 279.672 333.074H269.31C266.797 333.074 264.245 332.966 261.737 333.22C256.77 333.724 251.977 335.442 247.73 338.248C243.482 341.051 239.894 344.861 237.241 349.389C233.789 355.317 232.407 362.013 232.407 368.93V426.285C232.407 436.522 232.182 446.794 232.407 457.037C232.407 457.202 232.407 457.354 232.407 457.532C232.413 458.033 232.603 458.515 232.935 458.87C233.266 459.225 233.714 459.428 234.183 459.434H374.003C380.43 459.434 386.902 459.681 393.327 459.434C393.418 459.434 393.51 459.434 393.602 459.434C394.07 459.428 394.52 459.225 394.851 458.87C395.183 458.515 395.372 458.033 395.378 457.532V370.868C395.378 365.963 395.177 361.151 393.661 356.443C392.036 351.427 389.362 346.874 385.845 343.133C382.328 339.389 378.062 336.558 373.369 334.846C366.803 332.475 359.709 333.077 352.882 333.077C350.365 333.077 347.849 333.106 345.33 333.077C343.151 333.077 341.007 332.494 339.094 331.381C337.182 330.268 335.56 328.658 334.375 326.702C332.531 323.585 332.347 320.285 332.347 316.74V303.523C332.347 301.076 328.795 301.073 328.795 303.523H328.783Z" fill="#385868"/>
<path d="M293.919 119.039C296.027 125.38 302.407 128.74 308.37 130.855C319.131 134.664 330.417 136.504 341.75 136.298C349.845 136.146 358.034 134.96 365.965 136.742C373.896 138.524 381.76 144.186 383.432 152.667" fill="#EF7679"/>
<path d="M286.209 91.423C302.43 78.5261 322.088 69.5192 342.283 70.1818C362.477 70.8444 382.958 82.4763 391.636 102.012C403.333 128.326 392.571 160.812 388.743 187.96C384.504 218.111 385.158 248.819 390.673 278.733C393.223 292.521 396.92 306.394 403.801 318.479C405.45 321.377 408.576 324.36 409.778 327.394C411.309 331.259 410.074 331.389 405.844 332.654C399.546 334.534 392.707 333.71 386.304 333.209C379.18 332.654 371.986 332.007 365.195 329.651C353.944 325.749 342.398 314.947 344.361 300.979" fill="#EF7679"/>
<path d="M406.762 332.649C400.465 334.529 393.626 333.705 387.222 333.207C380.099 332.649 372.905 332.006 366.113 329.65C354.863 325.744 343.316 314.946 345.276 300.977L341.623 287.868C347.766 300.232 359.543 309.509 372.354 313.301C382.204 316.217 392.51 316.316 402.632 314.569C403.292 315.892 403.991 317.197 404.722 318.484C406.371 321.382 409.498 324.362 410.697 327.396C412.23 331.257 410.996 331.384 406.762 332.649Z" fill="#DB6A72"/>
<path d="M271.19 172.783C288.267 170.881 284.077 147.525 290.73 130.576C294.987 119.728 296.429 106.355 289.957 96.8409C280.542 82.9992 261.672 79.9049 247.292 85.4118C227.669 92.9255 224.031 115.213 223.24 135.167C222.494 153.964 226.411 172.504 231.112 190.489C233.869 200.999 235.571 211.778 237.069 222.557C240.231 245.336 242.463 268.844 237.238 291.179C232.012 313.514 217.967 334.728 197.521 341.867C214.397 344.705 232.326 343.528 247.502 335.146C262.678 326.764 274.553 310.325 275.267 292.054" fill="#EF7679"/>
<path d="M245.359 325.658C234.369 331.729 221.931 334.015 209.503 333.742C205.211 337.128 200.445 339.766 195.381 341.554C212.256 344.391 230.186 343.215 245.362 334.833C260.538 326.451 272.412 310.012 273.126 291.741L272.913 285.464C271.131 302.561 259.729 317.723 245.359 325.658Z" fill="#DB6A72"/>
<path d="M363.031 135.532C367.211 143.375 369.508 152.129 369.408 162.182C369.266 176.496 364.481 190.737 366.743 204.639C367.4 208.668 368.626 212.432 369.571 216.331C375.166 239.411 370.106 266.641 358.794 284.363C347.482 302.086 330.787 310.75 314.453 310.731H314.347C298.013 310.75 281.318 302.086 270.006 284.363C258.693 266.641 253.634 239.411 259.229 216.331C260.174 212.432 261.399 208.672 262.057 204.639C264.322 190.734 259.537 176.493 259.392 162.182C259.294 152.132 261.589 142.066 265.769 134.223L276.389 116.754L306.682 107.243L325.333 111.174" fill="#FFC6AD"/>
<path d="M358.8 274.206C347.487 291.928 330.793 300.593 314.459 300.574H314.352C298.019 300.593 281.324 291.928 270.012 274.206C262.509 262.45 257.761 246.51 257.044 230.376C256.156 249.29 261.189 268.902 270.012 282.728C281.324 300.45 298.019 309.114 314.352 309.095H314.459C330.793 309.114 347.487 300.45 358.8 282.728C367.625 268.902 372.643 249.29 371.767 230.379C371.051 246.51 366.302 262.45 358.8 274.206Z" fill="#E39493"/>
<path d="M366.693 144.304C366.655 144.304 366.613 144.285 366.575 144.275C365.983 144.14 365.384 144.021 364.778 143.92C357.415 142.668 349.844 143.692 342.36 143.831C328.901 144.082 305.353 143.704 297.087 130.031C305.113 143.286 267.262 165.83 259.487 170.367L258.895 164.426C258.833 163.792 258.782 163.132 259.099 162.609C259.395 162.21 259.789 161.906 260.236 161.731C273.698 154.927 283.5 145.096 289.525 130.249C289.564 130.151 289.602 130.053 289.638 129.955C289.809 129.511 289.978 129.064 290.135 128.61L290.162 128.541C291.609 124.87 292.654 121.031 293.273 117.102L295.138 123.83C295.224 122.878 295.278 121.908 295.298 120.957V120.872C295.316 119.838 295.298 118.811 295.224 117.79C295.075 115.342 294.628 112.924 293.895 110.6V109.107L300.044 107.176C299.588 109.896 298.724 112.765 299.68 115.333C300.749 118.205 303.701 119.645 306.415 120.704C320.585 126.223 335.574 128.925 350.65 128.674C351.988 128.652 353.329 128.604 354.673 128.553L362.427 133.566C362.554 133.807 362.684 134.054 362.809 134.301L362.693 134.282C362.862 134.599 363.025 134.916 363.185 135.233C364.621 138.13 365.796 141.167 366.693 144.304Z" fill="#E39493"/>
<path d="M294.528 120.021C296.636 126.362 303.016 129.723 308.979 131.837C319.741 135.644 331.026 137.483 342.36 137.274C350.454 137.122 358.643 135.936 366.574 137.718C374.506 139.5 382.369 145.162 384.042 153.643L390.223 103.64L294.448 98.3965L294.528 120.021Z" fill="#EF7679"/>
<path d="M396.669 335.422C393.791 335.422 390.908 335.184 388.083 334.949L386.195 334.797C378.435 334.192 371.466 333.501 364.736 331.167C358.519 329.015 352.69 324.998 348.711 320.144C343.944 314.332 341.931 307.624 342.893 300.751L345.821 301.22C344.776 308.702 348.024 314.504 350.934 318.052C354.573 322.49 359.934 326.171 365.648 328.152C372.061 330.372 378.846 331.047 386.411 331.64L388.311 331.795C394.073 332.271 400.029 332.746 405.462 331.139L406.099 330.952C407.301 330.597 408.66 330.194 408.944 329.893C408.944 329.785 408.944 329.335 408.432 328.029C407.816 326.475 406.522 324.801 405.27 323.181C404.281 321.964 403.372 320.673 402.552 319.323C398.819 312.766 393.374 301.458 389.229 279.059C383.654 248.974 382.997 218.08 387.287 187.754C388.125 181.803 389.271 175.735 390.482 169.306C394.789 146.463 399.242 122.844 390.304 102.729C386.286 93.6836 379.45 85.9702 370.539 80.4221C361.912 75.1007 352.195 72.1257 342.245 71.7576C319.353 71.0094 299.612 82.7365 287.098 92.6818L285.321 90.1455C298.227 79.8863 318.589 67.8232 342.325 68.5873C352.77 68.9208 362.975 72.0302 372.019 77.6354C381.449 83.5069 388.693 91.6958 392.971 101.321C397.172 110.775 398.91 121.827 398.3 135.11C397.759 146.72 395.535 158.501 393.389 169.895C392.184 176.283 391.047 182.317 390.218 188.188C385.978 218.157 386.627 248.685 392.137 278.416C396.187 300.32 401.459 311.295 405.077 317.646C405.826 318.866 406.649 320.033 407.546 321.133C408.935 322.928 410.368 324.785 411.152 326.764C411.745 328.285 412.227 329.88 411.608 331.25C410.913 332.79 409.308 333.266 406.871 333.983L406.244 334.17C403.108 335.105 399.893 335.422 396.669 335.422Z" fill="#385868"/>
<path d="M314.519 312.521H314.294C296.352 312.521 279.77 302.661 268.792 285.462C256.743 266.589 252.328 238.725 257.803 216.14C258.119 214.827 258.472 213.521 258.815 212.256C259.543 209.733 260.14 207.168 260.606 204.574C261.927 196.474 260.79 188.333 259.585 179.716C258.797 174.069 257.98 168.23 257.924 162.406C257.82 152.001 260.156 141.799 264.496 133.645L267.069 135.23C263.043 142.781 260.79 152.667 260.887 162.387C260.944 167.992 261.743 173.721 262.516 179.262C263.7 187.753 264.929 196.528 263.525 205.136C263.041 207.841 262.419 210.517 261.663 213.15C261.329 214.393 260.982 215.686 260.674 216.955C255.401 238.709 259.647 265.53 271.241 283.693C281.659 300.014 297.353 309.373 314.299 309.373H314.521C331.474 309.373 347.165 300.017 357.583 283.693C369.177 265.53 373.425 238.709 368.15 216.955C367.854 215.686 367.495 214.396 367.161 213.15C366.406 210.517 365.784 207.841 365.299 205.136C363.895 196.531 365.124 187.753 366.308 179.262C367.081 173.721 367.883 167.992 367.936 162.387C368.028 152.974 366.006 144.519 361.752 136.542L364.325 134.957C368.845 143.438 370.995 152.416 370.897 162.409C370.841 168.233 370.024 174.073 369.236 179.719C368.031 188.336 366.894 196.477 368.215 204.578C368.68 207.171 369.278 209.736 370.006 212.259C370.346 213.527 370.699 214.83 371.018 216.143C376.496 238.732 372.078 266.593 360.032 285.469C349.054 302.661 332.475 312.521 314.519 312.521Z" fill="#385868"/>
<path d="M290.138 132.202C284.09 147.61 271.866 161.084 256.858 164.822C255.509 165.16 254.143 165.415 252.767 165.586C247.402 159.743 237.718 147.99 238.162 139.678C238.775 128.211 256.814 109.861 261.11 103.308C263.079 100.296 265.37 92.5127 267.274 84.9736C267.721 85.0466 268.162 85.129 268.609 85.2146C276.798 86.8505 284.398 91.1621 289.366 98.4666C295.823 107.993 294.387 121.366 290.138 132.202Z" fill="#EF7679"/>
<path d="M213.628 344.847C208.157 344.831 202.697 344.362 197.294 343.445L191.201 342.421L197.066 340.373C215.3 334.004 230.145 315.01 235.805 290.807C241.155 267.93 238.508 243.709 235.607 222.804C234.18 212.526 232.478 201.563 229.686 190.917C225.124 173.416 221 154.556 221.769 135.1C222.548 115.444 226.101 91.8469 246.801 83.9179C254.513 81.0132 262.828 80.4644 270.814 82.3327C279.471 84.3776 286.506 89.0729 291.163 95.9176C294.372 100.638 295.95 106.465 295.855 113.24C295.775 118.947 294.476 125.151 292.104 131.2C288.677 140.016 283.403 147.87 276.688 154.153C269.583 160.719 261.409 164.676 253.036 165.605L252.74 162.45C267.913 160.77 282.296 148.022 289.383 129.973C291.613 124.295 292.829 118.494 292.906 113.196C292.992 107.122 291.604 101.938 288.782 97.7849C284.56 91.5774 278.124 87.3038 270.19 85.4206C262.743 83.6801 254.991 84.1937 247.802 86.9043C239.287 90.1634 233.33 96.4851 229.585 106.224C225.884 115.856 225.041 127.393 224.73 135.236C223.975 154.258 228.043 172.824 232.549 190.064C235.373 200.865 237.096 211.958 238.535 222.338C241.478 243.547 244.16 268.136 238.677 291.578C233.348 314.404 220.082 332.825 203.402 341.103C215.931 342.488 232.152 341.857 246.825 333.751C262.551 325.064 273.136 308.675 273.79 292.003L276.75 292.136C276.055 309.927 264.843 327.369 248.187 336.569C236.765 342.875 224.502 344.847 213.628 344.847Z" fill="#385868"/>
<path d="M381.984 152.991C380.299 144.472 372.137 139.748 365.659 138.29C359.972 137.022 353.944 137.323 348.115 137.624C346.042 137.732 343.893 137.843 341.776 137.881C330.274 138.1 318.82 136.232 307.901 132.358C299.413 129.349 294.383 125.168 292.506 119.572L295.295 118.507C296.852 123.186 301.148 126.632 308.819 129.349C319.421 133.111 330.541 134.924 341.708 134.714C343.78 134.676 345.903 134.565 347.955 134.46C353.971 134.143 360.191 133.826 366.251 135.192C370.509 136.132 374.508 138.103 377.946 140.953C381.62 144.082 384.012 148.019 384.864 152.337L381.984 152.991Z" fill="#385868"/>
<path d="M286.055 187.855C286.138 184.603 288.519 181.895 291.621 181.895C294.724 181.895 297.107 184.603 297.187 187.855C297.249 190.3 300.802 190.309 300.74 187.855C300.607 182.548 296.681 178.091 291.621 178.091C286.562 178.091 282.636 182.551 282.503 187.855C282.441 190.303 285.993 190.303 286.055 187.855Z" fill="#385868"/>
<path d="M328.587 187.855C328.67 184.603 331.05 181.895 334.153 181.895C337.255 181.895 339.639 184.603 339.719 187.855C339.781 190.3 343.333 190.309 343.271 187.855C343.138 182.548 339.212 178.091 334.153 178.091C329.093 178.091 325.167 182.551 325.034 187.855C324.972 190.303 328.525 190.303 328.587 187.855Z" fill="#385868"/>
<path d="M318.456 222.586C318.373 225.839 315.993 228.546 312.89 228.546C309.787 228.546 307.404 225.839 307.324 222.586C307.262 220.142 303.709 220.132 303.771 222.586C303.905 227.893 307.83 232.35 312.89 232.35C317.95 232.35 321.875 227.89 322.009 222.586C322.071 220.138 318.518 220.138 318.456 222.586Z" fill="#385868"/>
<path d="M391.067 121.346C390.582 114.759 387.941 108.519 384.391 103.114C375.509 89.5766 360.807 80.9216 345.471 78.8862C330.135 76.8509 314.335 81.1752 301.121 89.7541C300.269 90.3089 299.372 90.9462 299.011 91.9448C298.555 93.2129 299.096 94.6016 299.541 95.8697C301.009 100.105 301.391 104.684 300.651 109.131C300.192 111.855 299.327 114.73 300.284 117.301C301.352 120.173 304.304 121.616 307.019 122.675C321.188 128.193 336.178 130.893 351.253 130.642C358.394 130.518 365.645 129.745 372.599 131.473C379.553 133.2 386.375 138.108 388.228 145.495C389.344 144.67 390.25 143.564 390.869 142.274C391.491 140.983 391.801 139.549 391.781 138.099" fill="#DB6A72"/>
<path d="M229.333 159.528C225.819 144.398 226.207 128.53 230.458 113.618C232.235 107.433 234.796 101.254 239.308 96.958C243.82 92.6622 249.824 90.6491 255.804 90.015C260.411 89.5299 265.145 89.8216 269.512 91.4607C281.005 95.7723 288.187 109.554 287.047 122.53C285.907 135.506 277.378 147.04 266.453 152.791C260.606 155.869 254.158 157.461 248.29 160.495C242.422 163.529 236.88 168.535 235.494 175.354" fill="#DB6A72"/>
<path d="M369.805 84.983C371.656 86.3754 373.414 87.9051 375.066 89.561C376.591 91.1154 378.024 92.7668 379.362 94.5067C381.603 97.463 383.527 100.683 385.091 104.103C385.751 105.562 386.275 106.915 386.698 108.117C386.9 108.722 387.086 109.284 387.249 109.807L387.64 111.252L387.794 111.867L387.903 112.416C387.968 112.758 388.016 113.05 388.048 113.285C388.113 113.757 388.11 114.017 388.048 114.039C387.986 114.061 387.829 113.852 387.625 113.43C387.524 113.221 387.406 112.958 387.276 112.644L387.068 112.14L386.82 111.569L386.254 110.228L385.547 108.643C385.029 107.521 384.416 106.259 383.687 104.899C381.979 101.72 379.998 98.7188 377.766 95.9365C376.44 94.3143 375.034 92.7684 373.556 91.3047C371.96 89.748 370.273 88.3005 368.505 86.9708C366.732 85.6383 364.882 84.4251 362.969 83.3376L362.279 82.935L361.584 82.5641C361.122 82.3231 360.669 82.0663 360.21 81.8381C359.289 81.3942 358.395 80.9377 357.495 80.5699C355.807 79.8287 354.087 79.1791 352.341 78.6233L351.121 78.2714C350.721 78.1541 350.33 78.0337 349.937 77.9544C349.158 77.7832 348.418 77.5676 347.698 77.463C346.979 77.3584 346.298 77.1872 345.644 77.146L344.693 77.0318L344.237 76.9748L343.796 76.9526L342.18 76.8575C341.685 76.8575 341.23 76.8575 340.818 76.8575H340.226L339.717 76.8892C339.4 76.905 339.125 76.9145 338.908 76.9114C338.467 76.9114 338.225 76.867 338.21 76.7846C338.195 76.7021 338.405 76.5816 338.828 76.4295C339.042 76.3534 339.305 76.2678 339.622 76.1758L340.134 76.03L340.726 75.9254C341.144 75.8537 341.611 75.7796 342.127 75.7035C342.642 75.6591 343.201 75.6305 343.808 75.5957L344.27 75.5703H344.747L345.744 75.5957C346.434 75.5957 347.151 75.694 347.909 75.7669C348.667 75.8398 349.451 75.992 350.277 76.1219C350.689 76.1822 351.103 76.2836 351.523 76.3819L352.811 76.6831C354.656 77.1739 356.474 77.7816 358.253 78.5029C359.2 78.8643 360.139 79.3113 361.107 79.752C361.587 79.9771 362.063 80.2307 362.549 80.4748L363.277 80.8489L363.999 81.2547C366.013 82.3532 367.952 83.5989 369.805 84.983Z" fill="white"/>
<path d="M360.57 182.592C360.126 187.196 360.31 191.349 360.807 194.303C361.047 195.784 361.34 196.963 361.512 197.791C361.684 198.618 361.769 199.122 361.627 199.198C361.485 199.275 361.16 198.91 360.698 198.159C360.091 197.071 359.605 195.911 359.25 194.703C358.303 191.653 357.847 187.154 358.312 182.339C358.525 180.095 358.859 177.866 359.309 175.662C359.712 173.642 360.132 171.858 360.493 170.355C361.242 167.365 361.781 165.53 362.092 165.577C362.403 165.625 362.418 167.584 362.068 170.678C361.9 172.225 361.639 174.051 361.358 176.068C361.077 178.084 360.772 180.294 360.57 182.592Z" fill="white"/>
<path d="M362.08 146.573C362.66 148.147 362.98 149.818 363.025 151.509C363.025 152.806 362.82 153.608 362.515 153.646C362.21 153.684 361.849 152.961 361.447 151.82C361.044 150.679 360.558 149.119 359.966 147.455C359.67 146.624 359.35 145.844 359.063 145.131L358.258 143.229C357.793 142.138 357.527 141.387 357.767 141.158C358.006 140.93 358.708 141.31 359.573 142.246C360.073 142.797 360.517 143.403 360.899 144.053C361.367 144.851 361.76 145.695 362.08 146.573Z" fill="white"/>
<path d="M229.149 154.712C228.816 150.774 228.717 146.818 228.853 142.868C228.966 141.048 229.037 139.317 229.241 137.713C229.333 136.907 229.398 136.127 229.508 135.386L229.845 133.252C230.035 131.889 230.331 130.681 230.553 129.616C230.671 129.083 230.772 128.585 230.884 128.135L231.228 126.908C231.645 125.434 231.897 124.632 231.947 124.648C231.997 124.664 231.841 125.497 231.512 126.987L231.234 128.227C231.142 128.684 231.065 129.178 230.967 129.714C230.784 130.782 230.529 131.99 230.375 133.347L230.079 135.471C229.987 136.21 229.937 136.987 229.86 137.782C229.682 139.368 229.638 141.095 229.543 142.899C229.449 146.813 229.566 150.73 229.895 154.63C230.266 158.783 230.869 162.708 231.518 166.255L232.03 168.842C232.11 169.264 232.196 169.673 232.294 170.075L232.563 171.267C232.744 172.047 232.9 172.808 233.084 173.528L233.608 175.601C233.925 176.93 234.274 178.109 234.555 179.155L234.952 180.61L235.307 181.828C235.728 183.293 235.938 184.114 235.9 184.133C235.861 184.152 235.547 183.365 235.041 181.913L234.624 180.715C234.475 180.274 234.327 179.792 234.165 179.276C233.845 178.239 233.46 177.056 233.108 175.744L232.536 173.674C232.338 172.954 232.166 172.193 231.971 171.413L231.675 170.218C231.574 169.815 231.479 169.403 231.379 168.982L230.834 166.388C230.075 162.532 229.513 158.634 229.149 154.712Z" fill="#516D7B"/>
<path d="M232.302 137.932C232.577 135.796 232.965 133.68 233.463 131.591C233.709 130.64 233.937 129.718 234.2 128.881C234.33 128.462 234.443 128.05 234.573 127.666L234.955 126.56C235.189 125.853 235.45 125.232 235.666 124.68C235.775 124.407 235.876 124.151 235.962 123.919L236.258 123.285C236.607 122.534 236.823 122.131 236.871 122.153C236.983 122.207 236.317 123.913 235.455 126.744L235.124 127.857C235.008 128.243 234.911 128.652 234.795 129.071C234.558 129.908 234.357 130.815 234.132 131.769C233.718 133.671 233.33 135.802 233.043 138.046C232.755 140.291 232.628 142.447 232.563 144.409C232.563 145.392 232.522 146.311 232.545 147.196C232.545 147.633 232.545 148.055 232.566 148.464L232.613 149.631C232.752 152.601 232.98 154.437 232.859 154.456C232.809 154.456 232.699 154.015 232.542 153.188L232.418 152.5C232.376 152.249 232.344 151.973 232.305 151.679C232.231 151.089 232.131 150.41 232.077 149.665L231.98 148.489C231.947 148.08 231.938 147.652 231.915 147.221C231.864 146.337 231.867 145.392 231.861 144.399C231.894 142.236 232.041 140.077 232.302 137.932Z" fill="#516D7B"/>
<path d="M275.809 97.5259C277.953 99.7978 279.817 102.355 281.354 105.135C282.073 106.403 282.662 107.671 283.195 108.854C283.728 110.036 284.149 111.184 284.504 112.236C285.077 113.893 285.55 115.587 285.919 117.309C286.174 118.529 286.259 119.211 286.215 119.211C286.171 119.211 285.975 118.577 285.623 117.379C285.271 116.18 284.764 114.484 283.995 112.433C283.613 111.406 283.145 110.302 282.618 109.132C282.091 107.963 281.469 106.745 280.747 105.509C279.207 102.813 277.368 100.328 275.27 98.1061C274.174 96.9727 273.006 95.9208 271.776 94.9579C270.628 94.0633 269.423 93.2539 268.17 92.5358L267.282 92.0412C266.986 91.8827 266.69 91.7464 266.394 91.5974C265.802 91.2803 265.224 91.0711 264.668 90.8206C264.111 90.5702 263.552 90.3895 263.016 90.2119C262.48 90.0344 261.965 89.86 261.462 89.7491C259.882 89.3252 258.272 89.0494 256.648 88.9248C256.352 88.8899 256.103 88.8772 255.881 88.8709L255.318 88.836C255.022 88.8107 254.851 88.7853 254.851 88.7599C254.851 88.7346 255.01 88.7029 255.315 88.6743L255.884 88.6299C256.142 88.609 256.401 88.6027 256.66 88.6109C258.315 88.6154 259.966 88.811 261.583 89.1943C262.101 89.2925 262.625 89.4701 263.182 89.6159C263.738 89.7618 264.298 89.9837 264.884 90.1929C265.47 90.4022 266.068 90.6494 266.66 90.9475C266.956 91.0901 267.27 91.2264 267.575 91.385L268.496 91.8764C269.788 92.5922 271.029 93.407 272.211 94.3144C273.481 95.2911 274.683 96.3643 275.809 97.5259Z" fill="#516D7B"/>
<path d="M279.095 108.983C280.028 110.971 280.76 113.061 281.277 115.216C281.492 116.157 281.66 117.11 281.78 118.07C281.83 118.523 281.904 118.954 281.928 119.376L281.987 120.59C282.025 121.284 282.025 121.979 281.987 122.673C281.987 122.99 281.969 123.266 281.949 123.526L281.86 124.239C281.747 125.095 281.661 125.558 281.608 125.552C281.555 125.545 281.543 125.066 281.567 124.217L281.59 123.51C281.59 123.25 281.576 122.971 281.567 122.67C281.54 122.067 281.567 121.379 281.466 120.628L281.359 119.445C281.321 119.036 281.232 118.615 281.17 118.177C281.06 117.296 280.827 116.377 280.613 115.406C279.563 111.207 277.684 107.296 275.104 103.939C274.491 103.188 273.919 102.452 273.327 101.841C273.031 101.524 272.759 101.207 272.472 100.937L271.634 100.157C271.116 99.6372 270.583 99.2536 270.154 98.889C269.929 98.7083 269.724 98.5276 269.529 98.3786L268.978 97.9886C268.318 97.5131 267.963 97.2246 267.986 97.1739C268.01 97.1231 268.416 97.3197 269.129 97.7192L269.721 98.0552C269.935 98.1884 270.151 98.3501 270.393 98.5149C270.945 98.883 271.476 99.2853 271.983 99.7196L272.871 100.477C273.167 100.744 273.464 101.061 273.777 101.368C274.439 102.031 275.066 102.732 275.657 103.467C276.984 105.169 278.136 107.019 279.095 108.983Z" fill="#516D7B"/>
<path d="M247.71 267.329C247.666 270.616 247.494 273.825 247.216 276.909C246.937 279.994 246.514 282.955 246.031 285.758L245.647 287.828C245.513 288.506 245.351 289.172 245.217 289.832C244.948 291.15 244.598 292.409 244.297 293.636C244.137 294.245 243.956 294.838 243.79 295.424C243.624 296.011 243.471 296.588 243.278 297.139L242.745 298.772L242.485 299.561L242.206 300.322C241.833 301.324 241.502 302.285 241.12 303.176C240.738 304.066 240.427 304.91 240.057 305.671C239.687 306.431 239.382 307.154 239.062 307.804L238.156 309.557C238.017 309.821 237.893 310.071 237.765 310.299L237.398 310.933L236.806 311.926C236.661 312.209 236.486 312.473 236.285 312.715C236.385 312.409 236.516 312.115 236.676 311.84L237.197 310.813L237.535 310.16C237.65 309.925 237.765 309.672 237.893 309.402L238.734 307.624C239.03 306.967 239.326 306.244 239.666 305.474C240.007 304.704 240.315 303.857 240.667 302.973C241.019 302.088 241.342 301.127 241.697 300.119L241.964 299.358L242.209 298.572L242.716 296.946C242.896 296.394 243.035 295.817 243.201 295.237C243.367 294.657 243.533 294.064 243.684 293.458C243.98 292.238 244.305 290.989 244.572 289.676C244.705 289.023 244.868 288.361 244.98 287.685L245.348 285.628C245.806 282.844 246.236 279.921 246.476 276.84C246.715 273.758 246.905 270.591 246.949 267.329C246.985 261.186 246.689 255.046 246.061 248.941C245.501 243.304 244.788 238.253 244.137 234.021C243.485 229.789 242.908 226.368 242.517 224.003C242.325 222.82 242.174 221.901 242.082 221.276C242.015 220.964 241.98 220.645 241.978 220.325C242.094 220.624 242.179 220.936 242.23 221.254C242.369 221.869 242.568 222.779 242.804 223.952C243.284 226.298 243.941 229.703 244.661 233.932C245.38 238.162 246.141 243.215 246.751 248.871C247.424 254.997 247.744 261.161 247.71 267.329Z" fill="#516D7B"/>
<path d="M255.331 318.62C256.977 316.003 258.402 313.234 259.588 310.345L260.328 308.373L260.509 307.898C260.565 307.739 260.609 307.581 260.66 307.419L260.956 306.468C261.139 305.85 261.347 305.263 261.492 304.683L261.897 303.009C262.193 301.95 262.321 300.961 262.489 300.102C262.566 299.671 262.649 299.271 262.705 298.9L262.833 297.883C262.993 296.659 263.105 295.98 263.155 295.98C263.206 295.98 263.194 296.672 263.126 297.914L263.064 298.951C263.028 299.328 262.963 299.734 262.907 300.172C262.791 301.168 262.628 302.157 262.418 303.136L262.054 304.845C261.921 305.438 261.725 306.037 261.554 306.668L261.278 307.619C261.231 307.78 261.19 307.936 261.133 308.107L260.959 308.595L260.236 310.64C257.937 316.59 254.497 321.955 250.138 326.39L248.64 327.836L248.278 328.185C248.157 328.299 248.027 328.4 247.902 328.502L247.165 329.136C246.677 329.535 246.227 329.944 245.756 330.29L244.397 331.269C243.62 331.831 242.816 332.351 241.99 332.823C241.629 333.039 241.297 333.248 240.981 333.419L240.092 333.853C239.033 334.37 238.44 334.63 238.417 334.579C238.393 334.529 238.947 334.174 239.956 333.574L240.797 333.08C241.093 332.89 241.419 332.661 241.765 332.446C242.452 331.97 243.266 331.495 244.086 330.81L245.398 329.802C245.851 329.45 246.286 329.031 246.76 328.625L247.473 327.991C247.592 327.884 247.719 327.782 247.837 327.674L248.187 327.322L249.64 325.874C251.736 323.642 253.64 321.216 255.331 318.62Z" fill="#516D7B"/>
<path d="M258.67 295.197C258.862 293.878 258.984 292.613 259.058 291.459C259.084 290.882 259.12 290.33 259.123 289.817C259.126 289.303 259.138 288.821 259.123 288.381C259.123 286.624 259.04 285.527 259.152 285.527C259.265 285.527 259.505 286.586 259.656 288.381C259.691 288.824 259.727 289.313 259.736 289.839C259.745 290.365 259.736 290.926 259.736 291.519C259.667 294.09 259.286 296.641 258.602 299.106C258.436 299.67 258.282 300.209 258.107 300.691C257.933 301.173 257.77 301.642 257.607 302.051C256.944 303.693 256.384 304.625 256.301 304.587C256.219 304.549 256.598 303.519 257.11 301.855C257.24 301.439 257.382 300.983 257.515 300.488C257.649 299.994 257.791 299.464 257.933 298.903C258.214 297.758 258.46 296.516 258.67 295.197Z" fill="#516D7B"/>
<path d="M323.762 127.697C326.361 128.328 328.99 128.817 331.637 129.162C332.86 129.295 334.02 129.441 335.116 129.501C335.66 129.536 336.187 129.59 336.697 129.609L338.156 129.663C339.086 129.713 339.933 129.691 340.67 129.701H341.703L342.57 129.679C343.616 129.66 344.196 129.679 344.199 129.729C344.202 129.78 343.63 129.875 342.585 129.992L341.718 130.084C341.401 130.11 341.055 130.126 340.682 130.145C339.938 130.179 339.089 130.243 338.15 130.227H336.67C336.158 130.227 335.625 130.186 335.074 130.164C333.97 130.132 332.795 130.008 331.557 129.894C326.187 129.312 320.905 128 315.845 125.988C314.688 125.506 313.58 125.063 312.589 124.571C312.085 124.33 311.591 124.111 311.129 123.874L309.806 123.179C308.956 122.751 308.222 122.292 307.567 121.911C307.242 121.718 306.937 121.54 306.661 121.366L305.918 120.871C305.03 120.275 304.554 119.92 304.58 119.873C304.607 119.825 305.134 120.085 306.06 120.596L306.83 121.024L307.76 121.505C308.429 121.848 309.175 122.266 310.031 122.656L311.363 123.29C311.828 123.512 312.322 123.712 312.825 123.924C313.832 124.387 314.933 124.803 316.082 125.259C318.602 126.211 321.165 127.025 323.762 127.697Z" fill="#516D7B"/>
<path d="M338.055 127.067C339.903 127.264 341.67 127.362 343.281 127.403C344.086 127.403 344.85 127.429 345.566 127.403C346.283 127.378 346.949 127.372 347.559 127.343C349.995 127.229 351.502 127.064 351.52 127.188C351.538 127.312 350.04 127.651 347.597 127.914C346.985 127.977 346.312 128.041 345.59 128.072C344.868 128.104 344.092 128.133 343.278 128.145C341.65 128.145 339.855 128.069 337.981 127.87C336.107 127.67 334.34 127.346 332.744 126.995C331.948 126.804 331.193 126.63 330.494 126.424C329.795 126.218 329.144 126.028 328.558 125.834C326.207 125.048 324.819 124.366 324.851 124.274C324.884 124.182 326.331 124.645 328.7 125.283C329.292 125.441 329.937 125.6 330.639 125.771C331.341 125.942 332.09 126.088 332.877 126.262C334.461 126.573 336.208 126.858 338.055 127.067Z" fill="#516D7B"/>
<path d="M311.2 84.3059C312.751 83.3646 314.35 82.5118 315.984 81.7506C316.742 81.4145 317.464 81.088 318.151 80.828C318.494 80.6949 318.823 80.5585 319.146 80.4444L320.072 80.1274C322.441 79.3316 323.96 79.0526 323.98 79.1477C324.001 79.2428 322.548 79.7438 320.247 80.6695L319.359 81.0373C319.045 81.1641 318.725 81.3162 318.391 81.4621C317.719 81.7474 317.02 82.0962 316.277 82.4417C314.797 83.1709 313.213 84.0269 311.584 85.0192C309.956 86.0115 308.467 87.0545 307.144 88.0437C306.486 88.5509 305.853 89.0202 305.281 89.4957C304.985 89.7303 304.713 89.9491 304.449 90.1742L303.697 90.8082C301.785 92.4631 300.663 93.5728 300.58 93.484C300.497 93.3952 301.507 92.1588 303.351 90.3739L304.082 89.6828C304.337 89.445 304.615 89.2104 304.896 88.9599C305.456 88.4558 306.081 87.9581 306.738 87.4286C308.174 86.3048 309.663 85.2624 311.2 84.3059Z" fill="#516D7B"/>
<path d="M318.903 83.4023C319.868 82.9455 320.857 82.5435 321.863 82.1976C322.689 81.9183 323.527 81.6843 324.374 81.497C325.822 81.1799 326.742 81.1356 326.742 81.237C326.787 81.4811 323.222 82.1881 319.187 84.1442C315.152 86.1003 312.25 88.402 312.111 88.2054C312.052 88.1261 312.703 87.4287 313.887 86.4871C314.586 85.9383 315.309 85.4282 316.055 84.959C316.978 84.3864 317.929 83.8668 318.903 83.4023Z" fill="#516D7B"/>
<path d="M385.111 176.637C383.515 184.618 382.846 192.779 383.118 200.935C383.225 204.064 383.447 206.59 383.601 208.337C383.755 210.084 383.864 211.051 383.811 211.057C383.722 210.84 383.666 210.609 383.642 210.373C383.559 209.919 383.438 209.247 383.311 208.379C383.068 206.638 382.763 204.108 382.588 200.96C382.15 192.746 382.748 184.506 384.365 176.463C384.853 174.114 385.386 171.831 385.993 169.659C386.6 167.488 387.207 165.408 387.769 163.423C388.332 161.439 388.841 159.549 389.25 157.761C389.466 156.87 389.623 156.001 389.794 155.168C389.966 154.334 390.09 153.529 390.173 152.752C390.52 150.315 390.594 147.843 390.395 145.387C390.342 144.515 390.224 143.846 390.167 143.39C390.117 143.157 390.099 142.918 390.117 142.68C390.215 142.892 390.283 143.12 390.318 143.355C390.484 144.01 390.609 144.676 390.689 145.349C391.005 147.828 391.008 150.341 390.703 152.822C390.635 153.611 390.487 154.423 390.369 155.279C390.25 156.135 390.073 157.01 389.86 157.91C389.481 159.723 388.989 161.632 388.444 163.617L386.715 169.862C386.117 172.046 385.596 174.307 385.111 176.637Z" fill="#516D7B"/>
<path d="M388.788 300.942C390.076 304.798 391.574 308.57 393.27 312.241L394.454 314.689C394.824 315.491 395.257 316.229 395.639 316.962C396.021 317.695 396.391 318.405 396.775 319.067L397.889 320.97C398.575 322.196 399.286 323.243 399.875 324.187C400.171 324.657 400.447 325.1 400.707 325.497L401.441 326.572C402.33 327.868 402.788 328.601 402.75 328.635C402.711 328.67 402.158 328.001 401.21 326.762L400.42 325.725C400.139 325.338 399.852 324.907 399.532 324.457C398.907 323.531 398.161 322.501 397.442 321.287L396.281 319.4C395.881 318.741 395.508 318.031 395.097 317.305C394.685 316.578 394.256 315.836 393.871 315.034L392.645 312.583C389.108 305.229 386.535 297.386 384.998 289.278L384.525 286.542C384.356 285.658 384.273 284.786 384.154 283.949C384.036 283.112 383.927 282.304 383.858 281.52L383.663 279.273C383.515 277.843 383.494 276.54 383.444 275.399C383.423 274.828 383.397 274.298 383.391 273.813V272.476C383.411 270.868 383.447 269.98 383.497 269.98C383.548 269.98 383.613 270.868 383.684 272.466L383.737 273.798C383.764 274.283 383.814 274.812 383.852 275.383C383.944 276.515 384.003 277.808 384.181 279.225L384.424 281.444C384.51 282.218 384.649 283.03 384.764 283.848C384.88 284.665 384.989 285.54 385.17 286.415L385.673 289.123C386.496 293.124 387.538 297.07 388.788 300.942Z" fill="#516D7B"/>
<path d="M382.547 285.667C382.955 287.807 383.411 289.83 383.858 291.662C384.092 292.575 384.305 293.444 384.533 294.252C384.761 295.061 384.966 295.812 385.164 296.497C385.96 299.233 386.514 300.91 386.407 300.958C386.301 301.005 385.59 299.388 384.658 296.681C384.427 296.002 384.178 295.26 383.935 294.462C383.693 293.663 383.444 292.788 383.189 291.871C382.701 290.036 382.221 287.997 381.81 285.848C381.398 283.698 381.105 281.612 380.886 279.716C380.788 278.765 380.688 277.868 380.631 277.022C380.575 276.175 380.519 275.389 380.483 274.666C380.356 271.784 380.445 269.999 380.537 269.996C380.628 269.993 380.753 271.768 381.016 274.622C381.084 275.335 381.155 276.115 381.253 276.952C381.351 277.789 381.457 278.68 381.576 279.618C381.827 281.473 382.147 283.524 382.547 285.667Z" fill="#516D7B"/>
<path d="M358.545 319.403C360.055 320.601 361.654 321.663 363.332 322.573C364.12 322.963 364.857 323.36 365.583 323.645C365.944 323.794 366.284 323.962 366.625 324.079L367.605 324.425C368.223 324.666 368.807 324.802 369.31 324.954C369.565 325.027 369.798 325.103 370.015 325.157L370.607 325.294C371.329 325.465 371.729 325.585 371.723 325.642C371.717 325.699 371.305 325.683 370.559 325.604L369.941 325.534C369.716 325.5 369.473 325.446 369.212 325.395C368.614 325.287 368.022 325.145 367.436 324.973L366.42 324.656C366.068 324.548 365.713 324.396 365.34 324.257C364.588 323.994 363.821 323.623 363.007 323.23C359.504 321.464 356.384 318.927 353.853 315.791C353.29 315.056 352.739 314.368 352.301 313.661C352.076 313.312 351.845 312.988 351.653 312.656L351.108 311.705C350.797 311.152 350.513 310.583 350.256 309.999C350.14 309.742 350.025 309.507 349.933 309.286L349.705 308.651C349.435 307.903 349.311 307.482 349.359 307.463C349.406 307.444 349.625 307.821 349.971 308.518L350.267 309.102C350.377 309.311 350.507 309.533 350.64 309.774C350.913 310.252 351.191 310.817 351.576 311.391L352.15 312.307C352.352 312.624 352.591 312.941 352.822 313.258C353.272 313.93 353.826 314.586 354.392 315.29C355.665 316.786 357.053 318.16 358.545 319.403Z" fill="#516D7B"/>
<path d="M369.482 320.95C371.35 321.784 373.26 322.498 375.208 323.087C376.111 323.338 376.966 323.591 377.78 323.763C378.186 323.854 378.577 323.956 378.965 324.029L380.057 324.232C380.753 324.378 381.389 324.447 381.946 324.549L382.722 324.666L383.379 324.742C384.166 324.837 384.605 324.917 384.605 324.974C384.605 325.031 384.161 325.056 383.361 325.056H382.695C382.452 325.056 382.189 325.024 381.905 325.005C381.339 324.958 380.691 324.929 379.98 324.818L378.864 324.663C378.476 324.606 378.079 324.517 377.662 324.438C376.83 324.292 375.957 324.057 375.033 323.826C371.039 322.732 367.223 320.995 363.718 318.674C362.921 318.126 362.157 317.612 361.482 317.073C361.142 316.806 360.804 316.562 360.5 316.302L359.611 315.55C359.046 315.081 358.575 314.599 358.149 314.2C357.939 313.994 357.74 313.807 357.557 313.626L357.092 313.116C356.538 312.497 356.248 312.139 356.287 312.101C356.325 312.063 356.68 312.342 357.293 312.884L357.799 313.338L358.418 313.854C358.865 314.222 359.354 314.666 359.934 315.097L360.822 315.798C361.133 316.042 361.474 316.27 361.817 316.521C362.498 317.031 363.262 317.514 364.055 318.037C365.808 319.121 367.62 320.094 369.482 320.95Z" fill="#516D7B"/>
<path d="M327.1 260.919C327.003 269.352 320.611 276.384 312.659 276.384C304.707 276.384 298.315 269.352 298.217 260.919C298.187 258.472 294.635 258.465 294.664 260.919C294.699 264.865 295.85 268.706 297.962 271.938C300.076 275.17 303.055 277.641 306.507 279.025C313.47 281.802 321.665 279.431 326.411 273.318C329.12 269.834 330.618 265.453 330.653 260.919C330.683 258.472 327.13 258.468 327.1 260.919Z" fill="#385868"/>
<path d="M272.541 337.224C273.21 344.465 276.845 350.92 282.077 355.485C287.998 360.653 295.382 363.144 302.866 364.206C317.811 366.324 334.612 364.552 347.224 355.012C353.486 350.286 358.475 343.942 361.261 336.263C362.09 333.98 358.655 332.991 357.835 335.252C353.098 348.31 341.161 356.411 328.842 359.426C321.716 361.169 314.291 361.445 307.017 360.849C300.039 360.278 292.895 358.655 286.923 354.569C281.325 350.736 276.759 344.452 276.09 337.208C275.868 334.795 272.313 334.77 272.538 337.208L272.541 337.224Z" fill="#385868"/>
<path d="M209.575 391.659H427.601C429.822 391.659 431.95 392.604 433.52 394.284C435.089 395.965 435.971 398.244 435.971 400.622V550.598C435.971 552.018 435.444 553.381 434.505 554.389C433.567 555.394 432.291 555.959 430.965 555.959H206.211C204.884 555.959 203.61 555.394 202.671 554.389C201.732 553.381 201.205 552.018 201.205 550.598V400.622C201.205 398.244 202.087 395.965 203.656 394.284C205.226 392.604 207.355 391.659 209.575 391.659Z" fill="#256075"/>
<path d="M427.471 391.297H210.999C205.945 391.297 201.851 395.437 201.851 400.542V405.421C201.851 400.316 205.945 396.176 210.999 396.176H427.471C432.525 396.176 436.619 400.316 436.619 405.421V400.542C436.619 395.434 432.525 391.297 427.471 391.297Z" fill="#347888"/>
<path d="M438.144 557.54H200.364V400.377C200.367 397.644 201.381 395.025 203.184 393.095C204.987 391.164 207.433 390.076 209.983 390.073H428.528C431.08 390.076 433.523 391.164 435.329 393.095C437.132 395.025 438.144 397.644 438.147 400.377L438.144 557.54ZM203.325 554.369H435.183V400.377C435.181 398.484 434.479 396.674 433.232 395.336C431.983 393.998 430.29 393.247 428.525 393.244H209.983C208.218 393.247 206.525 393.998 205.276 395.336C204.028 396.674 203.326 398.484 203.325 400.377V554.369Z" fill="#385868"/>
<path d="M151.952 538.718C148.072 538.705 144.282 537.463 141.061 535.145C137.84 532.828 135.333 529.54 133.855 525.698C132.378 521.855 131.997 517.629 132.761 513.555C133.525 509.481 135.399 505.743 138.147 502.808C140.895 499.875 144.393 497.878 148.199 497.073C152.006 496.264 155.95 496.686 159.534 498.277C163.118 499.872 166.181 502.567 168.336 506.022C170.491 509.478 171.64 513.539 171.64 517.696C171.627 523.275 169.547 528.624 165.856 532.564C162.165 536.505 157.165 538.718 151.952 538.718ZM151.952 502.383C149.126 502.392 146.366 503.302 144.021 504.992C141.677 506.682 139.852 509.079 138.778 511.878C137.705 514.677 137.43 517.756 137.988 520.723C138.546 523.691 139.913 526.414 141.916 528.551C143.919 530.684 146.468 532.14 149.241 532.723C152.014 533.309 154.887 533.002 157.497 531.842C160.107 530.678 162.337 528.716 163.906 526.198C165.475 523.681 166.312 520.72 166.311 517.696C166.299 513.628 164.78 509.729 162.088 506.859C159.397 503.99 155.752 502.38 151.952 502.383Z" fill="#385868"/>
<path d="M160.094 502.082V509.095C158.318 530.127 140.705 546.644 119.238 546.644C97.7708 546.644 80.1582 530.127 78.3818 509.095V502.082C78.5521 500.04 78.8739 498.017 79.344 496.033C79.5445 495.186 80.0025 494.435 80.6458 493.896C81.2891 493.36 82.0811 493.065 82.8967 493.065H155.567C156.383 493.065 157.175 493.36 157.818 493.896C158.462 494.435 158.92 495.186 159.12 496.033C159.594 498.017 159.92 500.04 160.094 502.082Z" fill="#68B9E1"/>
<path d="M160.094 494.65C160.095 495.608 160.003 496.565 159.822 497.504H114.157C114.157 503.106 110.217 507.649 105.356 507.649H104.805C103.633 507.639 102.476 507.373 101.406 506.863C100.335 506.349 99.3758 505.607 98.5877 504.678C96.9135 502.719 95.9922 500.157 96.009 497.504H78.9501C78.7683 496.565 78.6769 495.608 78.6777 494.65H160.094Z" fill="#ACD8F8"/>
<path d="M119.534 548.228C108.837 548.228 98.6141 544.224 90.7538 536.955C82.8934 529.685 78.1002 519.86 77.2031 509.237V509.094V501.938C77.3837 499.814 77.7212 497.709 78.2127 495.642C78.4934 494.453 79.1352 493.401 80.0367 492.646C80.9385 491.895 82.0487 491.483 83.1924 491.479H155.863C157.009 491.479 158.123 491.888 159.028 492.643C159.932 493.398 160.576 494.45 160.858 495.642C161.348 497.709 161.685 499.814 161.864 501.938V502.081V509.237C160.976 519.86 156.153 529.704 148.314 536.955C140.474 544.205 130.23 548.228 119.534 548.228ZM80.1578 509.021C81.0016 518.795 85.4484 527.859 92.69 534.555C100.014 541.327 109.548 545.058 119.534 545.058C129.52 545.058 139.056 541.33 146.377 534.555C153.616 527.859 158.066 518.795 158.91 509.021V502.154C158.742 500.22 158.433 498.305 157.986 496.425C157.866 495.918 157.592 495.471 157.208 495.148C156.824 494.827 156.35 494.653 155.863 494.653H83.1924C82.7051 494.653 82.2317 494.827 81.8474 495.148C81.4631 495.471 81.1893 495.918 81.0697 496.425C80.6223 498.305 80.3135 500.22 80.146 502.154L80.1578 509.021Z" fill="#385868"/>
<path d="M75.4209 542.205H163.054C163.054 545.651 161.775 548.958 159.499 551.396C157.223 553.834 154.135 555.203 150.916 555.203H87.5593C84.34 555.203 81.2527 553.834 78.9763 551.396C76.6999 548.958 75.4209 545.651 75.4209 542.205Z" fill="#68B9E1"/>
<path d="M161.279 542.839C161.275 543.799 161.176 544.754 160.982 545.692H113.506C113.506 551.294 109.406 555.837 104.352 555.837H103.781C102.57 555.834 101.373 555.571 100.26 555.061C99.1473 554.55 98.1424 553.802 97.3061 552.867C95.5768 550.939 94.6161 548.365 94.6267 545.692H76.8869C76.6936 544.754 76.5944 543.799 76.5908 542.839H161.279Z" fill="#ACD8F8"/>
<path d="M151.213 556.789H87.856C84.2453 556.786 80.7838 555.245 78.2306 552.512C75.6773 549.779 74.2412 546.07 74.2373 542.205V540.62H164.831V542.205C164.828 546.07 163.391 549.779 160.838 552.512C158.285 555.245 154.823 556.786 151.213 556.789ZM77.3015 543.79C77.6615 546.514 78.9269 549.009 80.8658 550.813C82.8047 552.62 85.2868 553.615 87.856 553.618H151.213C153.782 553.615 156.263 552.617 158.202 550.813C160.141 549.009 161.407 546.514 161.767 543.79H77.3015Z" fill="#385868"/>
<path d="M160.094 502.418H138.481V504.637H160.094V502.418Z" fill="#385868"/>
<g opacity="0.4">
<path opacity="0.4" d="M279.966 236.741C286.305 236.741 291.444 233.76 291.444 230.083C291.444 226.407 286.305 223.426 279.966 223.426C273.626 223.426 268.487 226.407 268.487 230.083C268.487 233.76 273.626 236.741 279.966 236.741Z" fill="white"/>
<path opacity="0.4" d="M345.315 236.741C351.654 236.741 356.793 233.76 356.793 230.083C356.793 226.407 351.654 223.426 345.315 223.426C338.977 223.426 333.837 226.407 333.837 230.083C333.837 233.76 338.977 236.741 345.315 236.741Z" fill="white"/>
</g>
</g>
</g>
<defs>
<clipPath id="clip0_304_1179">
<rect width="601" height="558.93" fill="white"/>
</clipPath>
</defs>
</svg>
