<svg width="154" height="36" fill="none" xmlns="http://www.w3.org/2000/svg"><path d="M58.088 13.672c-.088.144-.18.252-.276.324a.635.635 0 0 1-.36.096c-.152 0-.324-.064-.516-.192a7.53 7.53 0 0 0-.696-.42 5.272 5.272 0 0 0-.972-.432c-.376-.136-.824-.204-1.344-.204-.48 0-.904.06-1.272.18-.36.12-.664.288-.912.504a2.128 2.128 0 0 0-.564.768 2.44 2.44 0 0 0-.18.948c0 .44.116.808.348 1.104.232.288.536.536.912.744.384.208.82.392 1.308.552.488.152.984.316 1.488.492.512.176 1.012.376 1.5.6.488.224.92.508 1.296.852.384.344.692.764.924 1.26.232.496.348 1.1.348 1.812 0 .768-.132 1.488-.396 2.16a5.108 5.108 0 0 1-1.152 1.764c-.496.496-1.112.888-1.848 1.176-.728.288-1.56.432-2.496.432a7.786 7.786 0 0 1-1.62-.168 8.538 8.538 0 0 1-1.5-.444c-.472-.2-.916-.44-1.332-.72a6.716 6.716 0 0 1-1.116-.936l.816-1.344a.792.792 0 0 1 .276-.264.736.736 0 0 1 .372-.096c.184 0 .388.088.612.264.224.168.492.356.804.564.32.2.704.388 1.152.564.448.168.984.252 1.608.252 1.016 0 1.8-.248 2.352-.744.56-.496.84-1.18.84-2.052 0-.488-.116-.884-.348-1.188a2.776 2.776 0 0 0-.924-.78 6.437 6.437 0 0 0-1.296-.528 76.09 76.09 0 0 1-1.488-.456c-.504-.168-1-.36-1.488-.576a5.021 5.021 0 0 1-1.308-.864c-.376-.36-.68-.8-.912-1.32-.232-.528-.348-1.184-.348-1.968 0-.624.12-1.228.36-1.812a4.67 4.67 0 0 1 1.068-1.548c.472-.456 1.052-.82 1.74-1.092.688-.272 1.472-.408 2.352-.408.992 0 1.9.156 2.724.468a6.206 6.206 0 0 1 2.148 1.332l-.684 1.344zm8.83 1.896c.905 0 1.72.148 2.449.444.736.296 1.36.716 1.872 1.26.52.544.92 1.204 1.2 1.98.28.776.42 1.648.42 2.616 0 .968-.14 1.84-.42 2.616a5.67 5.67 0 0 1-1.2 1.992 5.192 5.192 0 0 1-1.872 1.26c-.728.296-1.544.444-2.448.444-.912 0-1.736-.148-2.472-.444a5.333 5.333 0 0 1-1.872-1.26 5.67 5.67 0 0 1-1.2-1.992c-.28-.776-.42-1.648-.42-2.616 0-.968.14-1.84.42-2.616.28-.776.68-1.436 1.2-1.98a5.333 5.333 0 0 1 1.872-1.26c.736-.296 1.56-.444 2.472-.444zm0 10.596c1.105 0 1.925-.368 2.46-1.104.545-.744.817-1.804.817-3.18 0-1.376-.272-2.436-.816-3.18-.536-.752-1.356-1.128-2.46-1.128-1.12 0-1.952.376-2.496 1.128-.544.744-.816 1.804-.816 3.18 0 1.376.272 2.436.816 3.18.544.736 1.376 1.104 2.496 1.104zM77.967 10.24V28h-2.58V10.24h2.58zM92.623 19c.64 0 1.2-.076 1.68-.228.48-.16.88-.38 1.2-.66.32-.28.56-.612.72-.996.16-.392.24-.824.24-1.296 0-.944-.312-1.664-.936-2.16-.624-.496-1.568-.744-2.832-.744h-2.28V19h2.208zm8.136 9h-2.508c-.496 0-.856-.192-1.08-.576l-4.032-5.82a1.33 1.33 0 0 0-.444-.432c-.16-.088-.4-.132-.72-.132h-1.56V28h-2.808V10.72h5.088c1.136 0 2.112.116 2.928.348.824.232 1.5.564 2.028.996a3.82 3.82 0 0 1 1.164 1.536c.256.6.384 1.268.384 2.004a5 5 0 0 1-.276 1.68c-.176.52-.436.992-.78 1.416a4.907 4.907 0 0 1-1.248 1.104 6.364 6.364 0 0 1-1.692.732c.344.208.64.5.888.876L100.759 28zm7.955-5.352c-.92.032-1.696.108-2.328.228-.632.112-1.144.26-1.536.444-.392.176-.676.388-.852.636-.168.248-.252.52-.252.816 0 .288.044.536.132.744.096.2.224.368.384.504.168.128.36.224.576.288.224.056.468.084.732.084.672 0 1.248-.124 1.728-.372.488-.256.96-.624 1.416-1.104v-2.268zm-6.84-5.184c1.384-1.288 3.032-1.932 4.944-1.932.704 0 1.328.116 1.872.348a3.634 3.634 0 0 1 1.38.96c.376.416.66.912.852 1.488.2.568.3 1.2.3 1.896V28h-1.152c-.248 0-.436-.036-.564-.108-.128-.08-.236-.236-.324-.468l-.252-.996c-.312.28-.62.532-.924.756-.304.216-.62.4-.948.552-.32.152-.668.264-1.044.336-.368.08-.776.12-1.224.12-.496 0-.96-.068-1.392-.204a3.097 3.097 0 0 1-1.104-.612 3.052 3.052 0 0 1-.744-1.032c-.176-.408-.264-.888-.264-1.44 0-.472.124-.932.372-1.38.256-.448.672-.848 1.248-1.2.584-.36 1.348-.656 2.292-.888.952-.232 2.124-.364 3.516-.396v-.816c0-.88-.188-1.536-.564-1.968-.376-.432-.928-.648-1.656-.648-.496 0-.912.064-1.248.192-.336.12-.628.252-.876.396-.248.144-.468.28-.66.408-.192.12-.396.18-.612.18a.785.785 0 0 1-.456-.132 1.258 1.258 0 0 1-.3-.348l-.468-.84zm8.508-6.936-2.892 3.108a1.147 1.147 0 0 1-.384.3c-.12.056-.28.084-.48.084h-1.536l1.74-2.904c.112-.2.24-.348.384-.444.152-.096.372-.144.66-.144h2.508zm12.49 6.312c0 .184-.032.364-.096.54-.056.176-.14.324-.252.444l-6.204 8.172h6.348V28h-9.336v-1.08c0-.12.028-.264.084-.432.056-.168.14-.328.252-.48l6.252-8.244h-6.228V15.76h9.18v1.08zm12.637-1.08V28h-1.56c-.344 0-.564-.164-.66-.492l-.192-1.14c-.256.272-.528.52-.816.744-.28.224-.58.416-.9.576a4.893 4.893 0 0 1-2.196.504c-.672 0-1.264-.112-1.776-.336a3.582 3.582 0 0 1-1.296-.948 4.143 4.143 0 0 1-.78-1.464 6.465 6.465 0 0 1-.264-1.896V15.76h2.58v7.788c0 .824.188 1.464.564 1.92.384.456.964.684 1.74.684.568 0 1.096-.128 1.584-.384a5.45 5.45 0 0 0 1.392-1.08V15.76h2.58zm5.569 2.268c.384-.776.848-1.384 1.392-1.824.544-.448 1.196-.672 1.956-.672.264 0 .512.032.744.096.232.056.44.144.624.264l-.18 1.944c-.032.136-.084.232-.156.288a.431.431 0 0 1-.264.072c-.12 0-.292-.02-.516-.06a3.372 3.372 0 0 0-.708-.072c-.36 0-.68.052-.96.156-.272.104-.52.256-.744.456-.216.2-.408.444-.576.732a7.06 7.06 0 0 0-.468.984V28h-2.58V15.76h1.5c.272 0 .46.052.564.156.104.096.176.268.216.516l.156 1.596zm9.112-2.268V28h-2.58V15.76h2.58zm.432-3.696c0 .232-.048.452-.144.66a1.723 1.723 0 0 1-.372.552c-.16.152-.348.276-.564.372a1.707 1.707 0 0 1-.672.132c-.232 0-.452-.044-.66-.132-.2-.096-.376-.22-.528-.372a2.03 2.03 0 0 1-.372-.552 1.676 1.676 0 0 1-.132-.66c0-.24.044-.464.132-.672.096-.208.22-.388.372-.54.152-.16.328-.284.528-.372.208-.096.428-.144.66-.144.24 0 .464.048.672.144.216.088.404.212.564.372.16.152.284.332.372.54.096.208.144.432.144.672z" fill="#000"/><g clip-path="url(#a)"><path d="M18 11.25c-3.72 0-6.75 3.03-6.75 6.75s3.03 6.75 6.75 6.75 6.75-3.03 6.75-6.75-3.03-6.75-6.75-6.75zm17.325 5.66-6.659-3.326 2.356-7.059c.316-.956-.59-1.863-1.54-1.54l-7.06 2.356L19.09.675c-.45-.9-1.73-.9-2.18 0l-3.326 6.659-7.066-2.356c-.956-.316-1.863.59-1.54 1.54l2.356 7.06L.675 16.91c-.9.45-.9 1.73 0 2.18l6.659 3.326-2.356 7.066c-.316.956.59 1.863 1.54 1.54l7.06-2.356 3.325 6.659c.45.9 1.73.9 2.18 0l3.326-6.659 7.059 2.356c.956.316 1.863-.59 1.54-1.54l-2.356-7.06 6.659-3.325c.914-.457.914-1.737.014-2.187zm-10.962 7.453c-3.508 3.509-9.218 3.509-12.726 0-3.509-3.508-3.509-9.218 0-12.726 3.508-3.509 9.218-3.509 12.726 0 3.509 3.508 3.509 9.218 0 12.726z" fill="#000"/></g><defs><clipPath id="a"><path fill="#fff" d="M0 0h36v36H0z"/></clipPath></defs></svg>